<svg width="38" height="19" viewBox="0 0 38 19" fill="none" xmlns="http://www.w3.org/2000/svg">
<path d="M2.05859 8.18848C1.36824 8.18848 0.808594 8.74812 0.808594 9.43848C0.808594 10.1288 1.36824 10.6885 2.05859 10.6885L2.05859 8.18848ZM36.9425 10.3224C37.4306 9.8342 37.4306 9.04275 36.9425 8.55459L28.9875 0.599642C28.4994 0.111486 27.7079 0.111486 27.2198 0.599642C26.7316 1.0878 26.7316 1.87925 27.2198 2.36741L34.2908 9.43848L27.2198 16.5095C26.7316 16.9977 26.7316 17.7892 27.2198 18.2773C27.7079 18.7655 28.4994 18.7655 28.9875 18.2773L36.9425 10.3224ZM2.05859 10.6885L36.0586 10.6885L36.0586 8.18848L2.05859 8.18848L2.05859 10.6885Z" fill="#040033"/>
</svg>
