<svg width="20" height="20" viewBox="0 0 20 20" fill="none" xmlns="http://www.w3.org/2000/svg">
<g id="Status Icon">
<path id="Ellipse 67" d="M10 17C13.866 17 17 13.866 17 10C17 6.13401 13.866 3 10 3" stroke="#62666D" stroke-dasharray="3 2"/>
<path id="Ellipse 69" d="M10 17C6.13401 17 3 13.866 3 10C3 6.13401 6.13401 3 10 3" stroke="#62666D" stroke-dasharray="3 2"/>
<g id="Group 176">
<path id="Ellipse 30" d="M12.914 16.4348C13.4663 16.4348 13.9238 15.9832 13.8201 15.4407C13.6595 14.6012 13.2974 13.8246 12.7679 13.2068C12.034 12.3506 11.0387 11.8696 10.0009 11.8696C8.96313 11.8696 7.96783 12.3506 7.23399 13.2067C6.70444 13.8246 6.34234 14.6012 6.18178 15.4407C6.07803 15.9832 6.53561 16.4348 7.08789 16.4348L10.0009 16.4348H12.914Z" fill="#62666D"/>
<path id="Subtract" fill-rule="evenodd" clip-rule="evenodd" d="M10.0013 11.2174C11.442 11.2174 12.61 10.0494 12.61 8.6087C12.61 7.16795 11.442 6 10.0013 6C8.56053 6 7.39258 7.16795 7.39258 8.6087C7.39258 10.0494 8.56053 11.2174 10.0013 11.2174ZM10.0012 9.91284C10.7216 9.91284 11.3056 9.32886 11.3056 8.60849C11.3056 7.88812 10.7216 7.30414 10.0012 7.30414C9.28084 7.30414 8.69686 7.88812 8.69686 8.60849C8.69686 9.32886 9.28084 9.91284 10.0012 9.91284Z" fill="#62666D"/>
</g>
</g>
</svg>
