<svg width="1920" height="323" viewBox="0 0 1920 323" fill="none" xmlns="http://www.w3.org/2000/svg">
<path d="M477.572 219.115C477.572 222.754 477.131 226.59 476.248 230.623C475.463 234.656 474.188 238.688 472.423 242.721C470.657 246.655 468.352 250.442 465.508 254.081C462.761 257.72 459.378 260.966 455.356 263.818C451.433 266.572 446.872 268.785 441.673 270.457C436.475 272.129 430.59 272.965 424.018 272.965H355.016C351.387 272.965 347.561 272.572 343.54 271.785C339.518 270.9 335.497 269.572 331.475 267.802C327.552 266.031 323.776 263.769 320.147 261.015C316.518 258.163 313.281 254.769 310.436 250.835C307.69 246.803 305.483 242.18 303.816 236.967C302.148 231.656 301.314 225.705 301.314 219.115V46.0566H339.567V219.115C339.567 223.836 341.039 227.623 343.981 230.475C346.924 233.229 350.602 234.606 355.016 234.606H424.018C428.824 234.606 432.551 233.18 435.2 230.328C437.946 227.475 439.319 223.738 439.319 219.115V167.183C439.319 162.363 437.897 158.626 435.053 155.97C432.208 153.216 428.53 151.839 424.018 151.839H355.016V113.48H424.018C427.647 113.48 431.473 113.923 435.494 114.808C439.515 115.595 443.488 116.873 447.411 118.644C451.433 120.414 455.258 122.726 458.887 125.578C462.516 128.332 465.704 131.725 468.45 135.758C471.197 139.692 473.404 144.266 475.071 149.479C476.738 154.692 477.572 160.593 477.572 167.183V219.115Z" fill="#3A3F48"/>
<path d="M580.119 272.965H563.053C557.56 272.965 551.675 272.031 545.398 270.162C539.218 268.294 533.431 265.244 528.037 261.015C522.642 256.687 518.179 251.13 514.648 244.344C511.117 237.459 509.352 229.049 509.352 219.115V46.0566H547.604V219.115C547.604 223.836 549.076 227.623 552.018 230.475C554.961 233.229 558.639 234.606 563.053 234.606H580.119V272.965Z" fill="#3A3F48"/>
<path d="M643.531 80.7274H605.278V46.0566H643.531V80.7274ZM643.531 272.965H605.278V113.48H643.531V272.965Z" fill="#3A3F48"/>
<path d="M856.57 272.965H818.318V184.444C818.318 179.428 817.435 174.953 815.669 171.019C814.002 166.986 811.697 163.544 808.754 160.691C805.812 157.839 802.33 155.675 798.308 154.2C794.385 152.626 790.118 151.839 785.508 151.839H718.566V272.965H680.313V132.512C680.313 129.857 680.803 127.398 681.784 125.135C682.765 122.775 684.138 120.759 685.904 119.086C687.669 117.316 689.729 115.939 692.083 114.955C694.437 113.972 696.938 113.48 699.586 113.48H785.803C790.609 113.48 795.66 114.021 800.957 115.103C806.351 116.185 811.648 117.955 816.846 120.414C822.143 122.775 827.145 125.824 831.853 129.561C836.659 133.201 840.877 137.676 844.506 142.987C848.233 148.2 851.176 154.249 853.334 161.134C855.492 168.019 856.57 175.789 856.57 184.444V272.965Z" fill="#3A3F48"/>
<path d="M1076.97 272.965H1021.79L944.699 198.313C940.384 194.378 938.373 189.461 938.667 183.559C938.863 180.805 939.55 178.248 940.727 175.887C942.002 173.429 943.718 171.363 945.876 169.691L1015.76 113.185H1076.97L986.925 185.92L1076.97 272.965ZM928.957 272.965H890.704V46.0566H928.957V272.965Z" fill="#3A3F48"/>
<path d="M1252.19 219.115C1252.19 225.705 1251.36 231.656 1249.69 236.967C1248.03 242.18 1245.82 246.803 1243.07 250.835C1240.33 254.769 1237.14 258.163 1233.51 261.015C1229.88 263.769 1226.05 266.031 1222.03 267.802C1218.11 269.572 1214.09 270.9 1209.97 271.785C1205.95 272.572 1202.12 272.965 1198.49 272.965H1094.92V234.606H1198.2C1203.4 234.606 1207.32 233.279 1209.97 230.623C1212.62 227.967 1213.94 224.131 1213.94 219.115C1213.45 208.886 1208.3 203.772 1198.49 203.772H1139.2C1130.77 203.772 1123.61 202.296 1117.72 199.345C1111.84 196.395 1107.03 192.706 1103.3 188.28C1099.67 183.854 1097.02 179.084 1095.36 173.969C1093.79 168.855 1093 164.085 1093 159.659C1093 151.102 1094.52 143.922 1097.56 138.118C1100.6 132.217 1104.43 127.447 1109.04 123.808C1113.65 120.168 1118.65 117.562 1124.05 115.988C1129.44 114.316 1134.49 113.48 1139.2 113.48H1233.21V151.839H1139.49C1137.53 151.839 1135.96 152.085 1134.79 152.577C1133.71 152.97 1132.87 153.56 1132.29 154.347C1131.8 155.036 1131.5 155.823 1131.4 156.708C1131.3 157.495 1131.26 158.282 1131.26 159.068C1131.35 160.642 1131.65 161.872 1132.14 162.757C1132.63 163.642 1133.22 164.281 1133.9 164.675C1134.69 165.068 1135.52 165.314 1136.41 165.412C1137.39 165.412 1138.32 165.412 1139.2 165.412H1198.49C1208.3 165.412 1216.64 167.183 1223.5 170.724C1230.37 174.265 1235.91 178.74 1240.13 184.149C1244.35 189.461 1247.39 195.264 1249.25 201.559C1251.21 207.853 1252.19 213.706 1252.19 219.115Z" fill="#3A3F48"/>
<path d="M1541 113.48C1534.92 127.152 1528.35 140.627 1521.29 153.905C1514.23 167.085 1506.82 179.576 1499.07 191.379C1491.42 203.181 1483.58 214.099 1475.53 224.131C1467.49 234.065 1459.5 242.672 1451.55 249.95C1443.7 257.13 1436 262.786 1428.45 266.917C1421 270.949 1413.94 272.965 1407.27 272.965C1404.52 272.965 1401.97 272.474 1399.61 271.49C1397.26 270.507 1395.2 269.179 1393.44 267.507C1391.67 265.736 1390.3 263.671 1389.32 261.31C1388.34 258.95 1387.84 256.392 1387.84 253.638V182.084L1311.93 267.212C1309.97 269.179 1307.81 270.654 1305.45 271.638C1303.2 272.523 1300.84 272.965 1298.39 272.965C1295.74 272.965 1293.24 272.474 1290.89 271.49C1288.63 270.507 1286.62 269.179 1284.86 267.507C1283.09 265.736 1281.67 263.671 1280.59 261.31C1279.61 258.95 1279.12 256.392 1279.12 253.638V113.48H1317.37V204.362L1393.58 118.939C1396.33 116.185 1399.57 114.464 1403.29 113.775C1407.12 112.988 1410.85 113.382 1414.47 114.955C1418.1 116.431 1420.95 118.791 1423.01 122.037C1425.17 125.185 1426.24 128.676 1426.24 132.512V223.689C1434.48 215.722 1441.94 207.312 1448.61 198.46C1455.28 189.608 1461.46 180.51 1467.15 171.166C1472.93 161.724 1478.33 152.183 1483.33 142.545C1488.43 132.807 1493.38 123.119 1498.19 113.48H1541Z" fill="#3A3F48"/>
<path d="M1711.96 220.148C1711.96 225.459 1711.03 231.213 1709.17 237.41C1707.31 243.508 1704.27 249.212 1700.05 254.524C1695.93 259.736 1690.48 264.113 1683.72 267.654C1677.05 271.195 1668.91 272.965 1659.29 272.965H1590.29C1584.99 272.965 1579.26 272.031 1573.08 270.162C1567 268.294 1561.31 265.294 1556.01 261.163C1550.81 256.933 1546.45 251.475 1542.92 244.786C1539.39 238 1537.62 229.787 1537.62 220.148C1537.62 214.837 1538.55 209.083 1540.42 202.886C1542.28 196.69 1545.27 190.985 1549.39 185.772C1553.61 180.461 1559.05 176.035 1565.72 172.494C1572.49 168.953 1580.68 167.183 1590.29 167.183H1659.29V203.772H1590.29C1585.09 203.772 1581.07 205.394 1578.23 208.64C1575.38 211.788 1573.96 215.722 1573.96 220.443C1573.96 225.459 1575.58 229.393 1578.82 232.246C1582.15 235 1586.07 236.377 1590.59 236.377H1659.29C1664.49 236.377 1668.51 234.803 1671.36 231.656C1674.2 228.508 1675.62 224.574 1675.62 219.853V166.298C1675.62 161.281 1674.06 157.298 1670.92 154.347C1667.88 151.397 1664 149.921 1659.29 149.921H1575.28V113.48H1659.29C1664.59 113.48 1670.28 114.415 1676.36 116.283C1682.54 118.152 1688.23 121.201 1693.43 125.43C1698.72 129.561 1703.14 135.02 1706.67 141.807C1710.2 148.495 1711.96 156.659 1711.96 166.298V220.148Z" fill="#3A3F48"/>
<path d="M1920 219.115C1920 225.705 1919.17 231.656 1917.5 236.967C1915.83 242.18 1913.63 246.803 1910.88 250.835C1908.13 254.769 1904.95 258.163 1901.32 261.015C1897.69 263.769 1893.86 266.031 1889.84 267.802C1885.92 269.572 1881.95 270.9 1877.92 271.785C1873.9 272.572 1870.08 272.965 1866.45 272.965H1797.45V234.606H1866.45C1871.55 234.606 1875.37 233.279 1877.92 230.623C1880.47 227.967 1881.75 224.131 1881.75 219.115V167.478C1881.75 162.167 1880.42 158.232 1877.78 155.675C1875.23 153.118 1871.45 151.839 1866.45 151.839H1797.74C1792.54 151.839 1788.62 153.167 1785.97 155.823C1783.32 158.38 1782 162.167 1782 167.183V322.832H1743.74V167.183C1743.74 160.593 1744.58 154.692 1746.25 149.479C1747.91 144.266 1750.12 139.692 1752.87 135.758C1755.71 131.725 1758.95 128.332 1762.58 125.578C1766.21 122.726 1769.98 120.414 1773.91 118.644C1777.93 116.873 1781.95 115.595 1785.97 114.808C1790.09 113.923 1793.91 113.48 1797.45 113.48H1866.45C1873.02 113.48 1878.9 114.316 1884.1 115.988C1889.3 117.66 1893.86 119.873 1897.79 122.627C1901.81 125.381 1905.19 128.578 1907.94 132.217C1910.78 135.856 1913.09 139.692 1914.85 143.725C1916.62 147.659 1917.89 151.643 1918.68 155.675C1919.56 159.708 1920 163.544 1920 167.183V219.115Z" fill="#3A3F48"/>
<path d="M163.212 58.1351C151.64 52.3668 138.942 48.5297 125.54 47.0443V318.405C138.942 316.92 151.64 313.083 163.212 307.314V58.1351Z" fill="url(#paint0_linear_755_2)"/>
<path d="M188.315 244.116C211.433 223.368 225.987 193.218 225.987 159.66C225.987 126.102 211.433 95.9519 188.315 75.2047V244.116Z" fill="url(#paint1_linear_755_2)"/>
<path d="M62.7649 12.0104C74.3372 6.24089 87.0347 2.40257 100.438 0.916016V272.275C87.0347 270.788 74.3372 266.95 62.7649 261.181V12.0104Z" fill="url(#paint2_linear_755_2)"/>
<path d="M37.6627 75.2129C14.5494 95.9599 0 126.107 0 159.66C0 193.213 14.5494 223.36 37.6627 244.107V75.2129Z" fill="url(#paint3_linear_755_2)"/>
<defs>
<linearGradient id="paint0_linear_755_2" x1="112.993" y1="46.3509" x2="112.993" y2="272.965" gradientUnits="userSpaceOnUse">
<stop stop-color="#FFB800"/>
<stop offset="1" stop-color="#FFF500"/>
</linearGradient>
<linearGradient id="paint1_linear_755_2" x1="112.993" y1="46.3509" x2="112.993" y2="272.965" gradientUnits="userSpaceOnUse">
<stop stop-color="#FFB800"/>
<stop offset="1" stop-color="#FFF500"/>
</linearGradient>
<linearGradient id="paint2_linear_755_2" x1="112.993" y1="46.3509" x2="112.993" y2="272.965" gradientUnits="userSpaceOnUse">
<stop stop-color="#FFB800"/>
<stop offset="1" stop-color="#FFF500"/>
</linearGradient>
<linearGradient id="paint3_linear_755_2" x1="112.993" y1="46.3509" x2="112.993" y2="272.965" gradientUnits="userSpaceOnUse">
<stop stop-color="#FFB800"/>
<stop offset="1" stop-color="#FFF500"/>
</linearGradient>
</defs>
</svg>
