<svg width="1920" height="322" viewBox="0 0 1920 322" fill="none" xmlns="http://www.w3.org/2000/svg">
<path d="M477.572 218.199C477.572 221.838 477.131 225.674 476.248 229.707C475.463 233.74 474.188 237.772 472.423 241.805C470.657 245.739 468.352 249.526 465.508 253.165C462.761 256.804 459.378 260.05 455.356 262.902C451.433 265.656 446.872 267.869 441.673 269.541C436.475 271.213 430.59 272.049 424.018 272.049H355.016C351.387 272.049 347.561 271.656 343.54 270.869C339.518 269.984 335.497 268.656 331.475 266.886C327.552 265.115 323.776 262.853 320.147 260.099C316.518 257.247 313.281 253.853 310.436 249.919C307.69 245.887 305.483 241.264 303.816 236.051C302.148 230.74 301.314 224.789 301.314 218.199V45.1406H339.567V218.199C339.567 222.92 341.039 226.707 343.981 229.559C346.924 232.313 350.602 233.69 355.016 233.69H424.018C428.824 233.69 432.551 232.264 435.2 229.412C437.946 226.559 439.319 222.822 439.319 218.199V166.267C439.319 161.447 437.897 157.71 435.053 155.054C432.208 152.3 428.53 150.923 424.018 150.923H355.016V112.564H424.018C427.647 112.564 431.473 113.007 435.494 113.892C439.515 114.679 443.488 115.957 447.411 117.728C451.433 119.498 455.258 121.81 458.887 124.662C462.516 127.416 465.704 130.809 468.45 134.842C471.197 138.776 473.404 143.35 475.071 148.563C476.738 153.776 477.572 159.677 477.572 166.267V218.199Z" fill="white"/>
<path d="M580.119 272.049H563.053C557.56 272.049 551.675 271.115 545.398 269.246C539.218 267.377 533.431 264.328 528.037 260.099C522.642 255.771 518.179 250.214 514.648 243.428C511.117 236.543 509.352 228.133 509.352 218.199V45.1406H547.604V218.199C547.604 222.92 549.076 226.707 552.018 229.559C554.961 232.313 558.639 233.69 563.053 233.69H580.119V272.049Z" fill="white"/>
<path d="M643.531 79.8113H605.278V45.1406H643.531V79.8113ZM643.531 272.049H605.278V112.564H643.531V272.049Z" fill="white"/>
<path d="M856.57 272.049H818.318V183.528C818.318 178.512 817.435 174.037 815.669 170.103C814.002 166.07 811.697 162.628 808.754 159.775C805.812 156.923 802.33 154.759 798.308 153.284C794.385 151.71 790.118 150.923 785.508 150.923H718.566V272.049H680.313V131.596C680.313 128.94 680.803 126.482 681.784 124.219C682.765 121.859 684.138 119.843 685.904 118.17C687.669 116.4 689.729 115.023 692.083 114.039C694.437 113.056 696.938 112.564 699.586 112.564H785.803C790.609 112.564 795.66 113.105 800.957 114.187C806.351 115.269 811.648 117.039 816.846 119.498C822.143 121.859 827.145 124.908 831.853 128.645C836.659 132.285 840.877 136.76 844.506 142.071C848.233 147.284 851.176 153.333 853.334 160.218C855.492 167.103 856.57 174.873 856.57 183.528V272.049Z" fill="white"/>
<path d="M1076.97 272.049H1021.79L944.699 197.397C940.384 193.462 938.373 188.545 938.667 182.643C938.863 179.889 939.55 177.332 940.727 174.971C942.002 172.512 943.718 170.447 945.876 168.775L1015.76 112.269H1076.97L986.925 185.004L1076.97 272.049ZM928.957 272.049H890.704V45.1406H928.957V272.049Z" fill="white"/>
<path d="M1252.19 218.199C1252.19 224.789 1251.36 230.74 1249.69 236.051C1248.03 241.264 1245.82 245.887 1243.07 249.919C1240.33 253.853 1237.14 257.247 1233.51 260.099C1229.88 262.853 1226.05 265.115 1222.03 266.886C1218.11 268.656 1214.09 269.984 1209.97 270.869C1205.95 271.656 1202.12 272.049 1198.49 272.049H1094.92V233.69H1198.2C1203.4 233.69 1207.32 232.363 1209.97 229.707C1212.62 227.051 1213.94 223.215 1213.94 218.199C1213.45 207.97 1208.3 202.856 1198.49 202.856H1139.2C1130.77 202.856 1123.61 201.38 1117.72 198.429C1111.84 195.479 1107.03 191.79 1103.3 187.364C1099.67 182.938 1097.02 178.168 1095.36 173.053C1093.79 167.939 1093 163.169 1093 158.743C1093 150.186 1094.52 143.006 1097.56 137.202C1100.6 131.301 1104.43 126.531 1109.04 122.892C1113.65 119.252 1118.65 116.646 1124.05 115.072C1129.44 113.4 1134.49 112.564 1139.2 112.564H1233.21V150.923H1139.49C1137.53 150.923 1135.96 151.169 1134.79 151.661C1133.71 152.054 1132.87 152.644 1132.29 153.431C1131.8 154.12 1131.5 154.907 1131.4 155.792C1131.3 156.579 1131.26 157.366 1131.26 158.152C1131.35 159.726 1131.65 160.956 1132.14 161.841C1132.63 162.726 1133.22 163.365 1133.9 163.759C1134.69 164.152 1135.52 164.398 1136.41 164.496C1137.39 164.496 1138.32 164.496 1139.2 164.496H1198.49C1208.3 164.496 1216.64 166.267 1223.5 169.808C1230.37 173.349 1235.91 177.824 1240.13 183.233C1244.35 188.545 1247.39 194.348 1249.25 200.643C1251.21 206.937 1252.19 212.79 1252.19 218.199Z" fill="white"/>
<path d="M1541 112.564C1534.92 126.236 1528.35 139.711 1521.29 152.989C1514.23 166.168 1506.82 178.66 1499.07 190.463C1491.42 202.265 1483.58 213.183 1475.53 223.215C1467.49 233.149 1459.5 241.756 1451.55 249.034C1443.7 256.214 1436 261.87 1428.45 266.001C1421 270.033 1413.94 272.049 1407.27 272.049C1404.52 272.049 1401.97 271.558 1399.61 270.574C1397.26 269.591 1395.2 268.263 1393.44 266.591C1391.67 264.82 1390.3 262.755 1389.32 260.394C1388.34 258.034 1387.84 255.476 1387.84 252.722V181.168L1311.93 266.296C1309.97 268.263 1307.81 269.738 1305.45 270.722C1303.2 271.607 1300.84 272.049 1298.39 272.049C1295.74 272.049 1293.24 271.558 1290.89 270.574C1288.63 269.591 1286.62 268.263 1284.86 266.591C1283.09 264.82 1281.67 262.755 1280.59 260.394C1279.61 258.034 1279.12 255.476 1279.12 252.722V112.564H1317.37V203.446L1393.58 118.023C1396.33 115.269 1399.57 113.548 1403.29 112.859C1407.12 112.072 1410.85 112.466 1414.47 114.039C1418.1 115.515 1420.95 117.875 1423.01 121.121C1425.17 124.269 1426.24 127.76 1426.24 131.596V222.773C1434.48 214.806 1441.94 206.396 1448.61 197.544C1455.28 188.692 1461.46 179.594 1467.15 170.25C1472.93 160.808 1478.33 151.267 1483.33 141.629C1488.43 131.891 1493.38 122.203 1498.19 112.564H1541Z" fill="white"/>
<path d="M1711.96 219.232C1711.96 224.543 1711.03 230.297 1709.17 236.493C1707.31 242.592 1704.27 248.296 1700.05 253.608C1695.93 258.82 1690.48 263.197 1683.72 266.738C1677.05 270.279 1668.91 272.049 1659.29 272.049H1590.29C1584.99 272.049 1579.26 271.115 1573.08 269.246C1567 267.377 1561.31 264.378 1556.01 260.247C1550.81 256.017 1546.45 250.559 1542.92 243.87C1539.39 237.084 1537.62 228.871 1537.62 219.232C1537.62 213.921 1538.55 208.167 1540.42 201.97C1542.28 195.774 1545.27 190.069 1549.39 184.856C1553.61 179.545 1559.05 175.119 1565.72 171.578C1572.49 168.037 1580.68 166.267 1590.29 166.267H1659.29V202.856H1590.29C1585.09 202.856 1581.07 204.478 1578.23 207.724C1575.38 210.872 1573.96 214.806 1573.96 219.527C1573.96 224.543 1575.58 228.477 1578.82 231.33C1582.15 234.084 1586.07 235.461 1590.59 235.461H1659.29C1664.49 235.461 1668.51 233.887 1671.36 230.74C1674.2 227.592 1675.62 223.658 1675.62 218.937V165.382C1675.62 160.365 1674.06 156.382 1670.92 153.431C1667.88 150.481 1664 149.005 1659.29 149.005H1575.28V112.564H1659.29C1664.59 112.564 1670.28 113.499 1676.36 115.367C1682.54 117.236 1688.23 120.285 1693.43 124.514C1698.72 128.645 1703.14 134.104 1706.67 140.891C1710.2 147.579 1711.96 155.743 1711.96 165.382V219.232Z" fill="white"/>
<path d="M1920 218.199C1920 224.789 1919.17 230.74 1917.5 236.051C1915.83 241.264 1913.63 245.887 1910.88 249.919C1908.13 253.853 1904.95 257.247 1901.32 260.099C1897.69 262.853 1893.86 265.115 1889.84 266.886C1885.92 268.656 1881.95 269.984 1877.92 270.869C1873.9 271.656 1870.08 272.049 1866.45 272.049H1797.45V233.69H1866.45C1871.55 233.69 1875.37 232.363 1877.92 229.707C1880.47 227.051 1881.75 223.215 1881.75 218.199V166.562C1881.75 161.251 1880.42 157.316 1877.78 154.759C1875.23 152.202 1871.45 150.923 1866.45 150.923H1797.74C1792.54 150.923 1788.62 152.251 1785.97 154.907C1783.32 157.464 1782 161.251 1782 166.267V321.916H1743.74V166.267C1743.74 159.677 1744.58 153.776 1746.25 148.563C1747.91 143.35 1750.12 138.776 1752.87 134.842C1755.71 130.809 1758.95 127.416 1762.58 124.662C1766.21 121.81 1769.98 119.498 1773.91 117.728C1777.93 115.957 1781.95 114.679 1785.97 113.892C1790.09 113.007 1793.91 112.564 1797.45 112.564H1866.45C1873.02 112.564 1878.9 113.4 1884.1 115.072C1889.3 116.744 1893.86 118.957 1897.79 121.711C1901.81 124.465 1905.19 127.662 1907.94 131.301C1910.78 134.94 1913.09 138.776 1914.85 142.809C1916.62 146.743 1917.89 150.726 1918.68 154.759C1919.56 158.792 1920 162.628 1920 166.267V218.199Z" fill="white"/>
<path d="M163.212 57.2191C151.64 51.4508 138.942 47.6137 125.54 46.1283V317.489C138.942 316.004 151.64 312.167 163.212 306.398V57.2191Z" fill="url(#paint0_linear_755_5)"/>
<path d="M188.315 243.2C211.433 222.452 225.987 192.302 225.987 158.744C225.987 125.186 211.433 95.0359 188.315 74.2887V243.2Z" fill="url(#paint1_linear_755_5)"/>
<path d="M62.7649 11.0944C74.3372 5.32487 87.0347 1.48655 100.438 0V271.359C87.0347 269.872 74.3372 266.034 62.7649 260.265V11.0944Z" fill="url(#paint2_linear_755_5)"/>
<path d="M37.6627 74.2969C14.5494 95.0439 0 125.191 0 158.744C0 192.297 14.5494 222.444 37.6627 243.191V74.2969Z" fill="url(#paint3_linear_755_5)"/>
<defs>
<linearGradient id="paint0_linear_755_5" x1="112.993" y1="45.4349" x2="112.993" y2="272.049" gradientUnits="userSpaceOnUse">
<stop stop-color="#FFB800"/>
<stop offset="1" stop-color="#FFF500"/>
</linearGradient>
<linearGradient id="paint1_linear_755_5" x1="112.993" y1="45.4349" x2="112.993" y2="272.049" gradientUnits="userSpaceOnUse">
<stop stop-color="#FFB800"/>
<stop offset="1" stop-color="#FFF500"/>
</linearGradient>
<linearGradient id="paint2_linear_755_5" x1="112.993" y1="45.4349" x2="112.993" y2="272.049" gradientUnits="userSpaceOnUse">
<stop stop-color="#FFB800"/>
<stop offset="1" stop-color="#FFF500"/>
</linearGradient>
<linearGradient id="paint3_linear_755_5" x1="112.993" y1="45.4349" x2="112.993" y2="272.049" gradientUnits="userSpaceOnUse">
<stop stop-color="#FFB800"/>
<stop offset="1" stop-color="#FFF500"/>
</linearGradient>
</defs>
</svg>
