<svg width="24" height="23" viewBox="0 0 24 23" fill="none" xmlns="http://www.w3.org/2000/svg">
<g clip-path="url(#clip0_663_11855)">
<path d="M19.8236 4.80359L20.1702 4.4432L19.8236 4.80359ZM2.09665 4.80359L1.75007 4.4432H1.75007L2.09665 4.80359ZM20.9203 7.77586L20.4218 7.81737L20.4233 7.83058L20.9203 7.77586ZM1 7.77586L0.501724 7.73437L0.5 7.75508V7.77586H1ZM5.1873 3.74894L5.22569 4.24746L5.6873 4.21191V3.74894H5.1873ZM6.69326 3.68487H6.19326V4.19428L6.70258 4.18478L6.69326 3.68487ZM16.733 3.74894H16.233V4.21191L16.6946 4.24746L16.733 3.74894ZM15.227 3.68487L15.2177 4.18478L15.727 4.19428V3.68487H15.227ZM21 8.5V9H21.5581L21.497 8.44528L21 8.5ZM1 8.5H0.5V9H1V8.5ZM7.19326 2.22414C7.19326 1.52984 6.6137 1 5.94028 1V2C6.09858 2 6.19326 2.11857 6.19326 2.22414H7.19326ZM5.94028 1C5.26687 1 4.6873 1.52984 4.6873 2.22414H5.6873C5.6873 2.11857 5.78198 2 5.94028 2V1ZM17.233 2.22414C17.233 1.52984 16.6534 1 15.98 1V2C16.1383 2 16.233 2.11857 16.233 2.22414H17.233ZM15.98 1C15.3066 1 14.727 1.52984 14.727 2.22414H15.727C15.727 2.11857 15.8217 2 15.98 2V1ZM8.95219 4.17241H12.9681V3.17241H8.95219V4.17241ZM21.4185 7.73437C21.2996 6.306 21.0002 5.24145 20.1702 4.4432L19.477 5.16398C20.0409 5.70625 20.3095 6.46632 20.422 7.81735L21.4185 7.73437ZM1.75007 4.4432C0.920031 5.24145 0.620658 6.306 0.501724 7.73437L1.49828 7.81735C1.61077 6.46632 1.87936 5.70625 2.44324 5.16398L1.75007 4.4432ZM5.14891 3.25041C3.67197 3.36415 2.57586 3.64904 1.75007 4.4432L2.44324 5.16398C3.01136 4.61761 3.81254 4.35629 5.22569 4.24746L5.14891 3.25041ZM4.6873 2.22414V3.74894H5.6873V2.22414H4.6873ZM8.95219 3.17241C8.11114 3.17241 7.35745 3.1724 6.68394 3.18496L6.70258 4.18478C7.36489 4.17243 8.10852 4.17241 8.95219 4.17241V3.17241ZM7.19326 3.68487V2.22414H6.19326V3.68487H7.19326ZM16.6946 4.24746C18.1077 4.35629 18.9089 4.61761 19.477 5.16398L20.1702 4.4432C19.3444 3.64904 18.2483 3.36415 16.7714 3.25041L16.6946 4.24746ZM17.233 3.74894V2.22414H16.233V3.74894H17.233ZM12.9681 4.17241C13.8118 4.17241 14.5554 4.17243 15.2177 4.18478L15.2363 3.18496C14.5628 3.1724 13.8091 3.17241 12.9681 3.17241V4.17241ZM14.727 2.22414V3.68487H15.727V2.22414H14.727ZM20.4233 7.83058L20.503 8.55472L21.497 8.44528L21.4173 7.72114L20.4233 7.83058ZM1.5 8.5V7.77586H0.5V8.5H1.5ZM21 8H1.92456V9H21V8ZM1.92456 8H1V9H1.92456V8Z" fill="#4B3AFF"/>
<path opacity="0.5" d="M2.17208 20.3285L2.52563 19.975L2.52563 19.975L2.17208 20.3285ZM19.8289 20.3285L19.4754 19.975L19.8289 20.3285ZM1.01014 8.5V8H0.519746L0.510238 8.4903L1.01014 8.5ZM20.9843 8.5L21.4842 8.49031L21.4747 8H20.9843V8.5ZM20.5005 11.5001V13.5001H21.5005V11.5001H20.5005ZM13.0005 21.0001H9.0005V22.0001H13.0005V21.0001ZM1.5005 13.5001V11.5001H0.500502V13.5001H1.5005ZM9.0005 21.0001C7.10075 21.0001 5.72623 20.999 4.67804 20.8581C3.64423 20.7191 3.00303 20.4524 2.52563 19.975L1.81852 20.6821C2.51269 21.3762 3.40009 21.6953 4.54479 21.8492C5.67511 22.0011 7.12902 22.0001 9.0005 22.0001V21.0001ZM0.500502 13.5001C0.500502 15.3716 0.49944 16.8255 0.651407 17.9558C0.805308 19.1005 1.12435 19.9879 1.81852 20.6821L2.52563 19.975C2.04823 19.4976 1.78148 18.8564 1.64249 17.8225C1.50156 16.7744 1.5005 15.3998 1.5005 13.5001H0.500502ZM20.5005 13.5001C20.5005 15.3998 20.4994 16.7744 20.3585 17.8225C20.2195 18.8564 19.9528 19.4976 19.4754 19.975L20.1825 20.6821C20.8767 19.9879 21.1957 19.1005 21.3496 17.9558C21.5016 16.8255 21.5005 15.3716 21.5005 13.5001H20.5005ZM13.0005 22.0001C14.872 22.0001 16.3259 22.0011 17.4562 21.8492C18.6009 21.6953 19.4883 21.3762 20.1825 20.6821L19.4754 19.975C18.998 20.4524 18.3568 20.7191 17.323 20.8581C16.2748 20.999 14.9003 21.0001 13.0005 21.0001V22.0001ZM0.510238 8.4903C0.497212 9.16196 0.500502 10.6657 0.500502 11.5001H1.5005C1.5005 10.6564 1.49727 9.16857 1.51005 8.5097L0.510238 8.4903ZM21.5005 11.5001C21.5005 10.6624 21.4973 9.16139 21.4842 8.49031L20.4844 8.50969C20.4972 9.16914 20.5005 10.6597 20.5005 11.5001H21.5005ZM1.01014 9H20.9843V8H1.01014V9Z" fill="#4B3AFF"/>
<path d="M17 16.5C17 17.0523 16.5523 17.5 16 17.5C15.4477 17.5 15 17.0523 15 16.5C15 15.9477 15.4477 15.5 16 15.5C16.5523 15.5 17 15.9477 17 16.5Z" fill="#4B3AFF"/>
<path d="M17 12.5C17 13.0523 16.5523 13.5 16 13.5C15.4477 13.5 15 13.0523 15 12.5C15 11.9477 15.4477 11.5 16 11.5C16.5523 11.5 17 11.9477 17 12.5Z" fill="#4B3AFF"/>
<path d="M12 16.5C12 17.0523 11.5523 17.5 11 17.5C10.4477 17.5 10 17.0523 10 16.5C10 15.9477 10.4477 15.5 11 15.5C11.5523 15.5 12 15.9477 12 16.5Z" fill="#4B3AFF"/>
<path d="M12 12.5C12 13.0523 11.5523 13.5 11 13.5C10.4477 13.5 10 13.0523 10 12.5C10 11.9477 10.4477 11.5 11 11.5C11.5523 11.5 12 11.9477 12 12.5Z" fill="#4B3AFF"/>
<path d="M7 16.5C7 17.0523 6.55228 17.5 6 17.5C5.44772 17.5 5 17.0523 5 16.5C5 15.9477 5.44772 15.5 6 15.5C6.55228 15.5 7 15.9477 7 16.5Z" fill="#4B3AFF"/>
<path d="M7 12.5C7 13.0523 6.55228 13.5 6 13.5C5.44772 13.5 5 13.0523 5 12.5C5 11.9477 5.44772 11.5 6 11.5C6.55228 11.5 7 11.9477 7 12.5Z" fill="#4B3AFF"/>
</g>
<defs>
<clipPath id="clip0_663_11855">
<rect width="23" height="22" fill="white" transform="translate(0.0996094 0.438477)"/>
</clipPath>
</defs>
</svg>
