<svg width="18" height="18" viewBox="0 0 18 18" fill="none" xmlns="http://www.w3.org/2000/svg">
<path d="M9 0C4.03732 0 0 4.03732 0 9C0 13.9627 4.03732 18 9 18C13.9627 18 18 13.9627 18 9C18 4.03732 13.9627 0 9 0ZM9 16.0328C5.12202 16.0328 1.96721 12.878 1.96721 9C1.96721 5.12221 5.12202 1.96721 9 1.96721C12.878 1.96721 16.0328 5.12221 16.0328 9C16.0328 12.878 12.878 16.0328 9 16.0328Z" fill="#0094FF"/>
<path d="M9.77897 9.0109V5.23881C9.77897 4.81762 9.43766 4.47632 9.01664 4.47632C8.59549 4.47632 8.25415 4.81762 8.25415 5.23881V9.25449C8.25415 9.26648 8.25711 9.27773 8.25769 9.28972C8.24766 9.49705 8.31908 9.70756 8.47742 9.86594L11.3171 12.7054C11.615 13.0033 12.0977 13.0033 12.3953 12.7054C12.693 12.4076 12.6932 11.9248 12.3953 11.6272L9.77897 9.0109Z" fill="#0094FF"/>
</svg>
