<svg width="14" height="14" viewBox="0 0 14 14" fill="none" xmlns="http://www.w3.org/2000/svg">
<path d="M9.71641 10.4001V11.4001C9.71641 12.5029 8.81924 13.4001 7.71641 13.4001H2.69141C1.58857 13.4001 0.691406 12.5029 0.691406 11.4001V2.6001C0.691406 1.49727 1.58857 0.600098 2.69141 0.600098H7.71641C8.81924 0.600098 9.71641 1.49727 9.71641 2.6001V3.6001C9.71641 3.87627 9.49258 4.1001 9.21641 4.1001C8.94023 4.1001 8.71641 3.87627 8.71641 3.6001V2.6001C8.71641 2.04873 8.26777 1.6001 7.71641 1.6001H2.69141C2.14004 1.6001 1.69141 2.04873 1.69141 2.6001V11.4001C1.69141 11.9515 2.14004 12.4001 2.69141 12.4001H7.71641C8.26777 12.4001 8.71641 11.9515 8.71641 11.4001V10.4001C8.71641 10.1239 8.94023 9.9001 9.21641 9.9001C9.49258 9.9001 9.71641 10.1239 9.71641 10.4001ZM13.1253 6.14121L12.0057 5.02158C11.8104 4.82627 11.4938 4.82627 11.2985 5.02158C11.1032 5.2168 11.1032 5.5334 11.2985 5.72861L12.0949 6.5251H6.09141C5.81523 6.5251 5.59141 6.74893 5.59141 7.0251C5.59141 7.30127 5.81523 7.5251 6.09141 7.5251H12.0949L11.2985 8.32158C11.1032 8.5168 11.1032 8.8334 11.2985 9.02861C11.3962 9.12627 11.5241 9.1751 11.6521 9.1751C11.7801 9.1751 11.908 9.12627 12.0057 9.02861L13.1253 7.90898C13.6127 7.42158 13.6127 6.62861 13.1253 6.14121Z" fill="#3A3F48" stroke="#3A3F48" stroke-width="0.4"/>
</svg>
