<svg width="10" height="20" viewBox="0 0 10 20" fill="none" xmlns="http://www.w3.org/2000/svg">
<g clip-path="url(#clip0_1064_3803)">
<g filter="url(#filter0_f_1064_3803)">
<path d="M-6.90713e-07 7.90083L5 13L10 7.89998L10 0L5 4L-9.53674e-07 -8.74228e-07L-6.90713e-07 7.90083Z" fill="#FFC4C4"/>
</g>
<path d="M-7.87536e-08 11.9008L5 17L10 11.9L9.41181 11.3001L9.11772 11.0002L5 15.0766L0.882068 11L-7.87536e-08 11.9008Z" fill="#DD5163"/>
<path d="M-7.87536e-08 7.90083L5 13L10 7.89999L9.41181 7.30014L9.11772 7.00021L5 11.0766L0.882068 7L-7.87536e-08 7.90083Z" fill="#DD5163"/>
</g>
<defs>
<filter id="filter0_f_1064_3803" x="-4" y="-4" width="18" height="21" filterUnits="userSpaceOnUse" color-interpolation-filters="sRGB">
<feFlood flood-opacity="0" result="BackgroundImageFix"/>
<feBlend mode="normal" in="SourceGraphic" in2="BackgroundImageFix" result="shape"/>
<feGaussianBlur stdDeviation="2" result="effect1_foregroundBlur_1064_3803"/>
</filter>
<clipPath id="clip0_1064_3803">
<rect width="10" height="20" fill="white" transform="matrix(-1 -8.74228e-08 -8.74228e-08 1 10 0)"/>
</clipPath>
</defs>
</svg>
