<svg width="10" height="20" viewBox="0 0 10 20" fill="none" xmlns="http://www.w3.org/2000/svg">
<g clip-path="url(#clip0_229_2559)">
<g filter="url(#filter0_f_229_2559)">
<path d="M-6.90713e-07 12.0992L5 7L10 12.1L10 20L5 16L-9.53674e-07 20L-6.90713e-07 12.0992Z" fill="#94E42E"/>
</g>
<path d="M-7.87536e-08 8.09917L5 3L10 8.10001L9.41181 8.69986L9.11772 8.99979L5 4.92343L0.882068 9L-7.87536e-08 8.09917Z" fill="#63B300"/>
<path d="M-7.87536e-08 12.0992L5 7L10 12.1L9.41181 12.6999L9.11772 12.9998L5 8.92343L0.882068 13L-7.87536e-08 12.0992Z" fill="#63B300"/>
</g>
<defs>
<filter id="filter0_f_229_2559" x="-4" y="3" width="18" height="21" filterUnits="userSpaceOnUse" color-interpolation-filters="sRGB">
<feFlood flood-opacity="0" result="BackgroundImageFix"/>
<feBlend mode="normal" in="SourceGraphic" in2="BackgroundImageFix" result="shape"/>
<feGaussianBlur stdDeviation="2" result="effect1_foregroundBlur_229_2559"/>
</filter>
<clipPath id="clip0_229_2559">
<rect width="10" height="20" fill="white" transform="translate(10 20) rotate(180)"/>
</clipPath>
</defs>
</svg>
