<svg width="20" height="20" viewBox="0 0 20 20" fill="none" xmlns="http://www.w3.org/2000/svg">
<path d="M15 18C15.5523 18 16.0064 17.5506 15.9388 17.0025C15.7552 15.5147 15.1643 14.1256 14.2426 13.0503C13.1174 11.7375 11.5913 11 10 11C8.4087 11 6.88258 11.7375 5.75736 13.0503C4.83565 14.1256 4.24479 15.5147 4.06121 17.0024C3.99358 17.5506 4.44772 18 5 18L10 18H15Z" fill="#9577FF"/>
<path fill-rule="evenodd" clip-rule="evenodd" d="M10 10C12.2091 10 14 8.20914 14 6C14 3.79086 12.2091 2 10 2C7.79086 2 6 3.79086 6 6C6 8.20914 7.79086 10 10 10ZM10 8C11.1046 8 12 7.10457 12 6C12 4.89543 11.1046 4 10 4C8.89543 4 8 4.89543 8 6C8 7.10457 8.89543 8 10 8Z" fill="#9577FF"/>
</svg>
