    <svg  viewBox="0 0 50 50" xmlns="http://www.w3.org/2000/svg"  fill="white">
      <path d="M24.2633 5.73355C24.6739 5.34198 25.3261 5.34198 25.7367 5.73355C29.8365 9.64271 34.9712 11.7519 40.2541 11.6934C40.733 11.6881 41.1642 12.0018 41.2678 12.4694C41.9737 15.6546 42.172 18.9682 41.8505 22.2426C41.502 25.7931 40.5495 29.225 39.0496 32.3345C37.5497 35.444 35.5331 38.1675 33.1196 40.3433C30.7856 42.4473 28.1266 43.9976 25.2908 44.909C25.1017 44.9697 24.8983 44.9697 24.7092 44.909C21.8734 43.9976 19.2144 42.4473 16.8804 40.3433C14.4669 38.1675 12.4503 35.444 10.9504 32.3345C9.45051 29.225 8.498 25.7931 8.14946 22.2426C7.82802 18.9682 8.02633 15.6546 8.73215 12.4694C8.83576 12.0018 9.26704 11.6881 9.74591 11.6934C15.0288 11.7519 20.1635 9.64271 24.2633 5.73355Z" 
      stroke="black" stroke-width="2" stroke-linecap="round" stroke-linejoin="round" />
      <path fill-rule="evenodd" clip-rule="evenodd" d="M25.7367 5.7335C25.3261 5.34193 24.6739 5.34193 24.2633 5.73349C20.1635 9.64266 15.0288 11.7518 9.74591 11.6933C9.26704 11.688 8.83576 12.0018 8.73215 12.4693C8.02633 15.6545 7.82802 18.9681 8.14946 22.2426C8.498 25.793 9.45051 29.225 10.9504 32.3345C12.4503 35.4439 14.4669 38.1675 16.8804 40.3432C19.2144 42.4472 21.8734 43.9975 24.7092 44.9089C24.8983 44.9697 25.1017 44.9697 25.2908 44.9089C28.1266 43.9975 30.7856 42.4472 33.1196 40.3432C35.5331 38.1675 37.5497 35.4439 39.0496 32.3345C40.5495 29.225 41.502 25.793 41.8505 22.2426C42.172 18.9681 41.9737 15.6545 41.2678 12.4693C41.1642 12.0018 40.733 11.688 40.2541 11.6933C34.9712 11.7518 29.8365 9.64266 25.7367 5.7335ZM20.9993 13.9085C21.921 13.436 22.9324 13.1217 23.9999 12.9999V35.2222C22.9324 35.1005 21.921 34.7862 20.9993 34.3137V13.9085ZM25.9993 16.7775C27.0669 16.8992 28.0782 17.2134 29 17.6858V38.0917C28.0782 38.5641 27.0669 38.8783 25.9993 38.9999V16.7775ZM34 25.9999C34 28.748 32.8408 31.2171 30.9994 32.9162V19.0836C32.8408 20.7827 34 23.2518 34 25.9999ZM16 25.9999C16 23.2521 17.1589 20.7833 18.9999 19.0843V32.9155C17.1589 31.2165 16 28.7477 16 25.9999Z" 
      fill="black" />
    </svg>