<svg width="17" height="17" viewBox="0 0 17 17" fill="none" xmlns="http://www.w3.org/2000/svg">
<g id="Frame">
<path id="Vector" d="M4.82812 2.54492V10.5449" stroke="#444444" stroke-linecap="round" stroke-linejoin="round"/>
<path id="Vector_2" d="M12.8281 6.54492C13.9327 6.54492 14.8281 5.64949 14.8281 4.54492C14.8281 3.44035 13.9327 2.54492 12.8281 2.54492C11.7236 2.54492 10.8281 3.44035 10.8281 4.54492C10.8281 5.64949 11.7236 6.54492 12.8281 6.54492Z" stroke="#444444" stroke-linecap="round" stroke-linejoin="round"/>
<path id="Vector_3" d="M4.82812 14.5449C5.93269 14.5449 6.82812 13.6495 6.82812 12.5449C6.82812 11.4404 5.93269 10.5449 4.82812 10.5449C3.72356 10.5449 2.82812 11.4404 2.82812 12.5449C2.82812 13.6495 3.72356 14.5449 4.82812 14.5449Z" stroke="#444444" stroke-linecap="round" stroke-linejoin="round"/>
<path id="Vector_4" d="M12.8281 6.54492C12.8281 8.13622 12.196 9.66234 11.0708 10.7876C9.94555 11.9128 8.41942 12.5449 6.82812 12.5449" stroke="#444444" stroke-linecap="round" stroke-linejoin="round"/>
</g>
</svg>
