<svg width="20" height="20" viewBox="0 0 20 20" fill="none" xmlns="http://www.w3.org/2000/svg">
<g id="Status Icon">
<path id="Vector" d="M9 10.7602C9.2517 11.1152 9.57282 11.409 9.94158 11.6215C10.3103 11.834 10.7181 11.9604 11.1373 11.9921C11.5564 12.0238 11.9771 11.96 12.3708 11.805C12.7645 11.6501 13.122 11.4076 13.4191 11.0941L15.1774 9.23922C15.7112 8.65615 16.0066 7.87523 15.9999 7.06465C15.9932 6.25406 15.685 5.47867 15.1417 4.90548C14.5984 4.33229 13.8634 4.00716 13.095 4.00012C12.3267 3.99307 11.5864 4.30468 11.0337 4.86782L10.0257 5.92512" stroke="#62666D" stroke-width="1.5" stroke-linecap="round" stroke-linejoin="round"/>
<path id="Vector_2" d="M11 9.23976C10.7483 8.88478 10.4272 8.59105 10.0584 8.3785C9.68965 8.16596 9.28187 8.03957 8.86273 8.0079C8.4436 7.97623 8.02291 8.04003 7.62919 8.19497C7.23548 8.3499 6.87796 8.59236 6.58088 8.90588L4.82261 10.7608C4.28881 11.3438 3.99343 12.1248 4.00011 12.9354C4.00679 13.7459 4.31498 14.5213 4.85831 15.0945C5.40164 15.6677 6.13663 15.9928 6.90499 15.9999C7.67334 16.0069 8.41358 15.6953 8.96627 15.1322L9.96848 14.0749" stroke="#62666D" stroke-width="1.5" stroke-linecap="round" stroke-linejoin="round"/>
</g>
</svg>
