<svg width="20" height="20" viewBox="0 0 20 20" fill="none" xmlns="http://www.w3.org/2000/svg">
<path d="M7.5 15H12.5" stroke="#9577FF" stroke-width="1.5" stroke-linecap="round" stroke-linejoin="round"/>
<path d="M8.33301 18.3334H11.6663" stroke="#9577FF" stroke-width="1.5" stroke-linecap="round" stroke-linejoin="round"/>
<path d="M12.575 11.6666C12.725 10.85 13.1167 10.2166 13.75 9.58329C14.1524 9.21288 14.4718 8.76148 14.6872 8.25878C14.9027 7.75608 15.0093 7.21347 15 6.66663C15 5.34054 14.4732 4.06877 13.5355 3.13109C12.5979 2.19341 11.3261 1.66663 10 1.66663C8.67392 1.66663 7.40215 2.19341 6.46447 3.13109C5.52678 4.06877 5 5.34054 5 6.66663C5 7.49996 5.19167 8.52496 6.25 9.58329C6.85338 10.135 7.265 10.8648 7.425 11.6666" stroke="#9577FF" stroke-width="1.5" stroke-linecap="round" stroke-linejoin="round"/>
</svg>
