<svg width="20" height="20" viewBox="0 0 20 20" fill="none" xmlns="http://www.w3.org/2000/svg">
<path d="M7.5 15H12.5" stroke="#94E42E" stroke-width="1.5" stroke-linecap="round" stroke-linejoin="round"/>
<path d="M8.33301 18.3333H11.6663" stroke="#94E42E" stroke-width="1.5" stroke-linecap="round" stroke-linejoin="round"/>
<path d="M12.575 11.6667C12.725 10.85 13.1167 10.2167 13.75 9.58332C14.1524 9.21291 14.4718 8.76151 14.6872 8.25881C14.9027 7.75611 15.0093 7.2135 15 6.66666C15 5.34057 14.4732 4.0688 13.5355 3.13112C12.5979 2.19344 11.3261 1.66666 10 1.66666C8.67392 1.66666 7.40215 2.19344 6.46447 3.13112C5.52678 4.0688 5 5.34057 5 6.66666C5 7.49999 5.19167 8.52499 6.25 9.58332C6.85338 10.135 7.265 10.8649 7.425 11.6667" stroke="#94E42E" stroke-width="1.5" stroke-linecap="round" stroke-linejoin="round"/>
</svg>
