<svg width="167" height="28" viewBox="0 0 167 28" fill="none" xmlns="http://www.w3.org/2000/svg">
<path d="M41.5387 18.9787C41.5387 19.2953 41.5003 19.6289 41.4236 19.9797C41.3553 20.3304 41.2444 20.6812 41.0908 21.0319C40.9373 21.3741 40.7368 21.7035 40.4894 22.02C40.2505 22.3366 39.9562 22.6189 39.6064 22.867C39.2651 23.1065 38.8684 23.299 38.4163 23.4444C37.9641 23.5899 37.4522 23.6626 36.8807 23.6626H30.8789C30.5632 23.6626 30.2305 23.6284 29.8807 23.5599C29.5309 23.4829 29.1812 23.3674 28.8314 23.2134C28.4901 23.0595 28.1617 22.8627 27.846 22.6232C27.5304 22.3751 27.2488 22.0799 27.0014 21.7377C26.7625 21.387 26.5706 20.9849 26.4256 20.5315C26.2805 20.0695 26.208 19.5519 26.208 18.9787V3.92627H29.5352V18.9787C29.5352 19.3894 29.6632 19.7187 29.9191 19.9668C30.1751 20.2064 30.495 20.3261 30.8789 20.3261H36.8807C37.2987 20.3261 37.6229 20.2021 37.8532 19.954C38.0921 19.7059 38.2115 19.3808 38.2115 18.9787V14.4617C38.2115 14.0425 38.0878 13.7174 37.8404 13.4864C37.593 13.2469 37.2731 13.1271 36.8807 13.1271H30.8789V9.7907H36.8807C37.1963 9.7907 37.529 9.8292 37.8788 9.90619C38.2286 9.97463 38.5741 10.0858 38.9154 10.2398C39.2651 10.3938 39.5979 10.5949 39.9135 10.843C40.2292 11.0825 40.5065 11.3776 40.7453 11.7284C40.9842 12.0706 41.1762 12.4684 41.3212 12.9218C41.4662 13.3752 41.5387 13.8885 41.5387 14.4617V18.9787Z" fill="black"/>
<path d="M50.4582 23.6626H48.9738C48.496 23.6626 47.9841 23.5813 47.4381 23.4188C46.9007 23.2562 46.3973 22.991 45.9281 22.6232C45.4589 22.2467 45.0707 21.7634 44.7636 21.1731C44.4564 20.5742 44.3029 19.8428 44.3029 18.9787V3.92627H47.6301V18.9787C47.6301 19.3894 47.758 19.7187 48.014 19.9668C48.2699 20.2064 48.5898 20.3261 48.9738 20.3261H50.4582V23.6626Z" fill="black"/>
<path d="M55.9737 6.9419H52.6465V3.92627H55.9737V6.9419ZM55.9737 23.6626H52.6465V9.7907H55.9737V23.6626Z" fill="black"/>
<path d="M74.5036 23.6626H71.1764V15.9631C71.1764 15.5268 71.0997 15.1376 70.9461 14.7954C70.8011 14.4446 70.6006 14.1452 70.3446 13.8971C70.0887 13.649 69.7858 13.4608 69.4361 13.3325C69.0948 13.1956 68.7237 13.1271 68.3227 13.1271H62.5001V23.6626H59.1729V11.4461C59.1729 11.2151 59.2156 11.0012 59.3009 10.8045C59.3862 10.5991 59.5056 10.4238 59.6592 10.2783C59.8128 10.1243 59.9919 10.0046 60.1967 9.91902C60.4014 9.83347 60.619 9.7907 60.8493 9.7907H68.3483C68.7663 9.7907 69.2057 9.83775 69.6664 9.93186C70.1356 10.026 70.5963 10.18 71.0485 10.3938C71.5092 10.5991 71.9443 10.8643 72.3538 11.1894C72.7718 11.506 73.1386 11.8952 73.4543 12.3572C73.7785 12.8106 74.0344 13.3367 74.2221 13.9356C74.4098 14.5344 74.5036 15.2103 74.5036 15.9631V23.6626Z" fill="black"/>
<path d="M93.6734 23.6626H88.8746L82.169 17.1694C81.7936 16.8272 81.6187 16.3994 81.6443 15.8861C81.6614 15.6466 81.7211 15.4241 81.8235 15.2188C81.9344 15.005 82.0837 14.8253 82.2714 14.6799L88.3499 9.76504H93.6734L85.8417 16.0914L93.6734 23.6626ZM80.7997 23.6626H77.4725V3.92627H80.7997V23.6626Z" fill="black"/>
<path d="M108.915 18.9787C108.915 19.5519 108.842 20.0695 108.697 20.5315C108.552 20.9849 108.36 21.387 108.121 21.7377C107.882 22.0799 107.605 22.3751 107.289 22.6232C106.974 22.8627 106.641 23.0595 106.291 23.2134C105.95 23.3674 105.6 23.4829 105.242 23.5599C104.892 23.6284 104.559 23.6626 104.244 23.6626H95.2347V20.3261H104.218C104.67 20.3261 105.012 20.2107 105.242 19.9797C105.472 19.7487 105.587 19.415 105.587 18.9787C105.545 18.089 105.097 17.6442 104.244 17.6442H99.0866C98.3529 17.6442 97.7301 17.5158 97.2182 17.2592C96.7063 17.0025 96.2883 16.6817 95.9641 16.2968C95.6484 15.9118 95.4181 15.4969 95.2731 15.052C95.1366 14.6071 95.0683 14.1922 95.0683 13.8073C95.0683 13.063 95.2006 12.4385 95.465 11.9337C95.7295 11.4204 96.0622 11.0055 96.4632 10.689C96.8642 10.3724 97.2992 10.1457 97.7685 10.0089C98.2377 9.86342 98.6771 9.7907 99.0866 9.7907H107.264V13.1271H99.1121C98.9415 13.1271 98.805 13.1485 98.7026 13.1913C98.6088 13.2255 98.5363 13.2768 98.4851 13.3453C98.4424 13.4052 98.4168 13.4736 98.4083 13.5506C98.3998 13.619 98.3955 13.6875 98.3955 13.7559C98.4041 13.8928 98.4296 13.9997 98.4723 14.0767C98.515 14.1537 98.5661 14.2093 98.6259 14.2436C98.6941 14.2778 98.7666 14.2992 98.8434 14.3077C98.9287 14.3077 99.0098 14.3077 99.0866 14.3077H104.244C105.097 14.3077 105.822 14.4617 106.419 14.7697C107.016 15.0777 107.498 15.4669 107.865 15.9374C108.232 16.3994 108.497 16.9042 108.659 17.4517C108.829 17.9992 108.915 18.5082 108.915 18.9787Z" fill="black"/>
<path d="M134.035 9.7907C133.506 10.9798 132.934 12.1519 132.32 13.3068C131.706 14.4532 131.062 15.5396 130.388 16.5662C129.722 17.5928 129.04 18.5424 128.34 19.415C127.641 20.2791 126.945 21.0277 126.254 21.6607C125.572 22.2852 124.902 22.7771 124.245 23.1365C123.597 23.4872 122.983 23.6626 122.403 23.6626C122.164 23.6626 121.942 23.6198 121.737 23.5343C121.532 23.4487 121.353 23.3332 121.2 23.1878C121.046 23.0338 120.927 22.8541 120.841 22.6488C120.756 22.4435 120.713 22.2211 120.713 21.9815V15.7578L114.11 23.1621C113.94 23.3332 113.752 23.4615 113.547 23.5471C113.351 23.6241 113.146 23.6626 112.933 23.6626C112.702 23.6626 112.485 23.6198 112.28 23.5343C112.084 23.4487 111.909 23.3332 111.756 23.1878C111.602 23.0338 111.478 22.8541 111.384 22.6488C111.299 22.4435 111.256 22.2211 111.256 21.9815V9.7907H114.584V17.6955L121.212 10.2655C121.451 10.026 121.733 9.87625 122.057 9.81637C122.39 9.74793 122.714 9.78215 123.03 9.91902C123.345 10.0473 123.593 10.2527 123.772 10.535C123.96 10.8087 124.053 11.1124 124.053 11.4461V19.3765C124.77 18.6836 125.418 17.9521 125.999 17.1822C126.579 16.4122 127.116 15.6209 127.611 14.8082C128.114 13.9869 128.583 13.1571 129.019 12.3187C129.462 11.4718 129.893 10.6291 130.311 9.7907H134.035Z" fill="black"/>
<path d="M148.905 19.0686C148.905 19.5305 148.824 20.031 148.662 20.57C148.5 21.1004 148.235 21.5966 147.868 22.0585C147.51 22.5119 147.037 22.8926 146.448 23.2006C145.868 23.5086 145.16 23.6626 144.324 23.6626H138.322C137.861 23.6626 137.362 23.5813 136.825 23.4188C136.296 23.2562 135.801 22.9953 135.34 22.636C134.888 22.2681 134.508 21.7933 134.201 21.2116C133.894 20.6213 133.741 19.9069 133.741 19.0686C133.741 18.6066 133.822 18.1061 133.984 17.5672C134.146 17.0282 134.406 16.532 134.764 16.0786C135.131 15.6166 135.605 15.2317 136.185 14.9237C136.774 14.6157 137.486 14.4617 138.322 14.4617H144.324V17.6442H138.322C137.87 17.6442 137.52 17.7853 137.273 18.0676C137.025 18.3414 136.901 18.6836 136.901 19.0942C136.901 19.5305 137.042 19.8727 137.324 20.1208C137.614 20.3604 137.955 20.4801 138.348 20.4801H144.324C144.776 20.4801 145.126 20.3433 145.373 20.0695C145.62 19.7957 145.744 19.4535 145.744 19.0429V14.3847C145.744 13.9484 145.608 13.6019 145.335 13.3453C145.07 13.0886 144.733 12.9603 144.324 12.9603H137.017V9.7907H144.324C144.784 9.7907 145.279 9.87197 145.808 10.0345C146.346 10.1971 146.84 10.4623 147.293 10.8301C147.753 11.1894 148.137 11.6642 148.444 12.2545C148.751 12.8363 148.905 13.5463 148.905 14.3847V19.0686Z" fill="black"/>
<path d="M167 18.9787C167 19.5519 166.927 20.0695 166.782 20.5315C166.637 20.9849 166.445 21.387 166.206 21.7377C165.968 22.0799 165.69 22.3751 165.375 22.6232C165.059 22.8627 164.726 23.0595 164.377 23.2134C164.035 23.3674 163.69 23.4829 163.34 23.5599C162.99 23.6284 162.657 23.6626 162.342 23.6626H156.34V20.3261H162.342C162.785 20.3261 163.118 20.2107 163.34 19.9797C163.562 19.7487 163.673 19.415 163.673 18.9787V14.4874C163.673 14.0254 163.558 13.6832 163.327 13.4608C163.105 13.2384 162.777 13.1271 162.342 13.1271H156.366C155.913 13.1271 155.572 13.2426 155.342 13.4736C155.112 13.696 154.996 14.0254 154.996 14.4617V27.9999H151.669V14.4617C151.669 13.8885 151.742 13.3752 151.887 12.9218C152.032 12.4684 152.224 12.0706 152.463 11.7284C152.71 11.3776 152.992 11.0825 153.307 10.843C153.623 10.5949 153.951 10.3938 154.293 10.2398C154.642 10.0858 154.992 9.97463 155.342 9.90619C155.7 9.8292 156.033 9.7907 156.34 9.7907H162.342C162.913 9.7907 163.425 9.86342 163.877 10.0089C164.33 10.1543 164.726 10.3468 165.068 10.5863C165.417 10.8259 165.712 11.1039 165.951 11.4204C166.198 11.737 166.398 12.0706 166.552 12.4214C166.706 12.7636 166.816 13.11 166.885 13.4608C166.961 13.8115 167 14.1452 167 14.4617V18.9787Z" fill="black"/>
<path d="M14.1961 4.97686C13.1895 4.47514 12.0851 4.14139 10.9193 4.01219V27.6149C12.0851 27.4857 13.1895 27.152 14.1961 26.6502V4.97686Z" fill="black"/>
<path d="M16.3794 21.1533C18.3903 19.3487 19.6561 16.7262 19.6561 13.8074C19.6561 10.8886 18.3903 8.26613 16.3794 6.46156V21.1533Z" fill="black"/>
<path d="M5.45923 0.964982C6.46578 0.463153 7.5702 0.129299 8.73596 0V23.6025C7.5702 23.4733 6.46578 23.1394 5.45923 22.6376V0.964982Z" fill="black"/>
<path d="M3.27586 6.46227C1.26549 8.26683 0 10.889 0 13.8074C0 16.7259 1.26549 19.348 3.27586 21.1526V6.46227Z" fill="black"/>
</svg>
