<svg width="89" height="53" viewBox="0 0 89 53" fill="none" xmlns="http://www.w3.org/2000/svg">
<path d="M33.9728 14.8201L36.5693 0H41.6693L39.1873 14.212L39.0801 14.8201H33.9728Z" fill="white"/>
<path d="M30.851 14.8201C30.8351 13.8955 30.6894 13.0128 30.4137 12.172C29.983 10.7667 29.1897 9.61067 28.0337 8.704C26.9004 7.79733 25.5064 7.344 23.8517 7.344C21.9024 7.344 20.225 7.97867 18.8197 9.248L20.2817 1.02H15.1817L12.7568 14.8201H18.0508C18.3335 14.2274 18.7258 13.7187 19.2277 13.294C20.1344 12.546 21.177 12.172 22.3557 12.172C23.5117 12.172 24.3957 12.546 25.0077 13.294C25.3714 13.7096 25.5937 14.2183 25.6745 14.8201H30.851Z" fill="white"/>
<path d="M56.7726 14.8201H51.6406L52.8726 7.82H57.9726L57.7006 9.418C58.9472 8.03533 60.6132 7.344 62.6986 7.344C64.5346 7.344 65.9739 7.97867 67.0166 9.248C68.0819 10.4947 68.4219 12.206 68.0366 14.382L67.9595 14.8201H62.8457C62.9485 13.9333 62.7861 13.2659 62.3586 12.818C61.9052 12.2967 61.2366 12.036 60.3526 12.036C59.4459 12.036 58.6526 12.308 57.9726 12.852C57.421 13.3085 57.021 13.9645 56.7726 14.8201Z" fill="white"/>
<path d="M82.2172 14.8201H76.47L82.5232 7.82H88.4052L82.2172 14.8201Z" fill="white"/>
<path d="M76.4439 14.8201L78.8852 1.02H73.7852L71.3604 14.8201H76.4439Z" fill="white"/>
<path d="M47.9085 14.8201H42.8085L44.0405 7.82H49.1405L47.9085 14.8201Z" fill="white"/>
<path d="M46.8965 6.324C47.7579 6.324 48.5285 6.02933 49.2085 5.44C49.9112 4.828 50.3305 4.10267 50.4665 3.264C50.6025 2.42533 50.4099 1.71133 49.8885 1.122C49.3899 0.51 48.7212 0.204 47.8825 0.204C47.0439 0.204 46.2732 0.51 45.5705 1.122C44.8905 1.734 44.4825 2.448 44.3465 3.264C44.2105 4.10267 44.3805 4.828 44.8565 5.44C45.3552 6.02933 46.0352 6.324 46.8965 6.324Z" fill="white"/>
<path d="M23.159 17.8201H28.4826C28.0003 19.6896 27.0707 21.3316 25.694 22.746C24.0393 24.446 21.9653 25.296 19.472 25.296C17.1373 25.296 15.46 24.4913 14.44 22.882L14.1 24.82H9L10.23 17.8201H15.5665C15.6565 18.4127 15.8817 18.9214 16.242 19.346C16.8767 20.094 17.7833 20.468 18.962 20.468C20.118 20.468 21.1267 20.1053 21.988 19.38C22.4832 18.9499 22.8735 18.43 23.159 17.8201Z" fill="white"/>
<path d="M23.159 17.8201H28.4826C28.0003 19.6896 27.0707 21.3316 25.694 22.746C24.0393 24.446 21.9653 25.296 19.472 25.296C17.1373 25.296 15.46 24.4913 14.44 22.882L14.1 24.82H9L10.23 17.8201H15.5665C15.6565 18.4127 15.8817 18.9214 16.242 19.346C16.8767 20.094 17.7833 20.468 18.962 20.468C20.118 20.468 21.1267 20.1053 21.988 19.38C22.4832 18.9499 22.8735 18.43 23.159 17.8201Z" fill="url(#paint0_linear_744_97)"/>
<path d="M31.4464 17.8201H36.5516L35.3176 24.82H30.2176L31.4464 17.8201Z" fill="white"/>
<path d="M31.4464 17.8201H36.5516L35.3176 24.82H30.2176L31.4464 17.8201Z" fill="url(#paint1_linear_744_97)"/>
<path d="M39.0488 24.82L40.2808 17.8201H45.3808L44.1488 24.82H39.0488Z" fill="white"/>
<path d="M39.0488 24.82L40.2808 17.8201H45.3808L44.1488 24.82H39.0488Z" fill="url(#paint2_linear_744_97)"/>
<path d="M49.1128 17.8201L47.8809 24.82H52.9809L54.2102 17.8201H49.1128Z" fill="white"/>
<path d="M49.1128 17.8201L47.8809 24.82H52.9809L54.2102 17.8201H49.1128Z" fill="url(#paint3_linear_744_97)"/>
<path d="M59.1009 24.82L60.3289 17.8201H65.4321L64.2009 24.82H59.1009Z" fill="white"/>
<path d="M59.1009 24.82L60.3289 17.8201H65.4321L64.2009 24.82H59.1009Z" fill="url(#paint4_linear_744_97)"/>
<path d="M68.8335 17.8201L67.6035 24.82H72.7035L73.9316 17.8201H68.8335Z" fill="white"/>
<path d="M68.8335 17.8201L67.6035 24.82H72.7035L73.9316 17.8201H68.8335Z" fill="url(#paint5_linear_744_97)"/>
<path d="M78.1435 24.82L74.4593 17.8201H79.7196L83.5835 24.82H78.1435Z" fill="white"/>
<path d="M78.1435 24.82L74.4593 17.8201H79.7196L83.5835 24.82H78.1435Z" fill="url(#paint6_linear_744_97)"/>
<path d="M4.11285 35.2961H12.9426C12.6065 35.193 12.2684 35.1036 11.9283 35.0281C11.1123 34.8241 10.4209 34.5974 9.85427 34.3481C9.31027 34.0987 9.0836 33.7474 9.17427 33.2941C9.31027 32.5914 9.88827 32.2401 10.9083 32.2401C11.9736 32.2401 12.7103 32.7387 13.1183 33.7361L17.7083 31.4581C17.1643 30.3247 16.3143 29.4407 15.1583 28.8061C14.0249 28.1487 12.7103 27.8201 11.2143 27.8201C10.1489 27.8201 9.12894 27.9901 8.15427 28.3301C7.1796 28.6701 6.30694 29.2367 5.53627 30.0301C4.7656 30.8234 4.27827 31.7981 4.07427 32.9541C3.91124 33.8344 3.9241 34.6151 4.11285 35.2961Z" fill="white"/>
<path d="M4.11285 35.2961H12.9426C12.6065 35.193 12.2684 35.1036 11.9283 35.0281C11.1123 34.8241 10.4209 34.5974 9.85427 34.3481C9.31027 34.0987 9.0836 33.7474 9.17427 33.2941C9.31027 32.5914 9.88827 32.2401 10.9083 32.2401C11.9736 32.2401 12.7103 32.7387 13.1183 33.7361L17.7083 31.4581C17.1643 30.3247 16.3143 29.4407 15.1583 28.8061C14.0249 28.1487 12.7103 27.8201 11.2143 27.8201C10.1489 27.8201 9.12894 27.9901 8.15427 28.3301C7.1796 28.6701 6.30694 29.2367 5.53627 30.0301C4.7656 30.8234 4.27827 31.7981 4.07427 32.9541C3.91124 33.8344 3.9241 34.6151 4.11285 35.2961Z" fill="url(#paint7_linear_744_97)"/>
<path d="M44.087 35.2961H49.4043C49.6888 34.7034 50.0755 34.1947 50.5645 33.7701C51.4485 33.0221 52.4798 32.6481 53.6585 32.6481C54.8372 32.6481 55.7325 33.0221 56.3445 33.7701C56.7048 34.1947 56.9264 34.7034 57.009 35.2961H62.3205L63.5525 28.2961H58.4525L58.1465 30.0981C57.1038 28.5794 55.5172 27.8201 53.3865 27.8201C50.8705 27.8201 48.7512 28.6701 47.0285 30.3701C45.5996 31.7799 44.6191 33.4219 44.087 35.2961Z" fill="white"/>
<path d="M44.087 35.2961H49.4043C49.6888 34.7034 50.0755 34.1947 50.5645 33.7701C51.4485 33.0221 52.4798 32.6481 53.6585 32.6481C54.8372 32.6481 55.7325 33.0221 56.3445 33.7701C56.7048 34.1947 56.9264 34.7034 57.009 35.2961H62.3205L63.5525 28.2961H58.4525L58.1465 30.0981C57.1038 28.5794 55.5172 27.8201 53.3865 27.8201C50.8705 27.8201 48.7512 28.6701 47.0285 30.3701C45.5996 31.7799 44.6191 33.4219 44.087 35.2961Z" fill="url(#paint8_linear_744_97)"/>
<path d="M71.3849 35.2961H66.0641L67.2941 28.2961H72.3941L72.1561 29.7241C73.5387 28.4547 75.2274 27.8201 77.2221 27.8201C79.6474 27.8201 81.4834 28.7607 82.7301 30.6421C83.6571 32.0242 84.133 33.5756 84.1576 35.2961H78.981C78.9038 34.7034 78.6916 34.1947 78.3441 33.7701C77.7548 33.0221 76.8708 32.6481 75.6921 32.6481C74.5361 32.6481 73.5161 33.0107 72.6321 33.7361C72.1024 34.1707 71.6867 34.6907 71.3849 35.2961Z" fill="white"/>
<path d="M71.3849 35.2961H66.0641L67.2941 28.2961H72.3941L72.1561 29.7241C73.5387 28.4547 75.2274 27.8201 77.2221 27.8201C79.6474 27.8201 81.4834 28.7607 82.7301 30.6421C83.6571 32.0242 84.133 33.5756 84.1576 35.2961H78.981C78.9038 34.7034 78.6916 34.1947 78.3441 33.7701C77.7548 33.0221 76.8708 32.6481 75.6921 32.6481C74.5361 32.6481 73.5161 33.0107 72.6321 33.7361C72.1024 34.1707 71.6867 34.6907 71.3849 35.2961Z" fill="url(#paint9_linear_744_97)"/>
<path d="M35.8892 35.2961H41.0832L44.5553 28.2961H38.9453L35.8892 35.2961Z" fill="white"/>
<path d="M35.8892 35.2961H41.0832L44.5553 28.2961H38.9453L35.8892 35.2961Z" fill="url(#paint10_linear_744_97)"/>
<path d="M34.7072 35.2961L33.8453 28.2961H28.9153L25.807 35.2961H34.7072Z" fill="white"/>
<path d="M34.7072 35.2961L33.8453 28.2961H28.9153L25.807 35.2961H34.7072Z" fill="url(#paint11_linear_744_97)"/>
<path d="M19.7233 35.2961H24.625L23.8153 28.2961H18.7153L19.7233 35.2961Z" fill="white"/>
<path d="M19.7233 35.2961H24.625L23.8153 28.2961H18.7153L19.7233 35.2961Z" fill="url(#paint12_linear_744_97)"/>
<path d="M5.41331 38.2961C5.82721 38.4488 6.2441 38.5834 6.664 38.7001C7.48 38.9267 8.17133 39.1647 8.738 39.4141C9.30466 39.6634 9.554 39.9694 9.486 40.3321C9.39533 40.9214 8.772 41.2161 7.616 41.2161C6.09733 41.2161 5.08866 40.5701 4.59 39.2781L0 41.5901C1.26933 44.3781 3.66066 45.7721 7.174 45.7721C9.10066 45.7721 10.7327 45.3641 12.07 44.5481C13.4073 43.7094 14.2347 42.4287 14.552 40.7061C14.7144 39.7807 14.7023 38.9774 14.5158 38.2961H5.41331Z" fill="white"/>
<path d="M18.155 38.2961L19.163 45.2961H24.263L27.377 38.2961H18.155Z" fill="white"/>
<path d="M28.4847 38.2961L29.363 45.2961H34.123L37.595 38.2961H28.4847Z" fill="white"/>
<path d="M41.628 38.2961C41.6011 40.0003 42.0205 41.5516 42.8862 42.9501C44.0649 44.8314 45.9576 45.7721 48.5642 45.7721C50.6722 45.7721 52.3722 45.2281 53.6642 44.1401L53.4602 45.2961H58.5602L59.7922 38.2961H54.4834C54.1929 38.8861 53.7952 39.3948 53.2902 39.8221C52.4062 40.5701 51.3749 40.9441 50.1962 40.9441C49.0176 40.9441 48.1222 40.5701 47.5102 39.8221C47.1628 39.3974 46.9505 38.8888 46.8734 38.2961H41.628Z" fill="white"/>
<path d="M63.5367 38.2961L61.1118 52.0961H66.2118L67.7418 43.3581C68.8072 44.9674 70.4732 45.7721 72.7398 45.7721C75.2558 45.7721 77.3412 44.9107 78.9958 43.1881C80.3864 41.7599 81.3174 40.1293 81.7888 38.2961H76.4499C76.1655 38.8888 75.7788 39.3974 75.2898 39.8221C74.4285 40.5701 73.4085 40.9441 72.2298 40.9441C71.0512 40.9441 70.1558 40.5814 69.5438 39.8561C69.1796 39.4244 68.9519 38.9044 68.8606 38.2961H63.5367Z" fill="white"/>
<defs>
<linearGradient id="paint0_linear_744_97" x1="3.96094" y1="34.5681" x2="43.4253" y2="-11.5562" gradientUnits="userSpaceOnUse">
<stop stop-color="#FF4B33"/>
<stop offset="1" stop-color="#FFE81D"/>
</linearGradient>
<linearGradient id="paint1_linear_744_97" x1="3.96094" y1="34.5681" x2="43.4253" y2="-11.5562" gradientUnits="userSpaceOnUse">
<stop stop-color="#FF4B33"/>
<stop offset="1" stop-color="#FFE81D"/>
</linearGradient>
<linearGradient id="paint2_linear_744_97" x1="3.96094" y1="34.5681" x2="43.4253" y2="-11.5562" gradientUnits="userSpaceOnUse">
<stop stop-color="#FF4B33"/>
<stop offset="1" stop-color="#FFE81D"/>
</linearGradient>
<linearGradient id="paint3_linear_744_97" x1="3.96094" y1="34.5681" x2="43.4253" y2="-11.5562" gradientUnits="userSpaceOnUse">
<stop stop-color="#FF4B33"/>
<stop offset="1" stop-color="#FFE81D"/>
</linearGradient>
<linearGradient id="paint4_linear_744_97" x1="3.96094" y1="34.5681" x2="43.4253" y2="-11.5562" gradientUnits="userSpaceOnUse">
<stop stop-color="#FF4B33"/>
<stop offset="1" stop-color="#FFE81D"/>
</linearGradient>
<linearGradient id="paint5_linear_744_97" x1="3.96094" y1="34.5681" x2="43.4253" y2="-11.5562" gradientUnits="userSpaceOnUse">
<stop stop-color="#FF4B33"/>
<stop offset="1" stop-color="#FFE81D"/>
</linearGradient>
<linearGradient id="paint6_linear_744_97" x1="3.96094" y1="34.5681" x2="43.4253" y2="-11.5562" gradientUnits="userSpaceOnUse">
<stop stop-color="#FF4B33"/>
<stop offset="1" stop-color="#FFE81D"/>
</linearGradient>
<linearGradient id="paint7_linear_744_97" x1="3.96094" y1="34.5681" x2="43.4253" y2="-11.5562" gradientUnits="userSpaceOnUse">
<stop stop-color="#FF4B33"/>
<stop offset="1" stop-color="#FFE81D"/>
</linearGradient>
<linearGradient id="paint8_linear_744_97" x1="3.96094" y1="34.5681" x2="43.4253" y2="-11.5562" gradientUnits="userSpaceOnUse">
<stop stop-color="#FF4B33"/>
<stop offset="1" stop-color="#FFE81D"/>
</linearGradient>
<linearGradient id="paint9_linear_744_97" x1="3.96094" y1="34.5681" x2="43.4253" y2="-11.5562" gradientUnits="userSpaceOnUse">
<stop stop-color="#FF4B33"/>
<stop offset="1" stop-color="#FFE81D"/>
</linearGradient>
<linearGradient id="paint10_linear_744_97" x1="3.96094" y1="34.5681" x2="43.4253" y2="-11.5562" gradientUnits="userSpaceOnUse">
<stop stop-color="#FF4B33"/>
<stop offset="1" stop-color="#FFE81D"/>
</linearGradient>
<linearGradient id="paint11_linear_744_97" x1="3.96094" y1="34.5681" x2="43.4253" y2="-11.5562" gradientUnits="userSpaceOnUse">
<stop stop-color="#FF4B33"/>
<stop offset="1" stop-color="#FFE81D"/>
</linearGradient>
<linearGradient id="paint12_linear_744_97" x1="3.96094" y1="34.5681" x2="43.4253" y2="-11.5562" gradientUnits="userSpaceOnUse">
<stop stop-color="#FF4B33"/>
<stop offset="1" stop-color="#FFE81D"/>
</linearGradient>
</defs>
</svg>
