<svg width="214" height="48" viewBox="0 0 214 48" fill="none" xmlns="http://www.w3.org/2000/svg">
<rect opacity="0.4" x="108.142" y="48" width="48" height="1.36889" rx="0.684445" transform="rotate(-90 108.142 48)" fill="#E9EDF0"/>
<path d="M133.623 19.7774C131.6 19.7774 129.93 19.1054 128.611 17.7614C127.293 16.4174 126.634 14.7598 126.634 12.7886C126.634 10.8046 127.293 9.147 128.611 7.8158C129.93 6.4718 131.6 5.7998 133.623 5.7998C134.839 5.7998 135.959 6.0878 136.983 6.6638C138.019 7.227 138.826 7.995 139.402 8.9678L137.117 10.2926C136.784 9.691 136.311 9.2238 135.696 8.891C135.082 8.5454 134.391 8.3726 133.623 8.3726C132.317 8.3726 131.261 8.7822 130.455 9.6014C129.661 10.4206 129.264 11.483 129.264 12.7886C129.264 14.0814 129.661 15.1374 130.455 15.9566C131.261 16.7758 132.317 17.1854 133.623 17.1854C134.391 17.1854 135.082 17.019 135.696 16.6862C136.323 16.3406 136.797 15.8734 137.117 15.2846L139.402 16.6094C138.826 17.5822 138.026 18.3566 137.002 18.9326C135.978 19.4958 134.851 19.7774 133.623 19.7774Z" fill="white"/>
<path d="M147.4 9.9086H149.877V19.5086H147.4V18.4334C146.799 19.3294 145.845 19.7774 144.539 19.7774C143.49 19.7774 142.619 19.4254 141.928 18.7214C141.25 18.0174 140.911 17.0446 140.911 15.803V9.9086H143.387V15.4958C143.387 16.1358 143.56 16.6286 143.906 16.9742C144.251 17.307 144.712 17.4734 145.288 17.4734C145.928 17.4734 146.44 17.275 146.824 16.8782C147.208 16.4814 147.4 15.8862 147.4 15.0926V9.9086Z" fill="white"/>
<path d="M154.622 11.5598C154.853 10.9454 155.23 10.4846 155.755 10.1774C156.293 9.8702 156.888 9.7166 157.541 9.7166V12.4814C156.785 12.3918 156.107 12.5454 155.505 12.9422C154.917 13.339 154.622 13.9982 154.622 14.9198V19.5086H152.145V9.9086H154.622V11.5598Z" fill="white"/>
<path d="M161.466 11.5598C161.696 10.9454 162.074 10.4846 162.599 10.1774C163.136 9.8702 163.732 9.7166 164.384 9.7166V12.4814C163.629 12.3918 162.951 12.5454 162.349 12.9422C161.76 13.339 161.466 13.9982 161.466 14.9198V19.5086H158.989V9.9086H161.466V11.5598Z" fill="white"/>
<path d="M167.57 15.7262C167.902 16.9294 168.805 17.531 170.277 17.531C171.224 17.531 171.941 17.211 172.427 16.571L174.424 17.723C173.477 19.0926 172.082 19.7774 170.238 19.7774C168.651 19.7774 167.378 19.2974 166.418 18.3374C165.458 17.3774 164.978 16.1678 164.978 14.7086C164.978 13.2622 165.451 12.059 166.398 11.099C167.346 10.1262 168.562 9.6398 170.046 9.6398C171.454 9.6398 172.613 10.1262 173.522 11.099C174.443 12.0718 174.904 13.275 174.904 14.7086C174.904 15.0286 174.872 15.3678 174.808 15.7262H167.57ZM167.531 13.8062H172.427C172.286 13.1534 171.992 12.667 171.544 12.347C171.109 12.027 170.61 11.867 170.046 11.867C169.381 11.867 168.83 12.0398 168.395 12.3854C167.96 12.7182 167.672 13.1918 167.531 13.8062Z" fill="white"/>
<path d="M181.971 9.6398C183.02 9.6398 183.884 9.9918 184.563 10.6958C185.254 11.3998 185.599 12.3726 185.599 13.6142V19.5086H183.123V13.9214C183.123 13.2814 182.95 12.795 182.604 12.4622C182.259 12.1166 181.798 11.9438 181.222 11.9438C180.582 11.9438 180.07 12.1422 179.686 12.539C179.302 12.9358 179.11 13.531 179.11 14.3246V19.5086H176.633V9.9086H179.11V10.9838C179.711 10.0878 180.665 9.6398 181.971 9.6398Z" fill="white"/>
<path d="M192.284 19.7774C190.837 19.7774 189.628 19.291 188.655 18.3182C187.695 17.3454 187.215 16.1422 187.215 14.7086C187.215 13.275 187.695 12.0718 188.655 11.099C189.628 10.1262 190.837 9.6398 192.284 9.6398C193.218 9.6398 194.069 9.8638 194.837 10.3118C195.605 10.7598 196.188 11.3614 196.585 12.1166L194.453 13.3646C194.261 12.9678 193.967 12.6542 193.57 12.4238C193.186 12.1934 192.751 12.0782 192.265 12.0782C191.522 12.0782 190.908 12.3278 190.421 12.827C189.935 13.3134 189.692 13.9406 189.692 14.7086C189.692 15.4638 189.935 16.091 190.421 16.5902C190.908 17.0766 191.522 17.3198 192.265 17.3198C192.764 17.3198 193.205 17.211 193.589 16.9934C193.986 16.763 194.281 16.4494 194.473 16.0526L196.623 17.2814C196.201 18.0366 195.605 18.6446 194.837 19.1054C194.069 19.5534 193.218 19.7774 192.284 19.7774Z" fill="white"/>
<path d="M204.267 9.9086H206.917L203.422 19.5086C202.923 20.891 202.258 21.8894 201.426 22.5038C200.606 23.131 199.582 23.4126 198.354 23.3486V21.0446C199.019 21.0574 199.544 20.9166 199.928 20.6222C200.325 20.3278 200.638 19.8542 200.869 19.2014L196.933 9.9086H199.64L202.136 16.3598L204.267 9.9086Z" fill="white"/>
<path d="M129.226 37.3262C129.559 38.5294 130.461 39.131 131.933 39.131C132.88 39.131 133.597 38.811 134.083 38.171L136.08 39.323C135.133 40.6926 133.738 41.3774 131.895 41.3774C130.307 41.3774 129.034 40.8974 128.074 39.9374C127.114 38.9774 126.634 37.7678 126.634 36.3086C126.634 34.8622 127.107 33.659 128.055 32.699C129.002 31.7262 130.218 31.2398 131.703 31.2398C133.111 31.2398 134.269 31.7262 135.178 32.699C136.099 33.6718 136.56 34.875 136.56 36.3086C136.56 36.6286 136.528 36.9678 136.464 37.3262H129.226ZM129.187 35.4062H134.083C133.943 34.7534 133.648 34.267 133.2 33.947C132.765 33.627 132.266 33.467 131.703 33.467C131.037 33.467 130.487 33.6398 130.051 33.9854C129.616 34.3182 129.328 34.7918 129.187 35.4062Z" fill="white"/>
<path d="M146.597 41.1086H143.736L141.662 38.1902L139.569 41.1086H136.709L140.222 36.2126L136.862 31.5086H139.723L141.662 34.2158L143.601 31.5086H146.443L143.083 36.1934L146.597 41.1086Z" fill="white"/>
<path d="M151.728 41.3774C150.281 41.3774 149.072 40.891 148.099 39.9182C147.139 38.9454 146.659 37.7422 146.659 36.3086C146.659 34.875 147.139 33.6718 148.099 32.699C149.072 31.7262 150.281 31.2398 151.728 31.2398C152.662 31.2398 153.513 31.4638 154.281 31.9118C155.049 32.3598 155.632 32.9614 156.028 33.7166L153.897 34.9646C153.705 34.5678 153.411 34.2542 153.014 34.0238C152.63 33.7934 152.195 33.6782 151.708 33.6782C150.966 33.6782 150.352 33.9278 149.865 34.427C149.379 34.9134 149.136 35.5406 149.136 36.3086C149.136 37.0638 149.379 37.691 149.865 38.1902C150.352 38.6766 150.966 38.9198 151.708 38.9198C152.208 38.9198 152.649 38.811 153.033 38.5934C153.43 38.363 153.724 38.0494 153.916 37.6526L156.067 38.8814C155.644 39.6366 155.049 40.2446 154.281 40.7054C153.513 41.1534 152.662 41.3774 151.728 41.3774Z" fill="white"/>
<path d="M162.714 31.2398C163.764 31.2398 164.628 31.5918 165.306 32.2958C165.998 32.9998 166.343 33.9726 166.343 35.2142V41.1086H163.866V35.5214C163.866 34.8814 163.694 34.395 163.348 34.0622C163.002 33.7166 162.542 33.5438 161.966 33.5438C161.326 33.5438 160.814 33.7422 160.43 34.139C160.046 34.5358 159.854 35.131 159.854 35.9246V41.1086H157.377V27.6686H159.854V32.5838C160.455 31.6878 161.409 31.2398 162.714 31.2398Z" fill="white"/>
<path d="M175.754 31.5086H178.231V41.1086H175.754V39.9758C175.012 40.9102 173.968 41.3774 172.624 41.3774C171.344 41.3774 170.244 40.891 169.322 39.9182C168.413 38.9326 167.959 37.7294 167.959 36.3086C167.959 34.8878 168.413 33.691 169.322 32.7182C170.244 31.7326 171.344 31.2398 172.624 31.2398C173.968 31.2398 175.012 31.707 175.754 32.6414V31.5086ZM171.184 38.267C171.684 38.7662 172.317 39.0158 173.085 39.0158C173.853 39.0158 174.487 38.7662 174.986 38.267C175.498 37.755 175.754 37.1022 175.754 36.3086C175.754 35.515 175.498 34.8686 174.986 34.3694C174.487 33.8574 173.853 33.6014 173.085 33.6014C172.317 33.6014 171.684 33.8574 171.184 34.3694C170.685 34.8686 170.436 35.515 170.436 36.3086C170.436 37.1022 170.685 37.755 171.184 38.267Z" fill="white"/>
<path d="M185.814 31.2398C186.864 31.2398 187.728 31.5918 188.406 32.2958C189.098 32.9998 189.443 33.9726 189.443 35.2142V41.1086H186.966V35.5214C186.966 34.8814 186.794 34.395 186.448 34.0622C186.102 33.7166 185.642 33.5438 185.066 33.5438C184.426 33.5438 183.914 33.7422 183.53 34.139C183.146 34.5358 182.954 35.131 182.954 35.9246V41.1086H180.477V31.5086H182.954V32.5838C183.555 31.6878 184.509 31.2398 185.814 31.2398Z" fill="white"/>
<path d="M198.912 31.5086H201.331V40.6478C201.331 42.1326 200.838 43.2654 199.852 44.0462C198.88 44.827 197.702 45.2174 196.32 45.2174C195.283 45.2174 194.368 45.019 193.574 44.6222C192.793 44.2254 192.192 43.643 191.769 42.875L193.881 41.6654C194.368 42.5614 195.206 43.0094 196.396 43.0094C197.177 43.0094 197.792 42.8046 198.24 42.395C198.688 41.9854 198.912 41.403 198.912 40.6478V39.611C198.182 40.5838 197.158 41.0702 195.84 41.0702C194.483 41.0702 193.344 40.5966 192.422 39.6494C191.513 38.6894 191.059 37.5246 191.059 36.155C191.059 34.7982 191.52 33.6398 192.441 32.6798C193.363 31.7198 194.496 31.2398 195.84 31.2398C197.158 31.2398 198.182 31.7262 198.912 32.699V31.5086ZM194.284 38.0558C194.796 38.5422 195.443 38.7854 196.224 38.7854C197.004 38.7854 197.644 38.5422 198.144 38.0558C198.656 37.5566 198.912 36.923 198.912 36.155C198.912 35.3998 198.656 34.779 198.144 34.2926C197.644 33.7934 197.004 33.5438 196.224 33.5438C195.443 33.5438 194.796 33.7934 194.284 34.2926C193.785 34.779 193.536 35.3998 193.536 36.155C193.536 36.923 193.785 37.5566 194.284 38.0558Z" fill="white"/>
<path d="M205.67 37.3262C206.002 38.5294 206.905 39.131 208.377 39.131C209.324 39.131 210.041 38.811 210.527 38.171L212.524 39.323C211.577 40.6926 210.181 41.3774 208.338 41.3774C206.751 41.3774 205.477 40.8974 204.517 39.9374C203.557 38.9774 203.077 37.7678 203.077 36.3086C203.077 34.8622 203.551 33.659 204.498 32.699C205.445 31.7262 206.661 31.2398 208.146 31.2398C209.554 31.2398 210.713 31.7262 211.621 32.699C212.543 33.6718 213.004 34.875 213.004 36.3086C213.004 36.6286 212.972 36.9678 212.908 37.3262H205.67ZM205.631 35.4062H210.527C210.386 34.7534 210.092 34.267 209.644 33.947C209.209 33.627 208.709 33.467 208.146 33.467C207.481 33.467 206.93 33.6398 206.495 33.9854C206.06 34.3182 205.772 34.7918 205.631 35.4062Z" fill="white"/>
<path fill-rule="evenodd" clip-rule="evenodd" d="M55.4898 14.4127C54.5731 20.6379 49.7178 24.8669 43.4026 24.8669C36.1707 24.8669 30.7722 19.5214 30.7722 12.4504C30.7722 5.34554 36.1707 0 43.4026 0C49.616 0 54.4373 4.09374 55.4219 10.0821H48.7672C47.9523 7.67999 45.9151 6.08986 43.4026 6.08986C40.0413 6.08986 37.5628 8.79647 37.5628 12.4504C37.5628 16.1043 40.0413 18.7771 43.4026 18.7771C46.051 18.7771 48.1221 17.0516 48.8011 14.4127H55.4898ZM77.8028 15.1232C77.8028 20.7732 73.4908 24.8669 67.5151 24.8669C61.5395 24.8669 57.2614 20.7732 57.2614 15.1232C57.2614 9.47312 61.5395 5.41321 67.5151 5.41321C73.4908 5.41321 77.8028 9.47312 77.8028 15.1232ZM63.5766 15.157C63.5766 17.5591 65.2403 19.2169 67.5151 19.2169C69.8239 19.2169 71.4876 17.5591 71.4876 15.157C71.4876 12.7549 69.8239 11.0632 67.5151 11.0632C65.2403 11.0632 63.5766 12.721 63.5766 15.157ZM21.7531 3.07076C21.7531 4.4727 20.8873 5.33543 19.5164 5.33543L13.3116 5.33543V0.626359L8.11681 0.626359V5.47922H2.45308L2.45308 6.88116L11.7243 15.5804H13.3116V12.0216L20.6348 12.0216C24.9637 12.0216 27.5972 9.39746 27.5972 5.11975V0.51852L21.7531 0.51852V3.07076ZM5.69981 17.8355V24.4497H0L0 17.8355H5.69981ZM27.5972 17.7995V24.4857H8.11682V17.7995H27.5972ZM8.83831 28.489C11.0749 28.489 13.0951 29.7472 14.2856 31.6524C15.4039 29.2799 17.6766 27.806 20.4183 27.806C24.5308 27.806 27.6333 31.3288 27.6333 35.966V47.5769H2.38093L2.38093 36.2176C2.38093 31.7602 5.08654 28.489 8.83831 28.489ZM12.1933 37.4039C12.1933 35.966 11.2914 35.0673 9.9927 35.0673C8.65794 35.0673 7.79214 35.966 7.79214 37.4039V40.9267H12.1933V37.4039ZM21.8974 40.9267V37.1523C21.8974 35.6425 20.9594 34.6719 19.5886 34.6719C18.2538 34.6719 17.3159 35.6425 17.3159 37.1523V40.9267H21.8974ZM91.2589 38.0869C91.2589 32.7414 87.1845 28.5462 81.2768 28.5462C75.5048 28.5462 71.3286 32.6737 71.3286 38.2561C71.3286 43.8385 75.5388 47.9999 81.2768 47.9999C85.8604 47.9999 89.5952 45.3948 90.8854 41.2334H84.5702C83.993 42.316 82.7367 42.9588 81.2768 42.9588C79.2736 42.9588 77.9494 41.8762 77.542 39.7786H91.157C91.2249 39.2034 91.2589 38.6621 91.2589 38.0869ZM81.2768 33.4857C83.1781 33.4857 84.5023 34.4669 85.0455 36.2938H77.6438C78.1531 34.4669 79.4433 33.4857 81.2768 33.4857ZM68.6095 29.0536C66.4365 29.0536 64.8747 29.6626 63.5845 31.1513L62.5999 29.1213H58.3558V47.3909H64.671V38.1208C64.671 35.7863 65.6217 34.8052 67.8286 34.8052H70.3071V29.0536H68.6095Z" fill="white"/>
<rect x="33.6611" y="29.6038" width="17.9526" height="18" rx="8.97632" fill="url(#paint0_linear_124_2805)"/>
<defs>
<linearGradient id="paint0_linear_124_2805" x1="42.6375" y1="29.6038" x2="42.6375" y2="47.6037" gradientUnits="userSpaceOnUse">
<stop stop-color="#FFB800"/>
<stop offset="1" stop-color="#FA00FF"/>
</linearGradient>
</defs>
</svg>
