<svg width="25" height="25" viewBox="0 0 25 25" fill="none" xmlns="http://www.w3.org/2000/svg">
<g clip-path="url(#clip0_663_11883)">
<path d="M12.1498 24.3561C18.8049 24.3561 24.2 19.0649 24.2 12.5379C24.2 6.0109 18.8049 0.719727 12.1498 0.719727C5.49467 0.719727 0.0996094 6.0109 0.0996094 12.5379C0.0996094 19.0649 5.49467 24.3561 12.1498 24.3561Z" fill="#3499DC"/>
<path d="M7.94667 6.49164C8.95553 6.32674 10.3567 6.2168 12.3184 6.2168C14.3361 6.2168 15.7373 6.60157 16.6901 7.31617C17.5868 8.03076 18.2033 9.18509 18.2033 10.5593C18.2033 11.9335 17.7549 13.0878 16.8582 13.9124C15.7373 14.9568 14.1119 15.3965 12.2063 15.3965C11.7579 15.3965 11.4216 15.3965 11.0853 15.3416V20.3436H7.89062V6.49164H7.94667ZM11.1414 12.868C11.4216 12.923 11.7579 12.9779 12.2063 12.9779C13.9437 12.9779 15.0087 12.0984 15.0087 10.6692C15.0087 9.35 14.1119 8.58043 12.4865 8.58043C11.8139 8.58043 11.3656 8.6354 11.1414 8.69038V12.868Z" fill="white"/>
</g>
<defs>
<clipPath id="clip0_663_11883">
<rect width="24.1004" height="23.6364" fill="white" transform="translate(0.0996094 0.719727)"/>
</clipPath>
</defs>
</svg>
