<svg width="20" height="20" viewBox="0 0 20 20" fill="none" xmlns="http://www.w3.org/2000/svg">
<g id="Sberbank_Logo_2020 1">
<g id="Group 196">
<path id="Vector" d="M16.0926 5.27734C16.4722 5.77469 16.7936 6.31502 17.0501 6.88748L9.77145 12.3252L6.72949 10.3927V8.06774L9.77145 10.0003L16.0926 5.27734Z" fill="white"/>
<path id="Vector_2" d="M3.62434 10.2287C3.62434 10.1244 3.62685 10.0208 3.63187 9.91772L1.78836 9.82617C1.78209 9.95971 1.77832 10.0945 1.77832 10.2306C1.77754 11.2938 1.98388 12.3466 2.38552 13.3287C2.78715 14.3109 3.37617 15.203 4.11879 15.9539L5.42644 14.6292C4.8548 14.0523 4.40132 13.3664 4.09205 12.6112C3.78278 11.8561 3.62384 11.0464 3.62434 10.2287Z" fill="white"/>
<path id="Vector_3" d="M9.76857 4.00143C9.87146 4.00143 9.97371 4.00525 10.0754 4.01034L10.1676 2.14138C10.0355 2.13502 9.90241 2.13184 9.76857 2.13184C8.71902 2.13054 7.67962 2.33936 6.70996 2.7463C5.7403 3.15325 4.85951 3.7503 4.11816 4.50318L5.42581 5.82842C5.99517 5.2489 6.67195 4.78915 7.41724 4.47561C8.16253 4.16207 8.96159 4.00092 9.76857 4.00143Z" fill="white"/>
<path id="Vector_4" d="M9.7698 16.4552C9.66691 16.4552 9.56461 16.4552 9.46236 16.447L9.37012 18.3153C9.50272 18.3221 9.63596 18.3255 9.7698 18.3255C10.8189 18.3266 11.8578 18.1176 12.827 17.7106C13.7961 17.3035 14.6763 16.7064 15.4171 15.9535L14.1119 14.6289C13.5425 15.2081 12.8658 15.6676 12.1206 15.981C11.3755 16.2945 10.5766 16.4556 9.7698 16.4552Z" fill="white"/>
<path id="Vector_5" d="M13.2328 5.08788L14.7864 3.92733C13.3664 2.76199 11.5938 2.12762 9.7666 2.13087V4.0011C11.0039 3.99954 12.2125 4.3785 13.2328 5.08788Z" fill="white"/>
<path id="Vector_6" d="M17.7593 10.2285C17.7603 9.74198 17.7183 9.25629 17.6338 8.77734L15.9139 10.0619C15.9139 10.1172 15.9139 10.1726 15.9139 10.2285C15.9143 11.0986 15.7343 11.9591 15.3857 12.7542C15.0369 13.5493 14.5272 14.2613 13.8896 14.844L15.1302 16.2335C15.9591 15.4751 16.6215 14.5486 17.0744 13.5142C17.5274 12.4797 17.7607 11.3603 17.7593 10.2285Z" fill="white"/>
<path id="Vector_7" d="M9.76898 16.4567C8.91035 16.457 8.06123 16.2746 7.27658 15.9212C6.49197 15.5678 5.78932 15.0513 5.21414 14.4053L3.84375 15.6618C4.59198 16.5021 5.50612 17.1735 6.52687 17.6326C7.54762 18.0917 8.65218 18.3283 9.76898 18.3269V16.4567Z" fill="white"/>
<path id="Vector_8" d="M5.64857 5.61311L4.40869 4.22363C3.57953 4.98188 2.91689 5.90829 2.46375 6.94278C2.01061 7.97726 1.77708 9.09673 1.77833 10.2286H3.62435C3.62397 9.35851 3.80397 8.49801 4.15267 7.70291C4.50138 6.90783 5.01102 6.19585 5.64857 5.61311Z" fill="white"/>
</g>
</g>
</svg>
