<svg width="20" height="20" viewBox="0 0 20 20" fill="none" xmlns="http://www.w3.org/2000/svg">
<path d="M17.7117 13.3565C20.7628 10.3053 20.7628 5.33917 17.7117 2.28793C14.6599 -0.762644 9.69473 -0.762645 6.64298 2.28793C3.92656 5.00514 3.63554 9.23706 5.75669 12.2863C5.4531 12.3505 5.1634 12.4973 4.92728 12.7334L0.48392 17.177C-0.162278 17.8246 -0.162278 18.871 0.48392 19.5152C1.13078 20.1621 2.17713 20.1621 2.82201 19.5152L7.26669 15.0717C7.50083 14.8368 7.64832 14.5465 7.71248 14.2429C10.7622 16.3654 14.9933 16.0744 17.7117 13.3565ZM8.04583 11.9536C5.76793 9.67559 5.76793 5.9682 8.04583 3.69085C10.3237 1.41417 14.0303 1.41417 16.3082 3.69085C18.5854 5.9682 18.5854 9.6756 16.3082 11.9536C14.0303 14.2316 10.3237 14.2316 8.04583 11.9536Z" fill="#3A3F48"/>
</svg>
