<svg width="17" height="17" viewBox="0 0 17 17" fill="none" xmlns="http://www.w3.org/2000/svg">
<g id="Icons">
<g id="Vector">
<path fill-rule="evenodd" clip-rule="evenodd" d="M14.9429 11.2561C15.4952 10.2995 15.1675 9.07633 14.2109 8.52404L14.1695 8.50013L14.2108 8.47623C15.1674 7.92395 15.4952 6.70077 14.9429 5.74418L14.2762 4.58948C13.7239 3.63289 12.5008 3.30514 11.5442 3.85743L11.5027 3.88136V3.8335C11.5027 2.72893 10.6073 1.8335 9.50272 1.8335L8.16939 1.8335C7.06482 1.8335 6.16939 2.72893 6.16939 3.8335L6.16939 3.88129L6.12798 3.85738C5.17139 3.30509 3.94821 3.63284 3.39593 4.58943L2.72926 5.74413C2.17697 6.70071 2.50472 7.92389 3.46131 8.47618L3.50279 8.50012L3.46127 8.52409C2.50469 9.07638 2.17694 10.2996 2.72922 11.2561L3.39589 12.4108C3.94817 13.3674 5.17135 13.6952 6.12794 13.1429L6.16939 13.119V13.1668C6.16939 14.2714 7.06482 15.1668 8.16939 15.1668H9.50272C10.6073 15.1668 11.5027 14.2714 11.5027 13.1668V13.1189L11.5442 13.1428C12.5008 13.6951 13.724 13.3674 14.2763 12.4108L14.9429 11.2561ZM12.1694 5.03606C11.2805 5.54927 10.1694 4.90776 10.1694 3.88136V3.8335C10.1694 3.46531 9.87091 3.16683 9.50272 3.16683L8.16939 3.16683C7.80121 3.16683 7.50275 3.46528 7.50272 3.83345L7.50272 3.88129C7.50272 4.90766 6.39167 5.54916 5.50279 5.03602L5.46131 5.01208C5.14245 4.82798 4.73472 4.93723 4.55063 5.25609L3.88396 6.41079C3.69986 6.72966 3.80911 7.13738 4.12798 7.32148L4.1694 7.34539C5.05834 7.85856 5.05837 9.14162 4.16945 9.65483L4.12794 9.67879C3.80908 9.86289 3.69983 10.2706 3.88392 10.5895L4.55059 11.7442C4.73468 12.063 5.14241 12.1723 5.46127 11.9882L5.50273 11.9643C6.39162 11.4511 7.50272 12.0926 7.50272 13.119V13.1668C7.50272 13.535 7.8012 13.8335 8.16939 13.8335H9.50272C9.87091 13.8335 10.1694 13.535 10.1694 13.1668V13.1189C10.1694 12.0925 11.2806 11.451 12.1695 11.9642L12.2109 11.9881C12.5297 12.1722 12.9375 12.063 13.1216 11.7441L13.7882 10.5894C13.9723 10.2706 13.8631 9.86284 13.5442 9.67874L13.5027 9.6548C12.6139 9.14156 12.6139 7.85861 13.5028 7.34543L13.5442 7.32153C13.863 7.13743 13.9723 6.7297 13.7882 6.41085L13.1215 5.25615C12.9374 4.93728 12.5297 4.82803 12.2108 5.01213L12.1694 5.03606Z" fill="#62666D"/>
<path fill-rule="evenodd" clip-rule="evenodd" d="M8.83594 9.83346C9.57232 9.83346 10.1693 9.2365 10.1693 8.50012C10.1693 7.76374 9.57232 7.16679 8.83594 7.16679C8.09956 7.16679 7.5026 7.76374 7.5026 8.50012C7.5026 9.2365 8.09956 9.83346 8.83594 9.83346ZM8.83594 11.1668C10.3087 11.1668 11.5026 9.97288 11.5026 8.50012C11.5026 7.02736 10.3087 5.83346 8.83594 5.83346C7.36318 5.83346 6.16927 7.02736 6.16927 8.50012C6.16927 9.97288 7.36318 11.1668 8.83594 11.1668Z" fill="#62666D"/>
</g>
</g>
</svg>
