<svg width="20" height="20" viewBox="0 0 20 20" fill="none" xmlns="http://www.w3.org/2000/svg">
<path d="M5.08175 5.0474C4.42532 5.69399 3.90341 6.46416 3.54613 7.31346C3.18884 8.16276 3.00324 9.0744 3.00004 9.99579C2.99684 10.9172 3.1761 11.8301 3.52749 12.6818C3.87887 13.5336 4.39542 14.3074 5.04734 14.9585C5.69926 15.6097 6.47365 16.1253 7.32585 16.4757C8.17804 16.826 9.09118 17.0042 10.0126 16.9999C10.934 16.9956 11.8454 16.809 12.6943 16.4507C13.5432 16.0924 14.3128 15.5696 14.9586 14.9124M16.2569 13.1131C16.9154 11.8021 17.144 10.3169 16.9103 8.8685C16.6766 7.42011 15.9925 6.08219 14.955 5.04477C13.9176 4.00736 12.5796 3.32321 11.1312 3.08951C9.68281 2.85581 8.19758 3.08444 6.8865 3.74292M10.0199 6.10221V6.87776M3.03976 3L17 16.96" stroke="#DD5163" stroke-width="2" stroke-linecap="round" stroke-linejoin="round"/>
</svg>
