<svg width="20" height="20" viewBox="0 0 20 20" fill="none" xmlns="http://www.w3.org/2000/svg">
<g id="Status Icon/Status=Status=Linear, Property 2=Video, Audio, Sound, Property 3=Property 38">
<path id="Vector" d="M8 15.2503C8.41421 15.2503 8.75 14.9145 8.75 14.5003C8.75 14.0861 8.41421 13.7503 8 13.7503V15.2503ZM7.5 5.50016V6.25016H7.50008L7.5 5.50016ZM9 5.5L9.00008 6.25C9.31858 6.24997 9.60232 6.04877 9.70773 5.74822C9.81314 5.44766 9.71723 5.11331 9.46852 4.91435L9 5.5ZM6.96852 2.91435C6.64507 2.65559 6.17311 2.70803 5.91435 3.03148C5.65559 3.35493 5.70803 3.82689 6.03148 4.08565L6.96852 2.91435ZM7.50008 6.25016L9.00008 6.25L8.99992 4.75L7.49992 4.75016L7.50008 6.25016ZM9.46852 4.91435L6.96852 2.91435L6.03148 4.08565L8.53148 6.08565L9.46852 4.91435ZM1.25 10C1.25 11.4647 1.84326 12.8078 3.02703 13.7697C4.19741 14.7208 5.88183 15.2503 8 15.2503V13.7503C6.11817 13.7503 4.80259 13.2797 3.97297 12.6056C3.15674 11.9423 2.75 11.0353 2.75 10H1.25ZM2.75 10C2.75 8.96076 3.1606 8.045 3.92868 7.37936C4.70271 6.70858 5.89098 6.25016 7.5 6.25016V4.75016C5.60902 4.75016 4.04729 5.29167 2.94632 6.2458C1.8394 7.20508 1.25 8.53924 1.25 10H2.75Z" fill="#62666D"/>
<path id="Vector_2" d="M12 4.74968C11.5858 4.74968 11.25 5.08546 11.25 5.49968C11.25 5.91389 11.5858 6.24968 12 6.24968V4.74968ZM12.5 14.4998V13.7498H12.4999L12.5 14.4998ZM11 14.5L10.9999 13.75C10.6814 13.75 10.3977 13.9512 10.2923 14.2518C10.1869 14.5523 10.2828 14.8867 10.5315 15.0857L11 14.5ZM13.0315 17.0857C13.3549 17.3444 13.8269 17.292 14.0857 16.9685C14.3444 16.6451 14.292 16.1731 13.9685 15.9143L13.0315 17.0857ZM12.4999 13.7498L10.9999 13.75L11.0001 15.25L12.5001 15.2498L12.4999 13.7498ZM10.5315 15.0857L13.0315 17.0857L13.9685 15.9143L11.4685 13.9143L10.5315 15.0857ZM18.75 10C18.75 8.53535 18.1567 7.19218 16.973 6.23028C15.8026 5.27925 14.1182 4.74968 12 4.74968V6.24968C13.8818 6.24968 15.1974 6.72027 16.027 7.3944C16.8433 8.05766 17.25 8.96465 17.25 10H18.75ZM17.25 10C17.25 11.0392 16.8394 11.955 16.0713 12.6206C15.2973 13.2914 14.109 13.7498 12.5 13.7498V15.2498C14.391 15.2498 15.9527 14.7083 17.0537 13.7542C18.1606 12.7949 18.75 11.4608 18.75 10H17.25Z" fill="#62666D"/>
</g>
</svg>
