<svg width="20" height="20" viewBox="0 0 20 20" fill="none" xmlns="http://www.w3.org/2000/svg">
<path opacity="0.5" fill-rule="evenodd" clip-rule="evenodd" d="M0 10C0 4.47715 4.47715 0 10 0C15.5228 0 20 4.47715 20 10C20 15.5228 15.5228 20 10 20C4.47715 20 0 15.5228 0 10ZM12.858 5.71428C13.2525 5.31979 13.8921 5.31979 14.2865 5.71428C14.681 6.10877 14.681 6.74836 14.2865 7.14284L11.4289 10.0004L14.2856 12.8572C14.6801 13.2516 14.6801 13.8912 14.2856 14.2857C13.8912 14.6802 13.2516 14.6802 12.8571 14.2857L10.0004 11.429L7.14374 14.2856C6.74925 14.6801 6.10966 14.6801 5.71518 14.2856C5.32069 13.8912 5.32069 13.2516 5.71518 12.8571L8.57182 10.0004L5.71428 7.14291C5.31979 6.74843 5.31979 6.10884 5.71428 5.71435C6.10877 5.31986 6.74836 5.31986 7.14284 5.71435L10.0004 8.57189L12.858 5.71428Z" fill="#6D727B"/>
</svg>
