<svg width="19" height="19" viewBox="0 0 19 19" fill="none" xmlns="http://www.w3.org/2000/svg">
<g id="Frame">
<path id="Vector" d="M9.82812 10.25C10.2423 10.25 10.5781 9.91421 10.5781 9.5C10.5781 9.08579 10.2423 8.75 9.82812 8.75C9.41391 8.75 9.07812 9.08579 9.07812 9.5C9.07812 9.91421 9.41391 10.25 9.82812 10.25Z" fill="black" stroke="black" stroke-width="0.75" stroke-linecap="round" stroke-linejoin="round"/>
<path id="Vector_2" d="M15.0781 10.25C15.4923 10.25 15.8281 9.91421 15.8281 9.5C15.8281 9.08579 15.4923 8.75 15.0781 8.75C14.6639 8.75 14.3281 9.08579 14.3281 9.5C14.3281 9.91421 14.6639 10.25 15.0781 10.25Z" fill="black" stroke="black" stroke-width="0.75" stroke-linecap="round" stroke-linejoin="round"/>
<path id="Vector_3" d="M4.57812 10.25C4.99234 10.25 5.32812 9.91421 5.32812 9.5C5.32812 9.08579 4.99234 8.75 4.57812 8.75C4.16391 8.75 3.82812 9.08579 3.82812 9.5C3.82812 9.91421 4.16391 10.25 4.57812 10.25Z" fill="black" stroke="black" stroke-width="0.75" stroke-linecap="round" stroke-linejoin="round"/>
</g>
</svg>
