<svg width="51" height="56" viewBox="0 0 51 56" fill="none" xmlns="http://www.w3.org/2000/svg">
<g clip-path="url(#clip0_663_11892)">
<path d="M21.329 30.5076V26.4692C21.329 26.1129 21.2221 25.6971 21.1152 25.3408H23.9474C24.2146 25.7565 24.6956 25.9941 25.2299 25.9941C25.7643 25.9941 26.2453 25.7565 26.5124 25.3408H29.3446C29.2378 25.6971 29.1309 26.0535 29.1309 26.4692V30.5076H21.329ZM25.2299 36.0306C24.8559 35.6149 24.5352 35.5555 23.4665 35.5555C22.184 35.5555 21.329 34.7241 21.329 33.4176V30.7451H29.0775V33.4176C29.0775 34.7241 28.2225 35.5555 26.9399 35.5555C25.8712 35.5555 25.604 35.6149 25.2299 36.0306Z" fill="#FFE500"/>
<path d="M21.7564 36.5651V37.3966L21.1152 37.6935C21.6496 37.9904 22.2908 38.228 23.0924 38.4062L23.4664 37.0996C22.7183 36.9215 22.1839 36.7433 21.7564 36.5651ZM25.2299 37.6341C24.4818 37.6341 23.8405 37.5747 23.6268 37.4559L23.2527 38.8219C23.8405 39 24.5352 39.1188 25.2299 39.1188C25.9246 39.1188 26.6193 39 27.2071 38.8219L26.833 37.5153C26.5658 37.5747 25.978 37.6341 25.2299 37.6341ZM28.6499 36.5651C28.2224 36.7433 27.688 36.9215 26.9399 37.0996L27.314 38.4062C28.1155 38.228 28.7568 37.9311 29.2912 37.6935L28.6499 37.3966V36.5651ZM20.4739 23.4998C21.4358 22.9059 23.894 21.5994 22.2374 20.1741C22.0236 19.9959 21.7564 19.8178 21.5427 19.5802C21.2755 19.8178 21.6496 20.3522 21.703 20.5304C21.703 20.5304 21.1686 20.5898 21.0083 20.5898C20.1533 20.5898 19.2983 20.0553 19.7258 18.9863C19.4052 19.0457 19.3517 19.402 19.2449 19.699C19.0311 19.5208 18.6571 19.1645 18.3899 19.2239C18.6036 20.0553 19.6189 20.8274 20.3671 20.9461C19.6189 21.4212 18.1761 21.7776 17.428 20.768C16.8936 21.8963 17.6417 22.3714 18.3364 22.9653C15.6111 24.3312 15.9852 25.9347 14.1683 27.1819C14.4889 27.36 15.5042 27.1225 15.6111 27.1225C15.237 27.7163 15.0233 27.9539 14.9164 28.1914C14.8095 28.429 14.7561 28.7259 14.6492 29.3792C14.5423 29.8543 14.4355 30.3888 13.8477 30.6857C14.0614 31.1015 14.5423 30.8045 14.7027 30.7451C14.7027 30.8045 14.5958 31.2796 14.4355 31.5766C15.3439 31.5172 14.9164 29.3198 15.8783 29.8543C16.1455 29.9731 16.2524 30.3294 16.092 30.567C15.5042 31.9329 16.8402 33.18 16.7867 34.4272C17.1074 34.4272 17.4814 34.4272 17.6952 33.8927C17.802 34.1302 18.0158 34.4866 18.0692 34.8429L18.3364 34.3084C18.4967 35.1992 19.2449 35.9713 20.2067 36.0306C19.7258 35.1992 20.3136 34.0708 19.138 32.8831C19.2983 32.7643 19.6189 32.5268 19.7258 32.3486C18.3364 32.5268 16.8936 31.2796 17.5349 30.7451C17.9624 30.3888 18.1761 31.1608 18.8174 31.0421L18.5502 30.8045L18.8708 30.4482C18.6036 30.3888 18.283 30.2106 18.283 30.2106L18.4433 29.9137C16.7867 29.9137 16.7867 28.5478 17.428 28.4884C17.7486 28.4884 18.1227 29.0823 19.138 28.9635C19.0311 28.7853 18.9777 28.5478 18.8708 28.3102C19.138 28.3102 19.4052 28.3102 19.6189 28.1914C19.138 28.1321 18.9777 27.9539 18.6036 27.5976L19.0846 27.4194C18.3899 27.0631 18.4433 26.3504 18.3899 25.6972C18.7639 25.9347 19.1914 26.291 19.6189 26.1129C19.7258 26.0535 19.7792 25.9941 19.7792 25.8753C19.2983 25.5784 18.9242 24.45 20.4739 23.4998ZM19.2983 23.6186C18.4433 24.6282 18.8174 25.2814 18.9777 25.4596C18.6571 25.4002 18.1761 24.9251 18.283 24.5094C18.1761 24.6282 18.0692 24.8063 17.9624 24.9251C17.7486 25.2221 17.5349 25.5784 17.3745 25.8753C17.1074 26.7661 17.5883 27.657 18.3899 28.0133C17.4814 27.8351 17.0539 26.9443 17.0539 26.4098C16.6264 27.3006 16.4127 28.1321 16.4127 28.8447C16.4127 29.0823 16.4661 29.3198 16.4661 29.5574C16.6799 29.9731 17.0005 30.1512 17.5883 30.2106C17.0539 30.27 16.7333 30.2106 16.5195 29.9731C16.8936 31.7547 18.6036 33.2988 19.2983 34.6053C18.6036 33.5957 17.1074 32.0517 16.6264 30.9827C16.6799 31.339 16.7867 32.3486 17.2142 33.0019C16.573 32.2892 16.5195 31.2202 16.573 30.567C16.4127 30.0919 16.3058 29.6168 16.3058 29.0229C16.3058 28.4884 16.3058 28.0133 16.4127 27.5976C15.9852 28.2508 15.3974 28.4884 15.1302 29.498C15.1836 28.1914 16.0386 28.1914 16.6799 26.6474C16.947 25.9941 17.2677 25.4002 17.6952 24.6876C17.1608 24.8657 16.7867 24.9845 16.1989 25.6972C16.6264 24.5688 19.0311 23.381 20.1533 22.1339C19.8327 22.1933 18.4433 22.2527 17.9089 21.8369C18.9242 22.1339 21.2221 21.7776 22.0771 21.1243C21.4893 22.0745 20.2067 22.1339 18.6036 24.0343C18.7639 23.9155 19.0311 23.7374 19.2983 23.6186ZM35.7571 29.3792C35.6503 28.7259 35.5968 28.4884 35.4899 28.1914C35.3831 27.8945 35.1693 27.657 34.7952 27.1225C34.9021 27.1225 35.9174 27.36 36.1846 27.2412C34.3677 25.9941 34.7953 24.45 32.0165 23.0247C32.7646 22.4308 33.4593 21.9557 32.9249 20.8274C32.1768 21.8369 30.734 21.4806 29.9859 21.0055C30.734 20.8274 31.7493 20.1147 31.963 19.2833C31.6959 19.2239 31.3218 19.5802 31.108 19.7584C31.0012 19.4614 30.9477 19.1051 30.6271 18.9863C31.0546 20.0553 30.1996 20.5898 29.3446 20.5898C29.2377 20.5898 28.6499 20.5304 28.6499 20.5304C28.7568 20.3522 29.0774 19.7584 28.8102 19.5802C28.5965 19.8178 28.3827 19.9959 28.1155 20.1741C26.459 21.5994 28.9171 22.9059 29.879 23.4998C31.4287 24.45 31.0012 25.519 30.3599 25.8159C30.3599 25.9347 30.4134 25.9941 30.5202 26.0535C30.9477 26.2316 31.3752 25.8753 31.7493 25.6378C31.7493 26.3504 31.7493 27.0037 31.0546 27.36L31.5355 27.5382C31.108 27.8945 31.0012 28.0727 30.5202 28.1321C30.734 28.2508 31.0546 28.2508 31.2684 28.2508C31.2149 28.429 31.1615 28.7259 31.0012 28.9041C32.0165 29.0229 32.3906 28.3696 32.7112 28.429C33.3524 28.4884 33.3524 29.8543 31.6959 29.8543L31.8562 30.1512C31.8562 30.1512 31.5355 30.3294 31.2684 30.3888L31.589 30.7451L31.3218 30.9827C31.963 31.1015 32.1768 30.3294 32.6043 30.6857C33.2456 31.2796 31.8027 32.5268 30.4134 32.2892C30.5202 32.4674 30.8409 32.7049 31.0012 32.8237C29.879 34.0115 30.4134 35.1398 29.9324 35.9713C30.8943 35.9119 31.6424 35.0804 31.8027 34.249L32.0699 34.7835C32.1768 34.4272 32.3371 34.0708 32.444 33.8333C32.6577 34.3678 33.0318 34.3678 33.3524 34.3678C33.299 33.1206 34.6349 31.9329 34.0471 30.5076C33.9402 30.2106 33.9937 29.9137 34.2609 29.7355C35.1693 29.201 34.7418 31.3984 35.7037 31.4578C35.5434 31.2202 35.4365 30.6857 35.4365 30.6263C35.6503 30.6857 36.0778 31.0421 36.2915 30.567C36.0243 30.3888 35.864 29.8543 35.7571 29.3792ZM34.0471 27.5976C34.1006 28.0133 34.154 28.4884 34.154 29.0229C34.154 29.6168 34.0471 30.0919 33.8868 30.567C33.9402 31.2202 33.8868 32.2892 33.2456 33.0019C33.6731 32.3486 33.7799 31.339 33.7265 30.9827C33.1921 32.0517 31.7493 33.5957 31.0546 34.6053C31.7493 33.2988 33.5127 31.7547 33.8868 29.9731C33.6731 30.27 33.3524 30.27 32.8181 30.2106C33.4059 30.1512 33.7265 29.9731 33.9402 29.498C33.9937 29.2604 33.9937 29.0229 33.9937 28.7853C33.9937 28.0727 33.7799 27.2412 33.3524 26.3504C33.3524 26.9443 32.9249 27.8351 32.0165 27.9539C32.8181 27.5382 33.299 26.6474 33.0318 25.8159C32.8715 25.519 32.6577 25.2221 32.444 24.8657C32.3371 24.6876 32.2302 24.5688 32.1234 24.45C32.2302 24.8657 31.7493 25.3408 31.4287 25.4002C31.589 25.2221 31.963 24.5688 31.108 23.5592C31.3752 23.678 31.6424 23.8561 31.8027 24.0343C30.253 22.1339 28.9171 22.0745 28.3293 21.1243C29.1843 21.7776 31.4821 22.1339 32.4974 21.8369C31.9096 22.2527 30.5737 22.1933 30.253 22.1339C31.3752 23.3216 33.7799 24.5688 34.2074 25.6972C33.6196 24.9845 33.2456 24.8657 32.7112 24.6876C33.1387 25.3408 33.4593 25.9347 33.7265 26.6474C34.3677 28.1914 35.2228 28.2508 35.2762 29.498C35.0624 28.4884 34.4212 28.2508 34.0471 27.5976Z" fill="white"/>
<path d="M26.4579 25.3408C26.1907 25.7565 25.7098 25.9941 25.1754 25.9941C25.0686 25.9941 24.9082 25.9941 24.8014 25.9347C24.8548 26.1129 24.9082 26.291 25.0686 26.4098C25.0151 26.8849 25.1754 27.3006 25.6564 27.4194C25.7098 27.6569 25.8167 27.8351 26.0839 27.9539L25.7632 28.429C25.6564 28.6072 25.4961 28.6072 25.3357 28.6072L23.8929 28.429C23.9464 28.2508 23.786 28.0727 23.3585 28.132L23.8929 26.4098L23.6257 25.5784L22.9845 26.1722L22.931 28.0133L22.6639 27.8351C22.2898 27.6569 22.1829 28.3696 22.557 28.3696H22.7173C22.7173 28.429 22.7173 28.5478 22.7707 28.5478C22.7173 28.5478 22.6639 28.7259 22.7707 28.7853C22.6639 28.8447 22.6639 28.9635 22.7173 29.0229C22.6639 29.1416 22.6104 29.4386 22.8776 29.498C23.0914 29.5574 23.1982 29.3198 23.2517 29.201L25.4426 29.9731C25.7632 30.0918 25.977 30.0325 26.2442 29.7355L26.832 29.201C26.7786 29.5574 26.8854 29.9137 27.1526 30.0325C27.1526 30.0325 27.0992 30.3888 27.1526 30.5076H29.1298V26.4692C29.1298 26.1129 29.2367 25.6971 29.3436 25.3408H26.4579ZM23.1448 32.1704L23.1982 32.2298C23.2517 32.2892 23.3051 32.2892 23.3585 32.2298L23.4654 32.1704C23.5189 32.111 23.9464 32.2892 23.9464 31.9329C23.9998 32.2298 23.6792 32.8237 23.8929 33.1206L24.1601 33.5957H23.3585C23.2517 33.5957 23.1982 33.6551 23.1982 33.7145L22.9845 34.1896C22.931 34.3084 22.931 34.4272 22.9845 34.5459L23.1448 34.7241C23.1448 34.7241 23.2517 34.6053 23.3051 34.4865L23.2517 34.4272C23.1982 34.3678 23.1982 34.3084 23.2517 34.249L23.3585 33.9521C23.412 33.8333 23.4654 33.8333 23.5723 33.8333L24.2135 34.0114C24.267 34.0114 24.3204 34.0708 24.3739 33.9521C24.4273 33.7739 24.5876 33.7739 24.7479 33.8333C25.122 33.8927 25.9236 34.0114 26.2442 33.5957C26.5648 34.1302 27.2595 34.1302 27.2061 34.3678L27.0457 35.2586H27.2595L27.3664 34.3678C27.3664 34.249 27.4198 34.1302 27.3129 34.0114C27.2595 33.9521 27.2595 33.9521 27.1526 33.7739C27.0457 33.5363 27.0457 33.18 26.9389 32.8831C27.0457 32.7643 27.1526 32.7049 27.2595 32.7049C27.4733 32.7643 27.5801 33.2394 27.9008 33.5957C27.8473 33.4176 27.8473 33.2394 27.7404 33.0612C27.7404 33.0612 27.9542 33.2394 28.0611 33.477C28.1145 33.6551 28.1145 33.7145 28.2748 33.7739C28.3283 33.8333 28.4351 33.7739 28.542 33.6551C28.542 33.6551 28.3283 33.2988 28.1679 33.0612C27.9542 32.7643 27.6336 32.408 27.2595 32.4674C27.1526 32.4674 26.9923 32.5267 26.8854 32.6455C26.4045 32.3486 26.0839 32.6455 25.9236 32.6455L25.0686 32.5861C24.9082 32.5861 24.7479 32.3486 24.7479 32.3486C24.7479 31.5172 24.1601 31.2202 23.9464 31.2202C23.9464 31.2202 23.9464 31.1014 23.8929 31.0421L23.7326 31.2796L23.2517 31.1014L23.6257 31.4578L23.1982 31.9923C23.1448 32.0516 23.1448 32.1704 23.1448 32.1704Z" fill="white"/>
<path d="M22.612 33.2982C22.5051 33.417 22.5051 33.5358 22.5585 33.714L22.612 33.8921L22.8257 33.714L22.7723 33.5952C22.7189 33.5358 22.7189 33.4764 22.7723 33.417L23.0395 33.1795C23.0929 33.1201 23.1464 33.1201 23.1998 33.1201L23.7876 33.2389C23.7876 33.2389 23.6807 33.1201 23.6807 32.9419L23.1464 32.8825C23.0929 32.8825 23.0395 32.8825 22.9326 32.9419L22.612 33.2982ZM26.2457 35.1987H26.4595L26.8336 34.2484C26.8336 34.1891 26.887 34.1891 26.887 34.1891C26.7267 34.1297 26.6198 34.0703 26.5129 34.0109C26.6198 34.1297 26.6732 34.1891 26.6198 34.3078L26.2457 35.1987ZM26.4595 22.3115L26.887 19.7578L25.3907 20.3517V23.0241L26.4595 22.3115ZM25.6045 20.5892L26.6198 20.1735L26.1923 20.5299C25.9786 20.708 25.6045 20.8862 25.6045 20.8862V20.5892ZM25.6045 21.1831L26.5129 20.8268C26.5129 20.8268 26.4061 20.9456 26.1923 21.1237C25.9786 21.3019 25.6045 21.4801 25.6045 21.4801V21.1831ZM25.6045 21.8364L26.4061 21.4801C26.4061 21.4801 26.4061 21.5988 26.1923 21.777C25.9786 21.9552 25.6045 22.1333 25.6045 22.1333V21.8364Z" fill="white"/>
<path d="M23.7341 24.5684L24.1081 24.6278V24.6872C24.1081 24.7465 24.1081 24.8059 24.1616 24.8653C24.215 25.0435 24.3219 25.2216 24.4822 25.3404C24.6425 25.5186 24.9097 25.6374 25.2838 25.6374C26.0319 25.6374 26.3525 25.1029 26.406 24.6872V24.6278H26.7266L26.78 24.5684C27.1006 24.0339 27.4213 23.4994 27.8488 23.3806L26.7266 22.668L25.2303 23.5588L23.8409 22.7274L22.7188 23.44C23.0928 23.4994 23.4134 24.0933 23.7341 24.5684Z" fill="white"/>
<path d="M25.0692 22.9649V20.2925L23.5729 19.6986L23.947 22.2523L25.0692 22.9649ZM24.8554 22.1335C24.8554 22.1335 24.4814 21.9553 24.2676 21.7772C24.0539 21.599 24.0539 21.4802 24.0539 21.4802L24.8554 21.8365V22.1335ZM24.8554 20.5894V20.827C24.8554 20.827 24.4814 20.6488 24.2676 20.4706L23.8401 20.1143L24.8554 20.5894ZM24.8554 21.1833V21.4802C24.8554 21.4802 24.4814 21.3021 24.2676 21.1239C24.0539 20.9457 23.947 20.827 23.947 20.827L24.8554 21.1833ZM25.2295 18.6296C24.3745 18.6296 23.7332 18.9265 23.5729 19.3423L25.2295 20.0549L26.8861 19.3423C26.7258 18.9265 26.0845 18.6296 25.2295 18.6296ZM25.2295 17.5606C25.8708 17.5606 26.512 17.7982 26.9395 18.0357C26.9929 17.7982 27.0998 17.62 27.2067 17.3825L26.8326 17.4418L26.512 16.6698L25.9242 17.0261L25.2295 16.3135L24.5883 17.0261L24.0004 16.6698L23.6264 17.4418L23.2523 17.3825C23.3592 17.62 23.4126 17.7982 23.5195 18.0357C23.947 17.7982 24.5883 17.5606 25.2295 17.5606ZM36.0774 23.3806C36.2911 23.3212 36.4514 23.2619 36.6652 23.0837C36.1842 22.9649 35.2758 22.5492 34.4208 22.7274C34.1536 22.7868 33.9933 22.9055 34.1002 22.9649C34.5277 23.2619 35.062 24.0339 35.4895 24.9247C35.8102 24.4496 35.7033 23.7963 35.5964 23.6182C36.2911 24.0933 36.4514 24.3308 36.7721 24.2121C36.6117 23.9151 36.398 23.6776 36.0774 23.3806ZM14.916 24.9247C15.2901 24.0339 15.8245 23.3212 16.3054 22.9649C16.4123 22.9055 16.252 22.7868 15.9848 22.7274C15.1832 22.5492 14.2213 22.9649 13.7404 23.0837C13.9541 23.2619 14.1145 23.3212 14.3282 23.3806C14.0076 23.6776 13.7404 23.9745 13.5801 24.2121C13.9007 24.2714 14.061 24.0933 14.7557 23.6182C14.7023 23.7963 14.5954 24.4496 14.916 24.9247Z" fill="white"/>
<path d="M19.6734 33.0012C19.994 32.7043 20.2612 32.5855 20.2612 31.9323C19.7803 32.2292 18.4443 32.1698 17.8565 31.3384C17.6962 31.1008 17.8565 30.9821 18.0168 31.1602C18.3909 31.6353 19.139 31.3978 19.3528 31.279C19.2993 31.1008 19.1924 30.9227 19.0856 30.8039C19.1924 30.6851 19.4596 30.5663 19.5131 30.2694C19.3528 30.21 18.8184 30.0912 18.8184 30.0912C18.9253 29.9725 19.0321 29.8537 18.9787 29.4974C18.3909 29.6755 17.6962 29.438 17.4824 29.2004C17.3221 28.9629 17.4824 28.7253 17.6428 28.9035C17.9099 29.2598 19.3528 29.6161 19.8871 29.0223C19.6734 28.9629 19.4596 28.7847 19.4062 28.6659C19.8871 28.6065 20.3146 28.3096 20.3146 27.8939C20.0475 27.8939 19.5131 27.8939 19.3528 27.7157C19.5665 27.5969 19.7268 27.5376 19.8337 27.2406C18.9253 27.1812 18.8718 26.4092 18.8718 26.2904C19.4596 26.6467 20.475 26.528 20.2078 25.5778C19.7268 25.5778 19.2459 24.6869 20.5818 23.8555C21.8109 23.1429 23.2003 22.3114 23.0934 21.0049C23.04 20.1735 21.7575 19.5796 21.5971 19.1639C21.0628 19.4608 20.9559 19.7578 21.2231 20.2922C21.2231 20.2922 20.0475 20.411 19.994 19.639C19.9406 19.2826 20.1543 18.9263 20.4215 18.6888C20.3146 18.6888 19.4062 18.4512 19.139 19.2233C18.6581 18.8669 18.2306 18.8669 17.9099 19.2826C18.4443 19.639 18.7649 20.8267 19.6199 21.1831C18.9787 21.5394 18.0168 21.4206 17.429 20.2329C16.8946 21.1237 16.574 22.0739 17.7496 23.0241C15.6121 24.0931 15.6121 26.1716 13.7418 27.1812C13.9555 27.7157 14.3296 27.7157 14.864 27.6563C14.0624 28.8441 14.7571 30.0319 13.4746 30.507C13.5815 30.9821 13.8487 31.3384 14.3296 31.2196C14.1693 31.4572 14.1159 31.4572 13.9021 31.6947C14.5968 32.1698 15.4518 31.8135 15.6121 30.2694C15.6656 29.9725 15.9862 30.1506 15.8793 30.4476C15.0777 32.2886 17.1084 33.6545 16.3602 34.961C17.0015 34.961 17.4824 34.9017 17.7496 34.6641C17.8565 34.961 17.9634 35.1986 17.9099 35.4955C18.2306 35.4361 18.3909 35.1986 18.3909 34.9017C18.6046 35.6143 19.4062 36.4457 20.7421 36.4457C19.994 35.3768 20.6353 34.2484 19.6734 33.0012ZM18.3909 34.3672L18.1237 34.9017C18.0168 34.5453 17.8565 34.189 17.7496 33.9514C17.5359 34.4859 17.1618 34.4859 16.8412 34.4859C16.8946 33.2388 15.5587 32.051 16.1465 30.6257C16.2534 30.3288 16.1999 30.0319 15.9327 29.8537C15.0243 29.3192 15.4518 31.5165 14.4899 31.5759C14.6502 31.3384 14.7571 30.8039 14.7571 30.7445C14.5434 30.8039 14.0624 31.1602 13.9021 30.6851C14.4365 30.3288 14.5968 29.8537 14.7037 29.3786C14.8106 28.7253 14.864 28.4878 14.9709 28.1908C15.0243 27.9533 15.1846 27.7157 15.6121 27.1218C15.5052 27.1218 14.4899 27.3594 14.2227 27.2406C16.0396 25.9935 15.6121 24.4494 18.3909 23.0241C17.6962 22.4302 16.9481 21.9551 17.4824 20.8267C18.2306 21.8363 19.6734 21.48 20.4215 21.0049C19.6734 20.8267 18.6581 20.1141 18.4443 19.2826C18.7115 19.2233 19.0856 19.5796 19.2993 19.7578C19.4062 19.4608 19.4596 19.1045 19.7803 19.0451C19.3528 20.1141 20.2078 20.6486 21.0628 20.6486C21.1696 20.6486 21.7575 20.5892 21.7575 20.5892C21.6506 20.411 21.33 19.8171 21.5971 19.639C21.8109 19.8765 22.0246 20.0547 22.2918 20.2329C23.9484 21.6582 21.4903 22.9647 20.5284 23.5586C18.9787 24.5088 19.4062 25.5778 20.0475 25.8747C20.0475 25.9935 19.994 26.0529 19.8871 26.1123C19.4596 26.2904 19.0321 25.9341 18.6581 25.6965C18.6581 26.4092 18.6581 27.0625 19.3528 27.4188L18.8718 27.5969C19.2993 27.9533 19.4062 28.1314 19.8871 28.1908C19.6734 28.3096 19.3528 28.3096 19.139 28.3096C19.1924 28.4878 19.2459 28.7847 19.4062 28.9629C18.3909 29.0816 18.0168 28.4284 17.6962 28.4878C17.0549 28.5472 17.0549 29.9131 18.7115 29.9131L18.5512 30.21C18.5512 30.21 18.8718 30.3882 19.139 30.4476L18.8184 30.8039L19.0856 31.0414C18.3909 31.1602 18.2306 30.3882 17.8031 30.7445C17.1618 31.3384 18.6046 32.5855 19.994 32.348C19.8871 32.5261 19.5665 32.7637 19.4062 32.8825C20.5284 34.0702 19.994 35.1986 20.475 36.03C19.2993 36.03 18.5512 35.1986 18.3909 34.3672Z" fill="#1D1D1B"/>
<path d="M16.6257 29.9728C16.8395 30.2698 17.1601 30.2698 17.6945 30.2104C17.1066 30.151 16.786 29.9728 16.5723 29.4977C16.5188 29.2602 16.5188 29.0226 16.5188 28.7851C16.5188 28.0724 16.7326 27.241 17.1601 26.3502C17.1601 26.944 17.5876 27.8349 18.496 27.9536C17.6945 27.5379 17.2135 26.6471 17.4807 25.8157C17.641 25.5187 17.8548 25.2218 18.0685 24.8655C18.1754 24.6873 18.2823 24.5685 18.3892 24.4497C18.2823 24.8655 18.7632 25.3406 19.0838 25.3999C18.9235 25.2218 18.5495 24.5685 19.4045 23.5589C19.1373 23.6777 18.8701 23.8559 18.7098 24.034C20.2595 22.1336 21.5954 22.0742 22.1832 21.124C21.3282 21.7773 19.0304 22.1336 18.0151 21.8367C18.6029 22.2524 19.9388 22.193 20.2595 22.1336C19.1373 23.3214 16.7326 24.5685 16.3051 25.6969C16.8929 24.9842 17.267 24.8655 17.8013 24.6873C17.3738 25.3406 17.0532 25.9344 16.786 26.6471C16.1448 28.1912 15.2898 28.2506 15.2363 29.4977C15.5035 28.4881 16.1448 28.2506 16.5188 27.5973C16.4654 28.013 16.412 28.4881 16.412 29.0226C16.412 29.6165 16.5188 30.0916 16.6791 30.5667C16.6257 31.22 16.6791 32.2889 17.3204 33.0016C16.8929 32.3483 16.786 31.3387 16.8395 30.9824C17.3738 32.0514 18.8167 33.5955 19.5113 34.6051C18.7098 33.2985 16.9998 31.7544 16.6257 29.9728ZM32.7639 24.6873C33.2983 24.8655 33.6723 24.9842 34.2602 25.6969C33.8327 24.5685 31.428 23.3808 30.3058 22.1336C30.6264 22.193 32.0158 22.2524 32.5502 21.8367C31.5348 22.1336 29.237 21.7773 28.382 21.124C28.9698 22.0742 30.2523 22.1336 31.8555 24.034C31.6417 23.8559 31.3745 23.6777 31.1608 23.5589C32.0158 24.5685 31.6417 25.2218 31.4814 25.3999C31.802 25.3406 32.283 24.8655 32.1761 24.4497C32.283 24.5685 32.3898 24.7467 32.4967 24.8655C32.7105 25.1624 32.9242 25.5187 33.0845 25.8157C33.3517 26.7065 32.8708 27.5973 32.0692 27.9536C32.9777 27.7755 33.4052 26.8846 33.4052 26.3502C33.8327 27.241 34.0464 28.0724 34.0464 28.7851C34.0464 29.0226 33.993 29.2602 33.993 29.4977C33.7792 29.9134 33.4586 30.0916 32.8708 30.2104C33.4052 30.2698 33.7258 30.2104 33.9395 29.9728C33.5655 31.7544 31.8555 33.2985 31.1073 34.6051C31.802 33.5955 33.2448 32.0514 33.7792 30.9824C33.8327 31.3981 33.7258 32.4077 33.2983 33.0016C33.9395 32.2889 33.993 31.22 33.9395 30.5667C34.0999 30.0916 34.2067 29.6165 34.2067 29.0226C34.2067 28.4881 34.2067 28.013 34.0998 27.5973C34.5274 28.2506 35.1152 28.4881 35.3824 29.4977C35.3289 28.1912 34.4739 28.1912 33.8327 26.6471C33.512 25.9938 33.138 25.3999 32.7639 24.6873Z" fill="#1D1D1B"/>
<path d="M35.5431 27.5977C36.024 27.6571 36.4515 27.6571 36.6653 27.1226C34.795 26.113 34.795 24.0939 32.6574 22.9655C33.8331 22.0153 33.5124 21.0651 32.9781 20.1743C32.3903 21.3026 31.3749 21.4808 30.7871 21.1245C31.6421 20.7681 31.9628 19.5804 32.4971 19.2241C32.1765 18.8083 31.749 18.8083 31.2681 19.1647C31.0009 18.3926 30.1459 18.6302 29.9856 18.6302C30.1993 18.8677 30.4131 19.2241 30.4131 19.5804C30.3062 20.3524 29.184 20.2336 29.184 20.2336C29.3977 19.6992 29.2909 19.4022 28.8099 19.1053C28.6496 19.521 27.4205 20.1149 27.3137 20.9463C27.2068 22.2528 28.5962 23.0249 29.8252 23.7969C31.1612 24.6284 30.6802 25.4598 30.1993 25.5192C29.9321 26.4694 30.9474 26.5881 31.5353 26.2318C31.5353 26.3506 31.4818 27.1226 30.5734 27.182C30.6268 27.479 30.7871 27.5977 31.0543 27.6571C30.894 27.7759 30.3596 27.8353 30.0924 27.8353C30.1459 28.251 30.5199 28.5479 31.0009 28.6073C30.9474 28.7261 30.7337 28.9043 30.5199 28.9637C31.0543 29.5575 32.4971 29.1418 32.7643 28.8449C32.9246 28.6667 33.0849 28.9043 32.9246 29.1418C32.7643 29.3794 32.0162 29.6763 31.4284 29.4388C31.3749 29.7951 31.4818 29.9139 31.5887 30.0326C31.5887 30.0326 31.0009 30.092 30.894 30.2108C30.9474 30.5077 31.2146 30.6265 31.3215 30.7453C31.2146 30.8641 31.1077 31.0422 31.0543 31.2204C31.3215 31.3392 32.0162 31.5767 32.3903 31.1016C32.5506 30.9235 32.7109 31.0422 32.5506 31.2798C31.9628 32.1706 30.6268 32.1706 30.1459 31.8737C30.1459 32.5269 30.4131 32.7051 30.7337 32.9426C29.7718 34.1898 30.4131 35.3182 29.7184 36.3871C31.0009 36.3871 31.8024 35.6151 32.0696 34.8431C32.0696 35.0806 32.2299 35.3182 32.5506 35.4369C32.5506 35.14 32.604 34.9024 32.7109 34.6055C32.9781 34.8431 33.459 34.9024 34.1003 34.9024C33.4056 33.5365 35.3828 32.1706 34.5812 30.389C34.4743 30.092 34.795 29.9139 34.8484 30.2108C35.0087 31.7549 35.8637 32.1112 36.5584 31.6361C36.3446 31.3986 36.2378 31.3986 36.1309 31.161C36.6118 31.2798 36.8256 30.9235 36.9859 30.4484C35.7034 30.0326 36.3446 28.7855 35.5431 27.5977ZM35.65 30.7453C35.65 30.8047 35.7568 31.2798 35.9171 31.5767C35.0087 31.5173 35.4362 29.32 34.4743 29.8545C34.2071 29.9733 34.1537 30.3296 34.2606 30.6265C34.8484 31.9924 33.459 33.2396 33.5659 34.4867C33.2453 34.4867 32.8712 34.4867 32.6574 33.9522C32.5506 34.1898 32.3368 34.5461 32.2834 34.9024L32.0162 34.368C31.8559 35.2588 31.1078 36.0308 30.1459 36.0902C30.6268 35.2588 30.039 34.1304 31.2146 32.9426C31.0543 32.8239 30.7337 32.5863 30.6268 32.4082C32.0162 32.5863 33.5124 31.3392 32.8178 30.8047C32.3903 30.4484 32.1765 31.2204 31.5353 31.1016L31.8024 30.8641L31.4818 30.5077C31.749 30.4484 32.0696 30.2702 32.0696 30.2702L31.9093 29.9733C33.5659 29.9733 33.5659 28.6073 32.9246 28.5479C32.604 28.5479 32.2299 29.1418 31.2146 29.0231C31.3215 28.8449 31.3749 28.6073 31.4818 28.3698C31.2146 28.3698 30.9474 28.3698 30.7337 28.251C31.2146 28.1916 31.3749 28.0135 31.749 27.6571L31.2146 27.3602C31.9093 27.0039 31.8559 26.2912 31.9093 25.6379C31.5353 25.8755 31.1078 26.2318 30.6802 26.0537C30.5734 25.9943 30.5199 25.9349 30.5199 25.8161C31.1612 25.5192 31.5887 24.4502 30.039 23.5C29.0771 22.9061 26.619 21.5996 28.2756 20.1743C28.4893 19.9961 28.7565 19.8179 28.9702 19.5804C29.2374 19.8179 28.8634 20.3524 28.8099 20.5306C28.8099 20.5306 29.3443 20.59 29.5046 20.59C30.3596 20.59 31.2146 20.0555 30.7871 18.9865C31.1077 19.0459 31.1612 19.4022 31.2681 19.7585C31.4818 19.5804 31.8559 19.2241 32.1231 19.2834C31.9093 20.1149 30.894 20.8869 30.1459 21.0057C30.894 21.4808 32.3368 21.8371 33.0849 20.8275C33.6193 21.9559 32.8712 22.431 32.1765 23.0249C34.9018 24.3908 34.5278 25.9943 36.3446 27.2414C36.1309 27.3602 35.0621 27.1226 34.9553 27.1226C35.3293 27.7165 35.5431 27.9541 35.65 28.1916C35.7568 28.4292 35.8103 28.7261 35.9171 29.3794C36.024 29.8545 36.1843 30.389 36.7187 30.6859C36.3446 31.1016 35.8637 30.8047 35.65 30.7453ZM22.5577 34.1304L22.9318 33.7741L22.8783 33.6553C22.8249 33.5365 22.8783 33.5365 22.8783 33.5365L23.0921 33.3584C23.1455 33.299 23.199 33.299 23.2524 33.3584L23.8937 33.5365H23.2524C23.0921 33.5365 23.0387 33.5959 22.9852 33.7147L22.9318 33.8335L22.7715 34.1898C22.718 34.3086 22.6646 34.4867 22.8249 34.7243L22.9318 34.9024L22.6646 35.4369H22.8783L23.0387 35.0806C23.0387 35.0806 23.3058 34.8431 23.3593 34.5461C23.3058 34.4867 23.2524 34.4273 23.2524 34.368L23.3058 34.1898C23.3058 34.1304 23.3593 34.1304 23.4127 34.1304L24.054 34.3086C24.1608 34.3086 24.2677 34.368 24.3212 34.2492C24.428 34.071 24.428 34.1304 24.6418 34.1304L24.9624 34.1898C25.4434 34.2492 25.8709 34.1304 26.0312 33.9522C26.0846 34.1304 26.1915 34.2492 26.2984 34.368C26.2984 34.4273 26.2984 34.4867 26.2449 34.5461L25.8709 35.5557H26.4587L26.7793 34.6649C26.8327 34.6055 26.8327 34.4867 26.8862 34.4867L26.8327 35.3775H27.3671L27.5274 34.3086C27.5809 34.071 27.5274 34.0116 27.4205 33.8929C27.2068 33.6553 27.2068 33.2396 27.0999 32.9426C27.1534 32.9426 27.2068 32.8833 27.2602 32.8833C27.3671 32.8833 27.474 33.2396 27.6343 33.4771C27.9015 33.9522 28.329 34.4273 28.7565 33.7147C28.7031 33.6553 28.6496 33.5365 28.5962 33.4771L28.4893 33.299C28.4359 33.1802 28.0618 32.7645 27.9015 32.5863C27.5809 32.23 27.0465 32.2894 26.8862 32.4675C26.4052 32.23 25.9777 32.4675 25.8174 32.4675L25.0158 32.4082C24.9624 32.4082 24.909 32.4082 24.909 32.3488L25.0693 32.2894C24.909 31.6361 24.5883 31.161 24.0005 31.0422C24.0005 31.0422 23.9471 30.8641 23.8937 30.8047L23.7333 31.0422C23.6799 31.0422 23.6265 31.0422 23.573 31.1016L22.8249 30.8047L23.4127 31.458C23.4127 31.458 23.0921 31.9331 23.0387 31.9924C22.9852 32.0518 22.9852 32.1706 23.0387 32.23L23.1455 32.4082C23.199 32.4675 23.2524 32.4675 23.3593 32.4082L23.4662 32.3488C23.5196 32.2894 23.6799 32.4082 23.7868 32.2894C23.7333 32.4675 23.7333 32.6457 23.6799 32.7645L23.1455 32.7051C23.0387 32.7051 22.9852 32.7051 22.9318 32.7645L22.5043 33.1208C22.344 33.2396 22.2905 33.4771 22.3974 33.6553L22.5577 34.1304ZM26.8327 34.2492L26.4587 35.1994H26.2449L26.619 34.2492C26.6724 34.1304 26.5655 34.071 26.5121 33.9522C26.619 34.0116 26.7259 34.071 26.8862 34.1304C26.8327 34.1898 26.8327 34.2492 26.8327 34.2492ZM23.4662 32.1706L23.3593 32.23C23.3058 32.2894 23.2524 32.2894 23.199 32.23L23.1455 32.1706C23.1455 32.1706 23.0921 32.0518 23.1455 31.9924L23.573 31.458L23.199 31.1016L23.6799 31.2798L23.8402 31.0422C23.8937 31.1016 23.8937 31.2204 23.8937 31.2204C24.1074 31.2204 24.6952 31.5173 24.6952 32.3488C24.6952 32.3488 24.8555 32.5863 25.0158 32.5863L25.8709 32.6457C26.0312 32.6457 26.3518 32.3488 26.8327 32.6457C26.9396 32.5863 27.0999 32.5269 27.2068 32.4675C27.6343 32.4082 27.9015 32.7645 28.1152 33.0614C28.2756 33.299 28.4893 33.6553 28.4893 33.6553C28.3824 33.7741 28.2756 33.8335 28.2221 33.7741C28.1152 33.7147 28.0618 33.5959 28.0084 33.4771C27.9549 33.2396 27.6877 33.0614 27.6877 33.0614L27.848 33.5959C27.5274 33.2396 27.4205 32.7645 27.2068 32.7051C27.0999 32.7051 26.993 32.7051 26.8862 32.8833C26.993 33.1802 26.993 33.5365 27.0999 33.7741C27.2068 33.9522 27.2068 33.9522 27.2602 34.0116C27.3671 34.071 27.3137 34.2492 27.3137 34.368L27.2068 35.2588H26.993L27.1534 34.368C27.2068 34.071 26.5121 34.071 26.1915 33.5959C25.8709 33.9522 25.0693 33.8929 24.6952 33.8335C24.5349 33.8335 24.428 33.8335 24.3212 33.9522C24.2677 34.0116 24.2143 34.0116 24.1608 34.0116L23.5196 33.8335C23.4127 33.8335 23.3593 33.8335 23.3058 33.9522L23.199 34.2492C23.1455 34.3086 23.1455 34.368 23.199 34.4273L23.2524 34.4867C23.199 34.6055 23.0921 34.7243 23.0921 34.7243L22.9318 34.5461C22.8783 34.4273 22.8783 34.3086 22.9318 34.1898L23.1455 33.7147C23.1455 33.6553 23.199 33.5959 23.3058 33.5959H24.1074L23.8402 33.1208C23.6799 32.7645 23.9471 32.1706 23.8937 31.9331C23.9471 32.2894 23.5196 32.1706 23.4662 32.1706ZM22.6112 33.299L22.9852 33.002C23.0387 32.9426 23.0921 32.8833 23.199 32.9426L23.7333 33.002C23.7868 33.1208 23.8402 33.299 23.8402 33.299L23.2524 33.1802C23.1455 33.1802 23.1455 33.1802 23.0921 33.2396L22.8249 33.4771C22.7715 33.5365 22.7715 33.5959 22.8249 33.6553L22.8783 33.7741L22.6112 33.8929L22.5577 33.7147C22.4508 33.5959 22.4508 33.4178 22.6112 33.299ZM24.2677 21.7777C24.4815 21.9559 24.8555 22.1341 24.8555 22.1341V21.8371L24.054 21.4808C24.0005 21.5402 24.0005 21.659 24.2677 21.7777ZM24.8555 21.4808V21.1839L23.8937 20.8275C23.8937 20.8275 24.0005 20.9463 24.2143 21.1245C24.4815 21.3026 24.8555 21.4808 24.8555 21.4808ZM24.8555 20.8275V20.5306L23.8402 20.1149L24.2677 20.4712C24.4815 20.7088 24.8555 20.8275 24.8555 20.8275Z" fill="#1D1D1B"/>
<path d="M27.6882 24.5685H28.7035C28.65 24.3904 28.4897 24.2122 28.2225 24.2122C27.9019 24.2716 27.7416 24.4498 27.6882 24.5685ZM26.566 20.1738L25.5506 20.5895V20.8271C25.5506 20.8271 25.9247 20.6489 26.1385 20.4708C26.4056 20.352 26.566 20.1738 26.566 20.1738ZM26.4056 21.5397L25.6041 21.8961V22.193C25.6041 22.193 25.9781 22.0149 26.1919 21.8367C26.4056 21.6585 26.4056 21.5397 26.4056 21.5397ZM26.5125 20.8271L25.6041 21.1834V21.4804C25.6041 21.4804 25.9781 21.3022 26.1919 21.124C26.4056 20.9459 26.5125 20.8271 26.5125 20.8271ZM22.1841 24.2716C21.8634 24.2716 21.7031 24.4498 21.7031 24.6279H22.7184C22.665 24.4498 22.5047 24.2716 22.1841 24.2716Z" fill="#1D1D1B"/>
<path d="M27.2607 19.461C27.2607 18.8077 26.2988 18.2139 25.1766 18.2139C24.1078 18.2139 23.0925 18.8077 23.0925 19.461V19.6392L23.52 22.371L21.4894 23.6775C21.2756 23.7963 21.0084 24.212 20.955 24.6278H21.3291C21.3825 24.212 21.6497 23.7963 22.1841 23.8557C22.665 23.8557 22.9322 24.212 23.1994 24.6278L23.2528 24.7465L23.3597 24.9247H20.3672C20.5809 25.3998 20.7947 25.9343 20.7947 26.5282V33.4765C20.7947 35.2582 22.0238 36.0896 23.3597 36.0896C24.375 36.0896 24.5353 36.0302 25.1231 36.6835C25.711 36.0302 25.8178 36.0896 26.8866 36.0896C28.2225 36.0896 29.4516 35.2582 29.4516 33.4765V26.4688C29.4516 25.8749 29.6654 25.3998 29.8791 24.8653H26.8866L26.9935 24.6871L27.0469 24.5684C27.3141 24.0933 27.5813 23.7963 28.0622 23.7963C28.5966 23.7963 28.8638 24.212 28.9172 24.5684H29.2913C29.2379 24.1527 28.9707 23.7963 28.7569 23.6182L26.8332 22.3116L27.2607 19.5798V19.461ZM23.5735 19.758L25.0697 20.3518V23.0243L23.9475 22.371L23.5735 19.758ZM23.9475 25.3404C24.1613 25.6373 24.4819 25.8749 24.856 25.9343C24.9094 26.1125 24.9628 26.2906 25.1231 26.4094C25.0697 26.8845 25.23 27.3002 25.711 27.419C25.7644 27.6565 25.8713 27.8347 26.1385 27.9535L25.7644 28.4286C25.6575 28.6067 25.4972 28.6067 25.3369 28.6067L23.8941 28.4286C23.9475 28.2504 23.7872 28.0723 23.3597 28.1316L23.8941 26.4094L23.6269 25.578L22.9856 26.1718L22.9322 28.0129L22.665 27.8347C22.2909 27.6565 22.1841 28.3692 22.5581 28.3692H22.7184C22.7184 28.4286 22.7184 28.5474 22.7719 28.5474C22.7184 28.6067 22.665 28.7255 22.7719 28.7849C22.665 28.8443 22.665 28.9631 22.7184 29.0225C22.665 29.1412 22.6116 29.4382 22.8788 29.4976C23.0925 29.5569 23.1994 29.3194 23.2528 29.2006L25.4438 29.9727C25.7644 30.0914 25.9781 30.0321 26.2453 29.7351L26.8332 29.2006C26.7797 29.5569 26.8866 29.9133 27.1538 30.0321C27.1538 30.0321 27.1003 30.3884 27.1538 30.5072H21.3291V26.4688C21.3291 26.1125 21.2222 25.6967 21.1153 25.3404H23.9475ZM26.2988 26.8845C26.1919 27.122 26.1919 27.419 26.3522 27.7159L26.2453 27.8347C25.8178 27.7753 25.6575 27.0627 25.6575 27.0627V27.2408C25.3903 27.122 25.2835 26.8845 25.2835 26.5876C25.3903 26.6469 25.4972 26.7063 25.6041 26.7063L25.6575 26.5282C25.3903 26.4688 25.1766 26.2906 25.1231 26.0531H25.0697H25.23C25.3903 26.0531 25.5506 26.0531 25.711 25.9937C25.8178 26.1718 26.0316 26.35 26.2453 26.35C26.1919 26.4688 26.2453 26.6469 26.2988 26.8845ZM26.94 28.7255C26.8866 28.7849 26.8866 28.8443 26.8332 28.9631L26.6194 29.1412C26.6728 28.7849 26.4591 28.3098 26.2453 28.1316L26.5125 27.8347L26.566 27.8941C26.4057 28.191 26.566 28.6661 26.94 28.7255ZM25.8178 28.6067L26.0316 28.4286C26.2453 28.6067 26.4591 29.0225 26.4057 29.4382L26.1919 29.6757C26.1385 29.7351 26.085 29.7351 26.085 29.7945C26.1385 29.3788 25.9781 28.8443 25.8178 28.6067ZM25.3903 28.7849C25.4438 28.7849 25.5506 28.7849 25.6041 28.7255C25.7644 28.9631 25.8713 29.4976 25.711 29.7945C25.6041 29.7945 25.4972 29.7945 25.4438 29.7351H25.3903C25.4972 29.4976 25.4972 29.0818 25.3903 28.7849ZM24.9094 28.7255L25.1766 28.7849C25.23 29.0225 25.1766 29.4382 25.0697 29.7351L24.7491 29.6163C24.9094 29.3788 24.9628 28.9631 24.9094 28.7255ZM24.375 28.6661L24.6956 28.7255C24.7491 28.9037 24.6422 29.3194 24.5353 29.5569L24.2147 29.4382C24.3216 29.2006 24.375 28.8443 24.375 28.6661ZM23.0391 28.5474C22.8788 28.6067 22.8253 28.488 22.8253 28.3692C23.1459 28.2504 23.2528 28.3098 23.3597 28.3692C23.4131 28.4286 23.52 28.6067 23.6269 28.6661C23.6269 28.7849 23.5735 29.0225 23.52 29.1412C23.1994 29.0818 23.1994 28.7849 23.3063 28.5474C23.2528 28.488 23.1459 28.488 23.0391 28.5474ZM22.8253 29.2006C22.8253 29.2006 22.9322 29.26 23.0391 29.26C23.0391 29.3194 22.9856 29.3788 22.8788 29.3788C22.8253 29.3788 22.8253 29.26 22.8253 29.2006ZM22.5581 28.2504C22.5047 28.191 22.5047 28.0723 22.6116 28.0723C22.7184 28.0723 22.8253 28.191 22.9322 28.2504H22.5581ZM22.8253 28.9631C22.8788 29.0225 23.0925 29.0225 23.0925 29.0225V29.0818C23.0391 29.1412 22.7719 29.0818 22.8253 28.9631ZM23.0925 28.7849C22.9322 28.8443 22.8253 28.7849 22.8253 28.6661C22.8788 28.7255 23.0925 28.7255 23.0925 28.7255V28.7849ZM23.3063 26.9439L23.0391 28.0129L23.1459 26.2312L23.5735 25.8155L23.7872 26.35L23.2528 28.0723L23.4131 26.9439C23.3597 26.8845 23.3063 26.8845 23.3063 26.9439ZM23.3597 28.3098H23.7338C23.7872 28.3098 23.7338 28.4286 23.6803 28.4286C23.5735 28.4286 23.3597 28.3098 23.3597 28.3098ZM23.7872 28.5474L24.1078 28.6067C24.1078 28.7849 24.1078 29.1412 23.9475 29.3194L23.6269 29.2006C23.7338 29.0225 23.7872 28.7849 23.7872 28.5474ZM29.0775 33.4172C29.0775 34.2486 28.7035 34.9019 28.1691 35.2582L28.3828 34.7831H28.1691L27.9019 35.377C27.6347 35.4957 27.3141 35.5551 26.94 35.5551C25.8713 35.5551 25.6041 35.6145 25.1766 36.0302C24.8025 35.6145 24.4819 35.5551 23.4131 35.5551C23.0925 35.5551 22.7719 35.4957 22.4513 35.377L22.7184 34.7831H22.5047L22.2909 35.3176C22.2375 35.3176 22.1841 35.2582 22.1306 35.1988L22.3444 34.7831H22.1306L22.0772 35.08C21.5963 34.7237 21.3291 34.1298 21.3291 33.4172V30.7447H29.0775V33.4172ZM29.2913 25.3404C29.1844 25.6967 29.0775 26.0531 29.0775 26.4688V30.5072H28.65C28.4363 30.329 28.276 29.6163 28.276 29.6163C28.1691 29.8539 28.276 30.3884 28.3828 30.5072H27.8485C27.6882 30.329 27.5813 29.5569 27.5813 29.5569C27.421 29.7351 27.5278 30.329 27.6347 30.5072H27.2607C27.2607 30.2102 27.3141 29.9133 27.3141 29.9133C27.1003 29.8539 26.94 29.7351 26.94 29.5569C27.0469 29.6757 27.1003 29.6757 27.2072 29.6757L27.3675 29.5569C26.8332 29.5569 26.8332 28.9631 27.2607 28.6661C26.8332 28.6661 26.566 28.4286 26.7263 27.9535C26.4591 27.7753 26.3522 27.2408 26.566 27.0033C26.4057 26.8251 26.4057 26.4688 26.4591 26.2312C26.2453 26.2312 26.0316 26.1125 25.8713 25.9937H25.8178C26.085 25.8749 26.2988 25.6967 26.4591 25.4592H29.2913V25.3404ZM27.7416 23.44C27.3141 23.4994 26.94 24.0933 26.6728 24.6278L26.6194 24.6871H26.2988V24.7465C26.2453 25.1622 25.9247 25.6967 25.1766 25.6967C24.856 25.6967 24.5888 25.578 24.375 25.3998C24.2147 25.281 24.1078 25.1029 24.0544 24.9247C24.0544 24.8653 24.001 24.8059 24.001 24.7465V24.6871H23.6803L23.6269 24.6278C23.3063 24.0933 22.9856 23.5588 22.5581 23.44L23.6803 22.7273L25.0697 23.5588L26.4591 22.7273L27.7416 23.44ZM26.4591 22.3116L25.3369 22.9649V20.2924L26.8866 19.6986L26.4591 22.3116ZM25.23 20.0549L23.5735 19.3422C23.7338 18.9859 24.375 18.6296 25.23 18.6296C26.085 18.6296 26.7263 18.9265 26.8866 19.3422L25.23 20.0549Z" fill="#1D1D1B"/>
<path d="M28.9168 27.9534V27.7752C28.3824 27.7752 28.2221 27.0032 28.2221 27.0032C28.0618 27.5971 28.4893 27.9534 28.9168 27.9534ZM28.2221 29.2005L28.1687 29.0224C27.6878 29.1411 27.4206 28.3097 27.4206 28.3097C27.2603 28.963 27.7946 29.3787 28.2221 29.2005ZM28.5428 28.4285C27.9549 28.5473 27.7412 27.7752 27.7412 27.7752C27.6878 28.1909 27.9015 28.6066 28.2756 28.6066C28.1687 29.1411 28.6496 29.3787 29.0237 29.2005L28.9703 29.0817C28.5962 29.2005 28.329 28.8442 28.5428 28.4285ZM28.1687 26.3499V26.1717C27.4206 25.9936 27.474 25.3997 27.474 25.3997C27.3671 25.9342 27.7946 26.3499 28.1687 26.3499ZM23.3593 35.3769L23.6265 34.783H23.4127L23.1455 35.3769H23.3593ZM23.7334 35.3769L24.0006 34.783H23.8402L23.5731 35.3769H23.7334ZM25.3899 35.3769L25.6571 34.783H25.4434L25.1762 35.3769H25.3899ZM25.8174 35.3769L26.0846 34.783H25.8709L25.6037 35.3769H25.8174ZM24.9624 35.3769L25.2296 34.783H25.0693L24.8021 35.3769H24.9624ZM27.9015 34.783H27.6878L27.4206 35.3769H27.6343L27.9015 34.783ZM24.1609 35.3769L24.4281 34.783H24.2143L23.9471 35.3769H24.1609ZM24.5884 35.3769L24.8556 34.783H24.6418L24.3746 35.3769H24.5884ZM23.7334 31.5166C23.6799 31.5166 23.6265 31.5166 23.6265 31.576C23.6265 31.6354 23.6799 31.6948 23.6799 31.6948C23.7334 31.6948 23.7334 31.6354 23.7334 31.576C23.7868 31.5166 23.7334 31.5166 23.7334 31.5166ZM25.2296 17.7981C26.0846 17.7981 26.7259 18.095 27.0999 18.4513C27.0999 18.4513 27.2068 17.7387 27.5809 17.0854L26.8862 17.1448L26.5121 16.3134L25.8709 16.6697L25.2296 15.957L24.5349 16.6697L23.8402 16.254L23.4662 17.0854L22.7715 17.026C23.1455 17.6793 23.2524 18.3919 23.2524 18.3919C23.6799 18.095 24.3746 17.7981 25.2296 17.7981ZM23.6265 17.4417L23.9471 16.6697L24.5349 17.026L25.2296 16.3134L25.8709 17.026L26.4587 16.6697L26.7793 17.4417L27.1534 17.3823C27.0465 17.6199 26.9931 17.7981 26.8862 18.0356C26.4587 17.7387 25.8174 17.5605 25.1762 17.5605C24.5349 17.5605 23.8937 17.7981 23.4662 18.0356C23.4127 17.7981 23.3059 17.6199 23.199 17.3823L23.6265 17.4417Z" fill="#1D1D1B"/>
<path d="M25.8721 16.3136C25.979 16.3136 26.0324 16.2542 26.0859 16.1354C26.0859 16.0167 25.979 15.7197 25.979 15.7197C25.979 15.7197 25.7652 15.9573 25.7118 16.0761C25.7118 16.1948 25.8187 16.3136 25.8721 16.3136ZM26.9943 16.7293C27.1012 16.7887 27.2081 16.7293 27.2081 16.6699C27.2615 16.5512 27.2081 16.2542 27.2081 16.2542C27.2081 16.2542 26.9409 16.373 26.8874 16.4918C26.8874 16.5512 26.8874 16.6699 26.9943 16.7293ZM24.5362 16.3136C24.6431 16.3136 24.6965 16.1948 24.6965 16.0761C24.6965 15.9573 24.4827 15.7197 24.4827 15.7197C24.4827 15.7197 24.3224 16.0167 24.3759 16.1354C24.3224 16.2542 24.4293 16.3136 24.5362 16.3136ZM23.414 16.7293C23.5209 16.6699 23.5209 16.5512 23.4674 16.4324C23.414 16.3136 23.1468 16.1948 23.1468 16.1948C23.1468 16.1948 23.0934 16.5512 23.1468 16.6105C23.2002 16.7887 23.3071 16.7887 23.414 16.7293ZM36.6665 23.4995C36.8803 23.3808 37.094 23.1432 37.1475 22.9057C36.5597 22.7869 34.9565 22.0742 33.674 22.6681C34.155 22.1336 34.5825 22.0742 34.6359 21.3616C34.8497 21.5397 35.1703 21.5991 35.384 21.2428C35.2237 20.8271 34.9031 21.1834 34.8497 21.0646C34.7962 20.8865 35.2772 21.124 35.384 20.5301C35.01 20.4114 34.9031 20.7083 34.7962 20.6489C34.7428 20.5895 35.0634 20.4114 34.7962 19.9363C34.3687 20.1738 34.5825 20.4708 34.529 20.5301C34.4222 20.5895 34.529 20.2332 34.0481 20.2332C33.9947 20.7677 34.4756 20.7677 34.3687 20.8865C34.2618 21.0052 34.155 20.5895 33.8343 20.7677C33.8343 21.1834 34.155 21.421 34.4756 21.3022C34.4222 22.1336 33.7275 21.9555 33.2465 22.9057C34.3153 23.4995 34.7962 24.5685 35.4375 25.2812C35.6512 25.103 36.0253 24.331 36.0253 24.331C36.72 24.9248 37.2009 24.331 37.2009 24.331C37.0406 24.0934 37.0406 23.8559 36.6665 23.4995ZM35.5978 23.6183C35.6512 23.7965 35.8115 24.4497 35.4909 24.9248C35.1169 24.034 34.5825 23.3214 34.1015 22.965C33.9947 22.9057 34.155 22.7869 34.4222 22.7275C35.2237 22.5493 36.1856 22.965 36.6665 23.0838C36.4528 23.262 36.2925 23.3214 36.0787 23.3808C36.3994 23.6777 36.6665 23.9746 36.8269 24.2122C36.5062 24.331 36.2925 24.0934 35.5978 23.6183ZM25.0171 37.8714H24.5362L24.4827 38.0496H24.5362C24.5362 38.0496 24.5362 37.9902 24.5896 37.9902H24.9637C24.8568 38.2277 24.5362 38.5247 24.5362 38.6434C24.5362 38.7622 24.6431 38.7622 24.6965 38.7622C24.8034 38.7622 24.8034 38.7028 24.8568 38.584C24.9102 38.3465 25.0171 38.1089 25.124 37.812L25.0171 37.8714ZM25.3377 38.2277V38.0496H25.7118V37.8714C25.6049 37.8714 25.4446 37.9308 25.2843 37.9308L25.2309 38.2871C25.3912 38.2871 25.5515 38.3465 25.5515 38.584C25.5515 38.6434 25.4981 38.8216 25.4446 38.8216H25.3912C25.3377 38.7622 25.3912 38.7622 25.3912 38.7028C25.3912 38.6434 25.3377 38.584 25.2843 38.6434C25.2309 38.6434 25.1774 38.7028 25.1774 38.7622C25.1774 38.881 25.3377 38.9404 25.4446 38.9404C25.6049 38.9404 25.8187 38.8216 25.8187 38.6434C25.7652 38.2871 25.4981 38.2277 25.3377 38.2277ZM26.1927 37.8714C26.0324 37.8714 25.9256 37.9902 25.9256 38.1683C25.9256 38.4059 26.1927 38.5247 26.3531 38.4059C26.3531 38.584 26.3531 38.7622 26.2462 38.7622C26.1927 38.7622 26.1927 38.7028 26.1927 38.7028C26.1927 38.6434 26.1393 38.584 26.0859 38.6434C26.0324 38.6434 26.0324 38.7028 26.0324 38.7622C26.0324 38.881 26.1927 38.881 26.2462 38.881C26.4599 38.881 26.5668 38.6434 26.5668 38.4653C26.5668 38.1089 26.4065 37.8714 26.1927 37.8714ZM26.2996 38.3465C26.1393 38.3465 26.1393 38.1089 26.1393 37.9902C26.1393 37.9308 26.1927 37.9308 26.1927 37.9308C26.2996 37.9308 26.3531 38.2871 26.3531 38.3465H26.2996ZM24.2156 37.812C24.2156 37.812 24.1087 37.9902 23.8949 38.1683V38.2277C23.8949 38.2277 23.9484 38.1683 24.0018 38.1683L23.8949 38.6434H23.7881V38.7028L24.2156 38.7622V38.7028H24.1621C24.1621 38.7028 24.1087 38.7028 24.1087 38.6434L24.2156 37.812Z" fill="#1D1D1B"/>
<path d="M28.8103 37.159V36.1494C28.1156 36.5057 27.2606 36.8027 26.1384 36.9214L26.085 37.2778C26.1919 37.2778 26.2987 37.2778 26.459 37.3372C26.0315 37.3966 25.4972 37.4559 25.23 37.4559C24.9094 37.4559 24.375 37.3966 24.0009 37.3372C24.1612 37.3372 24.2681 37.3372 24.375 37.2778L24.3215 36.9214C23.1993 36.8027 22.2909 36.5057 21.6496 36.1494V37.159L20.6878 37.5747C21.3825 37.9904 22.184 38.2874 23.0925 38.5843L22.9856 39C23.52 39.1782 24.375 39.3564 25.23 39.3564C26.1384 39.3564 26.94 39.1782 27.4744 39L27.3675 38.5843C28.2759 38.3468 29.0775 37.9904 29.7722 37.5747L28.8103 37.159ZM21.1687 37.6341L21.81 37.3372V36.5057C22.2375 36.6839 22.7718 36.8621 23.52 37.0402L23.1459 38.3468C22.3443 38.1686 21.7031 37.931 21.1687 37.6341ZM25.23 39.1188C24.5353 39.1188 23.8406 39 23.2528 38.8219L23.6268 37.4559C23.894 37.5153 24.4818 37.6341 25.23 37.6341C25.9781 37.6341 26.6194 37.5747 26.8331 37.4559L27.2072 38.8219C26.6194 39 25.9247 39.1188 25.23 39.1188ZM27.314 38.3468L26.94 37.0402C27.6881 36.8621 28.2225 36.6839 28.65 36.5057V37.3372L29.2912 37.6341C28.7569 37.931 28.0622 38.1686 27.314 38.3468ZM14.3287 24.3312C14.3287 24.3312 14.7027 25.1033 14.9165 25.2814C15.5577 24.5688 16.0387 23.4998 17.1074 22.9059C16.6265 22.0151 15.9318 22.1339 15.8784 21.3024C16.199 21.4212 16.5196 21.1837 16.5196 20.768C16.199 20.5898 16.0387 20.9461 15.9852 20.8867C15.9318 20.8273 16.3593 20.768 16.3059 20.2335C15.8784 20.2335 15.9318 20.5898 15.8249 20.5304C15.7181 20.471 15.9318 20.1741 15.5577 19.9365C15.344 20.4116 15.6646 20.5304 15.5577 20.6492C15.5043 20.7086 15.3974 20.3522 14.9699 20.5304C15.0768 21.1243 15.5577 20.8867 15.5043 21.0649C15.4509 21.1837 15.1302 20.8273 14.9699 21.2431C15.1837 21.6588 15.5043 21.54 15.7181 21.3618C15.7715 22.1339 16.199 22.1933 16.6799 22.6684C15.3974 22.0745 13.7943 22.7871 13.2065 22.9059C13.3134 23.1435 13.4737 23.381 13.7409 23.4998C13.3668 23.8561 13.3668 24.0937 13.0996 24.3906C13.153 24.3312 13.634 24.9251 14.3287 24.3312ZM13.5805 24.2124C13.7409 23.9155 14.0081 23.678 14.3287 23.381C14.1149 23.3216 13.9546 23.2622 13.7409 23.0841C14.2218 22.9653 15.1302 22.5496 15.9852 22.7278C16.2524 22.7871 16.4127 22.9059 16.3059 22.9653C15.8784 23.2622 15.344 24.0343 14.9165 24.9251C14.5959 24.45 14.7027 23.7967 14.8096 23.6186C14.1149 24.0937 13.9012 24.3312 13.5805 24.2124ZM24.6422 23.7967V24.2124C24.8025 24.0343 25.0162 24.0937 25.0162 24.0937V24.7469C25.0162 24.7469 25.0162 25.0439 24.9094 25.1627H25.4972C25.3903 25.0439 25.3903 24.7469 25.3903 24.7469V24.0937C25.3903 24.0937 25.6575 24.0343 25.7644 24.2124V23.7967H24.6422Z" fill="#1D1D1B"/>
</g>
<defs>
<clipPath id="clip0_663_11892">
<rect width="24.1004" height="23.6364" fill="white" transform="translate(13.0996 15.7197)"/>
</clipPath>
</defs>
</svg>
