<svg width="25" height="25" viewBox="0 0 25 25" fill="none" xmlns="http://www.w3.org/2000/svg">
<g clip-path="url(#clip0_663_11893)">
<path d="M8.32899 15.5076V11.4692C8.32899 11.1129 8.22211 10.6971 8.11523 10.3408H10.9474C11.2146 10.7565 11.6956 10.9941 12.2299 10.9941C12.7643 10.9941 13.2453 10.7565 13.5124 10.3408H16.3446C16.2378 10.6971 16.1309 11.0535 16.1309 11.4692V15.5076H8.32899ZM12.2299 21.0306C11.8559 20.6149 11.5352 20.5555 10.4665 20.5555C9.18399 20.5555 8.32899 19.7241 8.32899 18.4176V15.7451H16.0775V18.4176C16.0775 19.7241 15.2225 20.5555 13.9399 20.5555C12.8712 20.5555 12.604 20.6149 12.2299 21.0306Z" fill="#FFE500"/>
<path d="M8.75644 21.5651V22.3966L8.11519 22.6935C8.64957 22.9904 9.29082 23.228 10.0924 23.4062L10.4664 22.0996C9.71832 21.9215 9.18394 21.7433 8.75644 21.5651ZM12.2299 22.6341C11.4818 22.6341 10.8405 22.5747 10.6268 22.4559L10.2527 23.8219C10.8405 24 11.5352 24.1188 12.2299 24.1188C12.9246 24.1188 13.6193 24 14.2071 23.8219L13.833 22.5153C13.5658 22.5747 12.978 22.6341 12.2299 22.6341ZM15.6499 21.5651C15.2224 21.7433 14.688 21.9215 13.9399 22.0996L14.314 23.4062C15.1155 23.228 15.7568 22.9311 16.2912 22.6935L15.6499 22.3966V21.5651ZM7.47394 8.49981C8.43582 7.90593 10.894 6.59939 9.23738 5.17409C9.02363 4.99592 8.75644 4.81776 8.54269 4.58021C8.2755 4.81776 8.64957 5.35225 8.703 5.53041C8.703 5.53041 8.16863 5.5898 8.00831 5.5898C7.15331 5.5898 6.29831 5.05531 6.72581 3.98633C6.40518 4.04572 6.35174 4.40204 6.24487 4.69898C6.03112 4.52082 5.65705 4.16449 5.38986 4.22388C5.60362 5.05531 6.61893 5.82735 7.36706 5.94613C6.61893 6.42123 5.17611 6.77756 4.42798 5.76796C3.89361 6.89633 4.64174 7.37144 5.33643 7.96531C2.6111 9.33123 2.98517 10.9347 1.16828 12.1819C1.48891 12.36 2.50423 12.1225 2.6111 12.1225C2.23704 12.7163 2.02329 12.9539 1.91641 13.1914C1.80954 13.429 1.7561 13.7259 1.64922 14.3792C1.54235 14.8543 1.43547 15.3888 0.847656 15.6857C1.06141 16.1015 1.54235 15.8045 1.70266 15.7451C1.70266 15.8045 1.59578 16.2796 1.43547 16.5766C2.34391 16.5172 1.91641 14.3198 2.87829 14.8543C3.14548 14.9731 3.25235 15.3294 3.09204 15.567C2.50423 16.9329 3.84017 18.18 3.78673 19.4272C4.10736 19.4272 4.48142 19.4272 4.69517 18.8927C4.80205 19.1302 5.0158 19.4866 5.06924 19.8429L5.33643 19.3084C5.49674 20.1992 6.24487 20.9713 7.20675 21.0306C6.72581 20.1992 7.31362 19.0708 6.13799 17.8831C6.29831 17.7643 6.61893 17.5268 6.72581 17.3486C5.33643 17.5268 3.89361 16.2796 4.53486 15.7451C4.96236 15.3888 5.17611 16.1608 5.81737 16.0421L5.55018 15.8045L5.8708 15.4482C5.60362 15.3888 5.28299 15.2106 5.28299 15.2106L5.4433 14.9137C3.78673 14.9137 3.78673 13.5478 4.42798 13.4884C4.74861 13.4884 5.12268 14.0823 6.13799 13.9635C6.03112 13.7853 5.97768 13.5478 5.8708 13.3102C6.13799 13.3102 6.40518 13.3102 6.61893 13.1914C6.13799 13.1321 5.97768 12.9539 5.60362 12.5976L6.08455 12.4194C5.38986 12.0631 5.4433 11.3504 5.38986 10.6972C5.76393 10.9347 6.19143 11.291 6.61893 11.1129C6.72581 11.0535 6.77925 10.9941 6.77925 10.8753C6.29831 10.5784 5.92424 9.45001 7.47394 8.49981ZM6.29831 8.61858C5.4433 9.62817 5.81737 10.2814 5.97768 10.4596C5.65705 10.4002 5.17611 9.92511 5.28299 9.5094C5.17611 9.62817 5.06924 9.80634 4.96236 9.92511C4.74861 10.2221 4.53486 10.5784 4.37455 10.8753C4.10736 11.7661 4.5883 12.657 5.38986 13.0133C4.48142 12.8351 4.05392 11.9443 4.05392 11.4098C3.62642 12.3006 3.41267 13.1321 3.41267 13.8447C3.41267 14.0823 3.46611 14.3198 3.46611 14.5574C3.67986 14.9731 4.00048 15.1512 4.5883 15.2106C4.05392 15.27 3.73329 15.2106 3.51954 14.9731C3.89361 16.7547 5.60362 18.2988 6.29831 19.6053C5.60362 18.5957 4.10736 17.0517 3.62642 15.9827C3.67986 16.339 3.78673 17.3486 4.21423 18.0019C3.57298 17.2892 3.51954 16.2202 3.57298 15.567C3.41267 15.0919 3.30579 14.6168 3.30579 14.0229C3.30579 13.4884 3.30579 13.0133 3.41267 12.5976C2.98517 13.2508 2.39735 13.4884 2.13016 14.498C2.1836 13.1914 3.0386 13.1914 3.67986 11.6474C3.94704 10.9941 4.26767 10.4002 4.69517 9.68756C4.1608 9.86573 3.78673 9.9845 3.19892 10.6972C3.62642 9.56879 6.03112 8.38103 7.15331 7.13388C6.83268 7.19327 5.4433 7.25266 4.90892 6.83695C5.92424 7.13388 8.22206 6.77756 9.07707 6.12429C8.48925 7.0745 7.20675 7.13388 5.60362 9.0343C5.76393 8.91552 6.03112 8.73736 6.29831 8.61858ZM22.7571 14.3792C22.6503 13.7259 22.5968 13.4884 22.4899 13.1914C22.3831 12.8945 22.1693 12.657 21.7952 12.1225C21.9021 12.1225 22.9174 12.36 23.1846 12.2412C21.3677 10.9941 21.7953 9.45001 19.0165 8.0247C19.7646 7.43082 20.4593 6.95572 19.9249 5.82735C19.1768 6.83695 17.734 6.48062 16.9859 6.00551C17.734 5.82735 18.7493 5.1147 18.963 4.28327C18.6959 4.22388 18.3218 4.58021 18.108 4.75837C18.0012 4.46143 17.9477 4.1051 17.6271 3.98633C18.0546 5.05531 17.1996 5.5898 16.3446 5.5898C16.2377 5.5898 15.6499 5.53041 15.6499 5.53041C15.7568 5.35225 16.0774 4.75837 15.8102 4.58021C15.5965 4.81776 15.3827 4.99592 15.1155 5.17409C13.459 6.59939 15.9171 7.90593 16.879 8.49981C18.4287 9.45001 18.0012 10.519 17.3599 10.8159C17.3599 10.9347 17.4134 10.9941 17.5202 11.0535C17.9477 11.2316 18.3752 10.8753 18.7493 10.6378C18.7493 11.3504 18.7493 12.0037 18.0546 12.36L18.5355 12.5382C18.108 12.8945 18.0012 13.0727 17.5202 13.1321C17.734 13.2508 18.0546 13.2508 18.2684 13.2508C18.2149 13.429 18.1615 13.7259 18.0012 13.9041C19.0165 14.0229 19.3906 13.3696 19.7112 13.429C20.3524 13.4884 20.3524 14.8543 18.6959 14.8543L18.8562 15.1512C18.8562 15.1512 18.5355 15.3294 18.2684 15.3888L18.589 15.7451L18.3218 15.9827C18.963 16.1015 19.1768 15.3294 19.6043 15.6857C20.2456 16.2796 18.8027 17.5268 17.4134 17.2892C17.5202 17.4674 17.8409 17.7049 18.0012 17.8237C16.879 19.0115 17.4134 20.1398 16.9324 20.9713C17.8943 20.9119 18.6424 20.0804 18.8027 19.249L19.0699 19.7835C19.1768 19.4272 19.3371 19.0708 19.444 18.8333C19.6577 19.3678 20.0318 19.3678 20.3524 19.3678C20.299 18.1206 21.6349 16.9329 21.0471 15.5076C20.9402 15.2106 20.9937 14.9137 21.2609 14.7355C22.1693 14.201 21.7418 16.3984 22.7037 16.4578C22.5434 16.2202 22.4365 15.6857 22.4365 15.6263C22.6503 15.6857 23.0778 16.0421 23.2915 15.567C23.0243 15.3888 22.864 14.8543 22.7571 14.3792ZM21.0471 12.5976C21.1006 13.0133 21.154 13.4884 21.154 14.0229C21.154 14.6168 21.0471 15.0919 20.8868 15.567C20.9402 16.2202 20.8868 17.2892 20.2456 18.0019C20.6731 17.3486 20.7799 16.339 20.7265 15.9827C20.1921 17.0517 18.7493 18.5957 18.0546 19.6053C18.7493 18.2988 20.5127 16.7547 20.8868 14.9731C20.6731 15.27 20.3524 15.27 19.8181 15.2106C20.4059 15.1512 20.7265 14.9731 20.9402 14.498C20.9937 14.2604 20.9937 14.0229 20.9937 13.7853C20.9937 13.0727 20.7799 12.2412 20.3524 11.3504C20.3524 11.9443 19.9249 12.8351 19.0165 12.9539C19.8181 12.5382 20.299 11.6474 20.0318 10.8159C19.8715 10.519 19.6577 10.2221 19.444 9.86573C19.3371 9.68756 19.2302 9.56879 19.1234 9.45001C19.2302 9.86573 18.7493 10.3408 18.4287 10.4002C18.589 10.2221 18.963 9.56879 18.108 8.55919C18.3752 8.67797 18.6424 8.85613 18.8027 9.0343C17.253 7.13388 15.9171 7.0745 15.3293 6.12429C16.1843 6.77756 18.4821 7.13388 19.4974 6.83695C18.9096 7.25266 17.5737 7.19327 17.253 7.13388C18.3752 8.32164 20.7799 9.56879 21.2074 10.6972C20.6196 9.9845 20.2456 9.86573 19.7112 9.68756C20.1387 10.3408 20.4593 10.9347 20.7265 11.6474C21.3677 13.1914 22.2228 13.2508 22.2762 14.498C22.0624 13.4884 21.4212 13.2508 21.0471 12.5976Z" fill="white"/>
<path d="M13.4579 10.3408C13.1907 10.7565 12.7098 10.9941 12.1754 10.9941C12.0686 10.9941 11.9082 10.9941 11.8014 10.9347C11.8548 11.1129 11.9082 11.291 12.0686 11.4098C12.0151 11.8849 12.1754 12.3006 12.6564 12.4194C12.7098 12.6569 12.8167 12.8351 13.0839 12.9539L12.7632 13.429C12.6564 13.6072 12.4961 13.6072 12.3357 13.6072L10.8929 13.429C10.9464 13.2508 10.786 13.0727 10.3585 13.132L10.8929 11.4098L10.6257 10.5784L9.98448 11.1722L9.93104 13.0133L9.66385 12.8351C9.28979 12.6569 9.18292 13.3696 9.55698 13.3696H9.71729C9.71729 13.429 9.71729 13.5478 9.77073 13.5478C9.71729 13.5478 9.66385 13.7259 9.77073 13.7853C9.66385 13.8447 9.66385 13.9635 9.71729 14.0229C9.66385 14.1416 9.61042 14.4386 9.8776 14.498C10.0914 14.5574 10.1982 14.3198 10.2517 14.201L12.4426 14.9731C12.7632 15.0918 12.977 15.0325 13.2442 14.7355L13.832 14.201C13.7786 14.5574 13.8854 14.9137 14.1526 15.0325C14.1526 15.0325 14.0992 15.3888 14.1526 15.5076H16.1298V11.4692C16.1298 11.1129 16.2367 10.6971 16.3436 10.3408H13.4579ZM10.1448 17.1704L10.1982 17.2298C10.2517 17.2892 10.3051 17.2892 10.3585 17.2298L10.4654 17.1704C10.5189 17.111 10.9464 17.2892 10.9464 16.9329C10.9998 17.2298 10.6792 17.8237 10.8929 18.1206L11.1601 18.5957H10.3585C10.2517 18.5957 10.1982 18.6551 10.1982 18.7145L9.98448 19.1896C9.93104 19.3084 9.93104 19.4272 9.98448 19.5459L10.1448 19.7241C10.1448 19.7241 10.2517 19.6053 10.3051 19.4865L10.2517 19.4272C10.1982 19.3678 10.1982 19.3084 10.2517 19.249L10.3585 18.9521C10.412 18.8333 10.4654 18.8333 10.5723 18.8333L11.2135 19.0114C11.267 19.0114 11.3204 19.0708 11.3739 18.9521C11.4273 18.7739 11.5876 18.7739 11.7479 18.8333C12.122 18.8927 12.9236 19.0114 13.2442 18.5957C13.5648 19.1302 14.2595 19.1302 14.2061 19.3678L14.0457 20.2586H14.2595L14.3664 19.3678C14.3664 19.249 14.4198 19.1302 14.3129 19.0114C14.2595 18.9521 14.2595 18.9521 14.1526 18.7739C14.0457 18.5363 14.0457 18.18 13.9389 17.8831C14.0457 17.7643 14.1526 17.7049 14.2595 17.7049C14.4733 17.7643 14.5801 18.2394 14.9008 18.5957C14.8473 18.4176 14.8473 18.2394 14.7404 18.0612C14.7404 18.0612 14.9542 18.2394 15.0611 18.477C15.1145 18.6551 15.1145 18.7145 15.2748 18.7739C15.3283 18.8333 15.4351 18.7739 15.542 18.6551C15.542 18.6551 15.3283 18.2988 15.1679 18.0612C14.9542 17.7643 14.6336 17.408 14.2595 17.4674C14.1526 17.4674 13.9923 17.5267 13.8854 17.6455C13.4045 17.3486 13.0839 17.6455 12.9236 17.6455L12.0686 17.5861C11.9082 17.5861 11.7479 17.3486 11.7479 17.3486C11.7479 16.5172 11.1601 16.2202 10.9464 16.2202C10.9464 16.2202 10.9464 16.1014 10.8929 16.0421L10.7326 16.2796L10.2517 16.1014L10.6257 16.4578L10.1982 16.9923C10.1448 17.0516 10.1448 17.1704 10.1448 17.1704Z" fill="white"/>
<path d="M9.61198 18.2982C9.5051 18.417 9.5051 18.5358 9.55854 18.714L9.61198 18.8921L9.82573 18.714L9.77229 18.5952C9.71885 18.5358 9.71885 18.4764 9.77229 18.417L10.0395 18.1795C10.0929 18.1201 10.1464 18.1201 10.1998 18.1201L10.7876 18.2389C10.7876 18.2389 10.6807 18.1201 10.6807 17.9419L10.1464 17.8825C10.0929 17.8825 10.0395 17.8825 9.9326 17.9419L9.61198 18.2982ZM13.2457 20.1987H13.4595L13.8336 19.2484C13.8336 19.1891 13.887 19.1891 13.887 19.1891C13.7267 19.1297 13.6198 19.0703 13.5129 19.0109C13.6198 19.1297 13.6732 19.1891 13.6198 19.3078L13.2457 20.1987ZM13.4595 7.31149L13.887 4.75781L12.3907 5.35169V8.02414L13.4595 7.31149ZM12.6045 5.58924L13.6198 5.17353L13.1923 5.52985C12.9786 5.70802 12.6045 5.88618 12.6045 5.88618V5.58924ZM12.6045 6.18312L13.5129 5.82679C13.5129 5.82679 13.4061 5.94557 13.1923 6.12373C12.9786 6.3019 12.6045 6.48006 12.6045 6.48006V6.18312ZM12.6045 6.83639L13.4061 6.48006C13.4061 6.48006 13.4061 6.59884 13.1923 6.777C12.9786 6.95516 12.6045 7.13333 12.6045 7.13333V6.83639Z" fill="white"/>
<path d="M10.7341 9.56838L11.1081 9.62777V9.68716C11.1081 9.74654 11.1081 9.80593 11.1616 9.86532C11.215 10.0435 11.3219 10.2216 11.4822 10.3404C11.6425 10.5186 11.9097 10.6374 12.2838 10.6374C13.0319 10.6374 13.3525 10.1029 13.406 9.68716V9.62777H13.7266L13.78 9.56838C14.1006 9.03389 14.4213 8.4994 14.8488 8.38062L13.7266 7.66797L12.2303 8.55879L10.8409 7.72736L9.71875 8.44001C10.0928 8.4994 10.4134 9.09328 10.7341 9.56838Z" fill="white"/>
<path d="M12.0692 7.96492V5.29246L10.5729 4.69858L10.947 7.25226L12.0692 7.96492ZM11.8554 7.13349C11.8554 7.13349 11.4814 6.95532 11.2676 6.77716C11.0539 6.59899 11.0539 6.48022 11.0539 6.48022L11.8554 6.83655V7.13349ZM11.8554 5.5894V5.82695C11.8554 5.82695 11.4814 5.64879 11.2676 5.47063L10.8401 5.1143L11.8554 5.5894ZM11.8554 6.18328V6.48022C11.8554 6.48022 11.4814 6.30206 11.2676 6.12389C11.0539 5.94573 10.947 5.82695 10.947 5.82695L11.8554 6.18328ZM12.2295 3.6296C11.3745 3.6296 10.7332 3.92654 10.5729 4.34226L12.2295 5.05491L13.8861 4.34226C13.7258 3.92654 13.0845 3.6296 12.2295 3.6296ZM12.2295 2.56062C12.8708 2.56062 13.512 2.79817 13.9395 3.03572C13.9929 2.79817 14.0998 2.62001 14.2067 2.38246L13.8326 2.44185L13.512 1.6698L12.9242 2.02613L12.2295 1.31348L11.5883 2.02613L11.0004 1.6698L10.6264 2.44185L10.2523 2.38246C10.3592 2.62001 10.4126 2.79817 10.5195 3.03572C10.947 2.79817 11.5883 2.56062 12.2295 2.56062ZM23.0774 8.38063C23.2911 8.32124 23.4514 8.26185 23.6652 8.08369C23.1842 7.96491 22.2758 7.5492 21.4208 7.72736C21.1536 7.78675 20.9933 7.90553 21.1002 7.96492C21.5277 8.26185 22.062 9.0339 22.4895 9.92471C22.8102 9.44961 22.7033 8.79635 22.5964 8.61818C23.2911 9.09328 23.4514 9.33084 23.7721 9.21206C23.6117 8.91512 23.398 8.67757 23.0774 8.38063ZM1.91602 9.92471C2.29009 9.0339 2.82446 8.32124 3.3054 7.96492C3.41228 7.90553 3.25196 7.78675 2.98478 7.72736C2.18321 7.5492 1.22133 7.96491 0.740391 8.08369C0.954142 8.26185 1.11446 8.32124 1.32821 8.38063C1.00758 8.67757 0.740391 8.97451 0.580078 9.21206C0.900705 9.27145 1.06102 9.09328 1.75571 8.61818C1.70227 8.79635 1.5954 9.44961 1.91602 9.92471Z" fill="white"/>
<path d="M6.67339 18.0012C6.99401 17.7043 7.2612 17.5855 7.2612 16.9323C6.78026 17.2292 5.44432 17.1698 4.8565 16.3384C4.69619 16.1008 4.8565 15.9821 5.01682 16.1602C5.39088 16.6353 6.13901 16.3978 6.35276 16.279C6.29932 16.1008 6.19245 15.9227 6.08557 15.8039C6.19245 15.6851 6.45964 15.5663 6.51307 15.2694C6.35276 15.21 5.81838 15.0912 5.81838 15.0912C5.92526 14.9725 6.03213 14.8537 5.9787 14.4974C5.39088 14.6755 4.69619 14.438 4.48244 14.2004C4.32213 13.9629 4.48244 13.7253 4.64275 13.9035C4.90994 14.2598 6.35276 14.6161 6.88714 14.0223C6.67339 13.9629 6.45964 13.7847 6.4062 13.6659C6.88714 13.6065 7.31464 13.3096 7.31464 12.8939C7.04745 12.8939 6.51307 12.8939 6.35276 12.7157C6.56651 12.5969 6.72682 12.5376 6.8337 12.2406C5.92526 12.1812 5.87182 11.4092 5.87182 11.2904C6.45964 11.6467 7.47495 11.528 7.20776 10.5778C6.72682 10.5778 6.24588 9.68694 7.58183 8.85551C8.8109 8.14286 10.2003 7.31143 10.0934 6.0049C10.04 5.17347 8.75746 4.57959 8.59714 4.16387C8.06277 4.46081 7.95589 4.75775 8.22308 5.29224C8.22308 5.29224 7.04745 5.41102 6.99401 4.63898C6.94058 4.28265 7.15433 3.92632 7.42151 3.68877C7.31464 3.68877 6.4062 3.45122 6.13901 4.22326C5.65807 3.86694 5.23057 3.86693 4.90994 4.28265C5.44432 4.63898 5.76494 5.82673 6.61995 6.18306C5.9787 6.53939 5.01682 6.42061 4.429 5.23286C3.89462 6.12367 3.574 7.07388 4.74963 8.02408C2.61212 9.09307 2.61212 11.1716 0.741798 12.1812C0.955549 12.7157 1.32961 12.7157 1.86399 12.6563C1.06242 13.8441 1.75712 15.0319 0.474609 15.507C0.581485 15.9821 0.848673 16.3384 1.32961 16.2196C1.1693 16.4572 1.11586 16.4572 0.902111 16.6947C1.5968 17.1698 2.45181 16.8135 2.61212 15.2694C2.66556 14.9725 2.98618 15.1506 2.87931 15.4476C2.07774 17.2886 4.10838 18.6545 3.36025 19.961C4.0015 19.961 4.48244 19.9017 4.74963 19.6641C4.8565 19.961 4.96338 20.1986 4.90994 20.4955C5.23057 20.4361 5.39088 20.1986 5.39088 19.9017C5.60463 20.6143 6.4062 21.4457 7.74214 21.4457C6.99401 20.3768 7.63527 19.2484 6.67339 18.0012ZM5.39088 19.3672L5.12369 19.9017C5.01682 19.5453 4.8565 19.189 4.74963 18.9514C4.53588 19.4859 4.16181 19.4859 3.84119 19.4859C3.89462 18.2388 2.55868 17.051 3.1465 15.6257C3.25337 15.3288 3.19993 15.0319 2.93275 14.8537C2.0243 14.3192 2.45181 16.5165 1.48993 16.5759C1.65024 16.3384 1.75711 15.8039 1.75711 15.7445C1.54336 15.8039 1.06242 16.1602 0.902111 15.6851C1.43649 15.3288 1.5968 14.8537 1.70368 14.3786C1.81055 13.7253 1.86399 13.4878 1.97087 13.1908C2.0243 12.9533 2.18462 12.7157 2.61212 12.1218C2.50524 12.1218 1.48993 12.3594 1.22274 12.2406C3.03962 10.9935 2.61212 9.44939 5.39088 8.02408C4.69619 7.43021 3.94806 6.9551 4.48244 5.82673C5.23057 6.83633 6.67339 6.48 7.42151 6.0049C6.67339 5.82673 5.65807 5.11408 5.44432 4.28265C5.71151 4.22326 6.08557 4.57959 6.29932 4.75775C6.4062 4.46081 6.45964 4.10449 6.78026 4.0451C6.35276 5.11408 7.20776 5.64857 8.06277 5.64857C8.16964 5.64857 8.75746 5.58918 8.75746 5.58918C8.65058 5.41102 8.32996 4.81714 8.59714 4.63898C8.8109 4.87653 9.02465 5.05469 9.29184 5.23286C10.9484 6.65816 8.49027 7.9647 7.52839 8.55858C5.9787 9.50878 6.4062 10.5778 7.04745 10.8747C7.04745 10.9935 6.99401 11.0529 6.88714 11.1123C6.45964 11.2904 6.03213 10.9341 5.65807 10.6965C5.65807 11.4092 5.65807 12.0625 6.35276 12.4188L5.87182 12.5969C6.29932 12.9533 6.4062 13.1314 6.88714 13.1908C6.67339 13.3096 6.35276 13.3096 6.13901 13.3096C6.19245 13.4878 6.24588 13.7847 6.4062 13.9629C5.39088 14.0816 5.01682 13.4284 4.69619 13.4878C4.05494 13.5472 4.05494 14.9131 5.71151 14.9131L5.55119 15.21C5.55119 15.21 5.87182 15.3882 6.13901 15.4476L5.81838 15.8039L6.08557 16.0414C5.39088 16.1602 5.23057 15.3882 4.80307 15.7445C4.16181 16.3384 5.60463 17.5855 6.99401 17.348C6.88714 17.5261 6.56651 17.7637 6.4062 17.8825C7.52839 19.0702 6.99401 20.1986 7.47495 21.03C6.29932 21.03 5.55119 20.1986 5.39088 19.3672Z" fill="#1D1D1B"/>
<path d="M3.62571 14.9728C3.83946 15.2698 4.16009 15.2698 4.69446 15.2104C4.10665 15.151 3.78602 14.9728 3.57227 14.4977C3.51883 14.2602 3.51883 14.0226 3.51883 13.7851C3.51883 13.0724 3.73258 12.241 4.16009 11.3502C4.16009 11.944 4.58759 12.8349 5.49603 12.9536C4.69446 12.5379 4.21352 11.6471 4.48071 10.8157C4.64103 10.5187 4.85478 10.2218 5.06853 9.86546C5.1754 9.68729 5.28228 9.56852 5.38915 9.44974C5.28228 9.86546 5.76322 10.3406 6.08385 10.3999C5.92353 10.2218 5.54947 9.56852 6.40447 8.55892C6.13728 8.6777 5.87009 8.85586 5.70978 9.03403C7.25948 7.13362 8.59542 7.07423 9.18323 6.12402C8.32823 6.77729 6.03041 7.13362 5.01509 6.83668C5.60291 7.25239 6.93885 7.193 7.25948 7.13362C6.13728 8.32137 3.73258 9.56852 3.30508 10.6969C3.8929 9.98423 4.26696 9.86546 4.80134 9.68729C4.37384 10.3406 4.05321 10.9344 3.78602 11.6471C3.14477 13.1912 2.28977 13.2506 2.23633 14.4977C2.50352 13.4881 3.14477 13.2506 3.51883 12.5973C3.4654 13.013 3.41196 13.4881 3.41196 14.0226C3.41196 14.6165 3.51883 15.0916 3.67915 15.5667C3.62571 16.22 3.67915 17.2889 4.3204 18.0016C3.8929 17.3483 3.78602 16.3387 3.83946 15.9824C4.37384 17.0514 5.81666 18.5955 6.51135 19.6051C5.70978 18.2985 3.99977 16.7544 3.62571 14.9728ZM19.7639 9.68729C20.2983 9.86546 20.6723 9.98423 21.2602 10.6969C20.8327 9.56852 18.428 8.38076 17.3058 7.13362C17.6264 7.193 19.0158 7.25239 19.5502 6.83668C18.5348 7.13362 16.237 6.77729 15.382 6.12402C15.9698 7.07423 17.2523 7.13362 18.8555 9.03403C18.6417 8.85586 18.3745 8.6777 18.1608 8.55892C19.0158 9.56852 18.6417 10.2218 18.4814 10.3999C18.802 10.3406 19.283 9.86546 19.1761 9.44974C19.283 9.56852 19.3898 9.74668 19.4967 9.86546C19.7105 10.1624 19.9242 10.5187 20.0845 10.8157C20.3517 11.7065 19.8708 12.5973 19.0692 12.9536C19.9777 12.7755 20.4052 11.8846 20.4052 11.3502C20.8327 12.241 21.0464 13.0724 21.0464 13.7851C21.0464 14.0226 20.993 14.2602 20.993 14.4977C20.7792 14.9134 20.4586 15.0916 19.8708 15.2104C20.4052 15.2698 20.7258 15.2104 20.9395 14.9728C20.5655 16.7544 18.8555 18.2985 18.1073 19.6051C18.802 18.5955 20.2448 17.0514 20.7792 15.9824C20.8327 16.3981 20.7258 17.4077 20.2983 18.0016C20.9395 17.2889 20.993 16.22 20.9395 15.5667C21.0999 15.0916 21.2067 14.6165 21.2067 14.0226C21.2067 13.4881 21.2067 13.013 21.0998 12.5973C21.5274 13.2506 22.1152 13.4881 22.3824 14.4977C22.3289 13.1912 21.4739 13.1912 20.8327 11.6471C20.512 10.9938 20.138 10.3999 19.7639 9.68729Z" fill="#1D1D1B"/>
<path d="M22.5431 12.5977C23.024 12.6571 23.4515 12.6571 23.6653 12.1226C21.795 11.113 21.795 9.09386 19.6574 7.96549C20.8331 7.01528 20.5124 6.06508 19.9781 5.17426C19.3903 6.30263 18.3749 6.48079 17.7871 6.12447C18.6421 5.76814 18.9628 4.58038 19.4971 4.22406C19.1765 3.80834 18.749 3.80834 18.2681 4.16467C18.0009 3.39263 17.1459 3.63018 16.9856 3.63018C17.1993 3.86773 17.4131 4.22406 17.4131 4.58038C17.3062 5.35243 16.184 5.23365 16.184 5.23365C16.3977 4.69916 16.2909 4.40222 15.8099 4.10528C15.6496 4.521 14.4205 5.11487 14.3137 5.9463C14.2068 7.25284 15.5962 8.02488 16.8252 8.79692C18.1612 9.62835 17.6802 10.4598 17.1993 10.5192C16.9321 11.4694 17.9474 11.5881 18.5353 11.2318C18.5353 11.3506 18.4818 12.1226 17.5734 12.182C17.6268 12.479 17.7871 12.5977 18.0543 12.6571C17.894 12.7759 17.3596 12.8353 17.0924 12.8353C17.1459 13.251 17.5199 13.5479 18.0009 13.6073C17.9474 13.7261 17.7337 13.9043 17.5199 13.9637C18.0543 14.5575 19.4971 14.1418 19.7643 13.8449C19.9246 13.6667 20.0849 13.9043 19.9246 14.1418C19.7643 14.3794 19.0162 14.6763 18.4284 14.4388C18.3749 14.7951 18.4818 14.9139 18.5887 15.0326C18.5887 15.0326 18.0009 15.092 17.894 15.2108C17.9474 15.5077 18.2146 15.6265 18.3215 15.7453C18.2146 15.8641 18.1077 16.0422 18.0543 16.2204C18.3215 16.3392 19.0162 16.5767 19.3903 16.1016C19.5506 15.9235 19.7109 16.0422 19.5506 16.2798C18.9628 17.1706 17.6268 17.1706 17.1459 16.8737C17.1459 17.5269 17.4131 17.7051 17.7337 17.9426C16.7718 19.1898 17.4131 20.3182 16.7184 21.3871C18.0009 21.3871 18.8024 20.6151 19.0696 19.8431C19.0696 20.0806 19.2299 20.3182 19.5506 20.4369C19.5506 20.14 19.604 19.9024 19.7109 19.6055C19.9781 19.8431 20.459 19.9024 21.1003 19.9024C20.4056 18.5365 22.3828 17.1706 21.5812 15.389C21.4743 15.092 21.795 14.9139 21.8484 15.2108C22.0087 16.7549 22.8637 17.1112 23.5584 16.6361C23.3446 16.3986 23.2378 16.3986 23.1309 16.161C23.6118 16.2798 23.8256 15.9235 23.9859 15.4484C22.7034 15.0326 23.3446 13.7855 22.5431 12.5977ZM22.65 15.7453C22.65 15.8047 22.7568 16.2798 22.9171 16.5767C22.0087 16.5173 22.4362 14.32 21.4743 14.8545C21.2071 14.9733 21.1537 15.3296 21.2606 15.6265C21.8484 16.9924 20.459 18.2396 20.5659 19.4867C20.2453 19.4867 19.8712 19.4867 19.6574 18.9522C19.5506 19.1898 19.3368 19.5461 19.2834 19.9024L19.0162 19.368C18.8559 20.2588 18.1078 21.0308 17.1459 21.0902C17.6268 20.2588 17.039 19.1304 18.2146 17.9426C18.0543 17.8239 17.7337 17.5863 17.6268 17.4082C19.0162 17.5863 20.5124 16.3392 19.8178 15.8047C19.3903 15.4484 19.1765 16.2204 18.5353 16.1016L18.8024 15.8641L18.4818 15.5077C18.749 15.4484 19.0696 15.2702 19.0696 15.2702L18.9093 14.9733C20.5659 14.9733 20.5659 13.6073 19.9246 13.5479C19.604 13.5479 19.2299 14.1418 18.2146 14.0231C18.3215 13.8449 18.3749 13.6073 18.4818 13.3698C18.2146 13.3698 17.9474 13.3698 17.7337 13.251C18.2146 13.1916 18.3749 13.0135 18.749 12.6571L18.2146 12.3602C18.9093 12.0039 18.8559 11.2912 18.9093 10.6379C18.5353 10.8755 18.1078 11.2318 17.6802 11.0537C17.5734 10.9943 17.5199 10.9349 17.5199 10.8161C18.1612 10.5192 18.5887 9.45019 17.039 8.49998C16.0771 7.9061 13.619 6.59957 15.2756 5.17426C15.4893 4.9961 15.7565 4.81793 15.9702 4.58038C16.2374 4.81793 15.8634 5.35243 15.8099 5.53059C15.8099 5.53059 16.3443 5.58998 16.5046 5.58998C17.3596 5.58998 18.2146 5.05549 17.7871 3.9865C18.1077 4.04589 18.1612 4.40222 18.2681 4.75855C18.4818 4.58038 18.8559 4.22406 19.1231 4.28344C18.9093 5.11487 17.894 5.88692 17.1459 6.00569C17.894 6.48079 19.3368 6.83712 20.0849 5.82753C20.6193 6.9559 19.8712 7.431 19.1765 8.02488C21.9018 9.3908 21.5278 10.9943 23.3446 12.2414C23.1309 12.3602 22.0621 12.1226 21.9553 12.1226C22.3293 12.7165 22.5431 12.9541 22.65 13.1916C22.7568 13.4292 22.8103 13.7261 22.9171 14.3794C23.024 14.8545 23.1843 15.389 23.7187 15.6859C23.3446 16.1016 22.8637 15.8047 22.65 15.7453ZM9.55771 19.1304L9.93178 18.7741L9.87834 18.6553C9.8249 18.5365 9.87834 18.5365 9.87834 18.5365L10.0921 18.3584C10.1455 18.299 10.199 18.299 10.2524 18.3584L10.8937 18.5365H10.2524C10.0921 18.5365 10.0387 18.5959 9.98521 18.7147L9.93178 18.8335L9.77146 19.1898C9.71803 19.3086 9.66459 19.4867 9.8249 19.7243L9.93178 19.9024L9.66459 20.4369H9.87834L10.0387 20.0806C10.0387 20.0806 10.3058 19.8431 10.3593 19.5461C10.3058 19.4867 10.2524 19.4273 10.2524 19.368L10.3058 19.1898C10.3058 19.1304 10.3593 19.1304 10.4127 19.1304L11.054 19.3086C11.1608 19.3086 11.2677 19.368 11.3212 19.2492C11.428 19.071 11.428 19.1304 11.6418 19.1304L11.9624 19.1898C12.4434 19.2492 12.8709 19.1304 13.0312 18.9522C13.0846 19.1304 13.1915 19.2492 13.2984 19.368C13.2984 19.4273 13.2984 19.4867 13.2449 19.5461L12.8709 20.5557H13.4587L13.7793 19.6649C13.8327 19.6055 13.8327 19.4867 13.8862 19.4867L13.8327 20.3775H14.3671L14.5274 19.3086C14.5809 19.071 14.5274 19.0116 14.4205 18.8929C14.2068 18.6553 14.2068 18.2396 14.0999 17.9426C14.1534 17.9426 14.2068 17.8833 14.2602 17.8833C14.3671 17.8833 14.474 18.2396 14.6343 18.4771C14.9015 18.9522 15.329 19.4273 15.7565 18.7147C15.7031 18.6553 15.6496 18.5365 15.5962 18.4771L15.4893 18.299C15.4359 18.1802 15.0618 17.7645 14.9015 17.5863C14.5809 17.23 14.0465 17.2894 13.8862 17.4675C13.4052 17.23 12.9777 17.4675 12.8174 17.4675L12.0158 17.4082C11.9624 17.4082 11.909 17.4082 11.909 17.3488L12.0693 17.2894C11.909 16.6361 11.5883 16.161 11.0005 16.0422C11.0005 16.0422 10.9471 15.8641 10.8937 15.8047L10.7333 16.0422C10.6799 16.0422 10.6265 16.0422 10.573 16.1016L9.8249 15.8047L10.4127 16.458C10.4127 16.458 10.0921 16.9331 10.0387 16.9924C9.98522 17.0518 9.98522 17.1706 10.0387 17.23L10.1455 17.4082C10.199 17.4675 10.2524 17.4675 10.3593 17.4082L10.4662 17.3488C10.5196 17.2894 10.6799 17.4082 10.7868 17.2894C10.7333 17.4675 10.7333 17.6457 10.6799 17.7645L10.1455 17.7051C10.0387 17.7051 9.98521 17.7051 9.93178 17.7645L9.50428 18.1208C9.34396 18.2396 9.29052 18.4771 9.3974 18.6553L9.55771 19.1304ZM13.8327 19.2492L13.4587 20.1994H13.2449L13.619 19.2492C13.6724 19.1304 13.5655 19.071 13.5121 18.9522C13.619 19.0116 13.7259 19.071 13.8862 19.1304C13.8327 19.1898 13.8327 19.2492 13.8327 19.2492ZM10.4662 17.1706L10.3593 17.23C10.3058 17.2894 10.2524 17.2894 10.199 17.23L10.1455 17.1706C10.1455 17.1706 10.0921 17.0518 10.1455 16.9924L10.573 16.458L10.199 16.1016L10.6799 16.2798L10.8402 16.0422C10.8937 16.1016 10.8937 16.2204 10.8937 16.2204C11.1074 16.2204 11.6952 16.5173 11.6952 17.3488C11.6952 17.3488 11.8555 17.5863 12.0158 17.5863L12.8709 17.6457C13.0312 17.6457 13.3518 17.3488 13.8327 17.6457C13.9396 17.5863 14.0999 17.5269 14.2068 17.4675C14.6343 17.4082 14.9015 17.7645 15.1152 18.0614C15.2756 18.299 15.4893 18.6553 15.4893 18.6553C15.3824 18.7741 15.2756 18.8335 15.2221 18.7741C15.1152 18.7147 15.0618 18.5959 15.0084 18.4771C14.9549 18.2396 14.6877 18.0614 14.6877 18.0614L14.848 18.5959C14.5274 18.2396 14.4205 17.7645 14.2068 17.7051C14.0999 17.7051 13.993 17.7051 13.8862 17.8833C13.993 18.1802 13.993 18.5365 14.0999 18.7741C14.2068 18.9522 14.2068 18.9522 14.2602 19.0116C14.3671 19.071 14.3137 19.2492 14.3137 19.368L14.2068 20.2588H13.993L14.1534 19.368C14.2068 19.071 13.5121 19.071 13.1915 18.5959C12.8709 18.9522 12.0693 18.8929 11.6952 18.8335C11.5349 18.8335 11.428 18.8335 11.3212 18.9522C11.2677 19.0116 11.2143 19.0116 11.1608 19.0116L10.5196 18.8335C10.4127 18.8335 10.3593 18.8335 10.3058 18.9522L10.199 19.2492C10.1455 19.3086 10.1455 19.368 10.199 19.4273L10.2524 19.4867C10.199 19.6055 10.0921 19.7243 10.0921 19.7243L9.93178 19.5461C9.87834 19.4273 9.87834 19.3086 9.93178 19.1898L10.1455 18.7147C10.1455 18.6553 10.199 18.5959 10.3058 18.5959H11.1074L10.8402 18.1208C10.6799 17.7645 10.9471 17.1706 10.8937 16.9331C10.9471 17.2894 10.5196 17.1706 10.4662 17.1706ZM9.61115 18.299L9.98521 18.002C10.0387 17.9426 10.0921 17.8833 10.199 17.9426L10.7333 18.002C10.7868 18.1208 10.8402 18.299 10.8402 18.299L10.2524 18.1802C10.1455 18.1802 10.1455 18.1802 10.0921 18.2396L9.8249 18.4771C9.77146 18.5365 9.77146 18.5959 9.8249 18.6553L9.87834 18.7741L9.61115 18.8929L9.55771 18.7147C9.45084 18.5959 9.45084 18.4178 9.61115 18.299ZM11.2677 6.77773C11.4815 6.9559 11.8555 7.13406 11.8555 7.13406V6.83712L11.054 6.48079C11.0005 6.54018 11.0005 6.65896 11.2677 6.77773ZM11.8555 6.48079V6.18385L10.8937 5.82753C10.8937 5.82753 11.0005 5.9463 11.2143 6.12447C11.4815 6.30263 11.8555 6.48079 11.8555 6.48079ZM11.8555 5.82753V5.53059L10.8402 5.11487L11.2677 5.4712C11.4815 5.70875 11.8555 5.82753 11.8555 5.82753Z" fill="#1D1D1B"/>
<path d="M14.6882 9.56853H15.7035C15.65 9.39037 15.4897 9.2122 15.2225 9.2122C14.9019 9.27159 14.7416 9.44975 14.6882 9.56853ZM13.566 5.17383L12.5506 5.58954V5.82709C12.5506 5.82709 12.9247 5.64893 13.1385 5.47077C13.4056 5.35199 13.566 5.17383 13.566 5.17383ZM13.4056 6.53975L12.6041 6.89608V7.19301C12.6041 7.19301 12.9781 7.01485 13.1919 6.83669C13.4056 6.65852 13.4056 6.53975 13.4056 6.53975ZM13.5125 5.82709L12.6041 6.18342V6.48036C12.6041 6.48036 12.9781 6.3022 13.1919 6.12403C13.4056 5.94587 13.5125 5.82709 13.5125 5.82709ZM9.18406 9.27159C8.86344 9.27159 8.70312 9.44975 8.70312 9.62792H9.71844C9.665 9.44975 9.50469 9.27159 9.18406 9.27159Z" fill="#1D1D1B"/>
<path d="M14.2607 4.46101C14.2607 3.80775 13.2988 3.21387 12.1766 3.21387C11.1078 3.21387 10.0925 3.80775 10.0925 4.46101V4.63918L10.52 7.37102L8.48938 8.67755C8.27563 8.79633 8.00844 9.21204 7.955 9.62776H8.32907C8.3825 9.21204 8.64969 8.79633 9.18407 8.85571C9.66501 8.85571 9.9322 9.21204 10.1994 9.62776L10.2528 9.74653L10.3597 9.9247H7.36719C7.58094 10.3998 7.79469 10.9343 7.79469 11.5282V18.4765C7.79469 20.2582 9.02376 21.0896 10.3597 21.0896C11.375 21.0896 11.5353 21.0302 12.1231 21.6835C12.711 21.0302 12.8178 21.0896 13.8866 21.0896C15.2225 21.0896 16.4516 20.2582 16.4516 18.4765V11.4688C16.4516 10.8749 16.6654 10.3998 16.8791 9.86531H13.8866L13.9935 9.68714L14.0469 9.56837C14.3141 9.09326 14.5813 8.79633 15.0622 8.79633C15.5966 8.79633 15.8638 9.21204 15.9172 9.56837H16.2913C16.2379 9.15265 15.9707 8.79633 15.7569 8.61816L13.8332 7.31163L14.2607 4.57979V4.46101ZM10.5735 4.75795L12.0697 5.35183V8.02428L10.9475 7.37102L10.5735 4.75795ZM10.9475 10.3404C11.1613 10.6373 11.4819 10.8749 11.856 10.9343C11.9094 11.1125 11.9628 11.2906 12.1231 11.4094C12.0697 11.8845 12.23 12.3002 12.711 12.419C12.7644 12.6565 12.8713 12.8347 13.1385 12.9535L12.7644 13.4286C12.6575 13.6067 12.4972 13.6067 12.3369 13.6067L10.8941 13.4286C10.9475 13.2504 10.7872 13.0723 10.3597 13.1316L10.8941 11.4094L10.6269 10.578L9.98564 11.1718L9.9322 13.0129L9.66501 12.8347C9.29095 12.6565 9.18407 13.3692 9.55813 13.3692H9.71845C9.71845 13.4286 9.71845 13.5474 9.77189 13.5474C9.71845 13.6067 9.66501 13.7255 9.77189 13.7849C9.66501 13.8443 9.66501 13.9631 9.71845 14.0225C9.66501 14.1412 9.61157 14.4382 9.87876 14.4976C10.0925 14.5569 10.1994 14.3194 10.2528 14.2006L12.4438 14.9727C12.7644 15.0914 12.9781 15.0321 13.2453 14.7351L13.8332 14.2006C13.7797 14.5569 13.8866 14.9133 14.1538 15.0321C14.1538 15.0321 14.1003 15.3884 14.1538 15.5072H8.32907V11.4688C8.32907 11.1125 8.22219 10.6967 8.11532 10.3404H10.9475ZM13.2988 11.8845C13.1919 12.122 13.1919 12.419 13.3522 12.7159L13.2453 12.8347C12.8178 12.7753 12.6575 12.0627 12.6575 12.0627V12.2408C12.3903 12.122 12.2835 11.8845 12.2835 11.5876C12.3903 11.6469 12.4972 11.7063 12.6041 11.7063L12.6575 11.5282C12.3903 11.4688 12.1766 11.2906 12.1231 11.0531H12.0697H12.23C12.3903 11.0531 12.5506 11.0531 12.711 10.9937C12.8178 11.1718 13.0316 11.35 13.2453 11.35C13.1919 11.4688 13.2453 11.6469 13.2988 11.8845ZM13.94 13.7255C13.8866 13.7849 13.8866 13.8443 13.8332 13.9631L13.6194 14.1412C13.6728 13.7849 13.4591 13.3098 13.2453 13.1316L13.5125 12.8347L13.566 12.8941C13.4057 13.191 13.566 13.6661 13.94 13.7255ZM12.8178 13.6067L13.0316 13.4286C13.2453 13.6067 13.4591 14.0225 13.4057 14.4382L13.1919 14.6757C13.1385 14.7351 13.085 14.7351 13.085 14.7945C13.1385 14.3788 12.9781 13.8443 12.8178 13.6067ZM12.3903 13.7849C12.4438 13.7849 12.5506 13.7849 12.6041 13.7255C12.7644 13.9631 12.8713 14.4976 12.711 14.7945C12.6041 14.7945 12.4972 14.7945 12.4438 14.7351H12.3903C12.4972 14.4976 12.4972 14.0818 12.3903 13.7849ZM11.9094 13.7255L12.1766 13.7849C12.23 14.0225 12.1766 14.4382 12.0697 14.7351L11.7491 14.6163C11.9094 14.3788 11.9628 13.9631 11.9094 13.7255ZM11.375 13.6661L11.6956 13.7255C11.7491 13.9037 11.6422 14.3194 11.5353 14.5569L11.2147 14.4382C11.3216 14.2006 11.375 13.8443 11.375 13.6661ZM10.0391 13.5474C9.87876 13.6067 9.82532 13.488 9.82532 13.3692C10.1459 13.2504 10.2528 13.3098 10.3597 13.3692C10.4131 13.4286 10.52 13.6067 10.6269 13.6661C10.6269 13.7849 10.5735 14.0225 10.52 14.1412C10.1994 14.0818 10.1994 13.7849 10.3063 13.5474C10.2528 13.488 10.1459 13.488 10.0391 13.5474ZM9.82532 14.2006C9.82532 14.2006 9.9322 14.26 10.0391 14.26C10.0391 14.3194 9.98564 14.3788 9.87876 14.3788C9.82532 14.3788 9.82532 14.26 9.82532 14.2006ZM9.55813 13.2504C9.5047 13.191 9.5047 13.0723 9.61157 13.0723C9.71845 13.0723 9.82532 13.191 9.9322 13.2504H9.55813ZM9.82532 13.9631C9.87876 14.0225 10.0925 14.0225 10.0925 14.0225V14.0818C10.0391 14.1412 9.77189 14.0818 9.82532 13.9631ZM10.0925 13.7849C9.9322 13.8443 9.82532 13.7849 9.82532 13.6661C9.87876 13.7255 10.0925 13.7255 10.0925 13.7255V13.7849ZM10.3063 11.9439L10.0391 13.0129L10.1459 11.2312L10.5735 10.8155L10.7872 11.35L10.2528 13.0723L10.4131 11.9439C10.3597 11.8845 10.3063 11.8845 10.3063 11.9439ZM10.3597 13.3098H10.7338C10.7872 13.3098 10.7338 13.4286 10.6803 13.4286C10.5735 13.4286 10.3597 13.3098 10.3597 13.3098ZM10.7872 13.5474L11.1078 13.6067C11.1078 13.7849 11.1078 14.1412 10.9475 14.3194L10.6269 14.2006C10.7338 14.0225 10.7872 13.7849 10.7872 13.5474ZM16.0775 18.4172C16.0775 19.2486 15.7035 19.9019 15.1691 20.2582L15.3828 19.7831H15.1691L14.9019 20.377C14.6347 20.4957 14.3141 20.5551 13.94 20.5551C12.8713 20.5551 12.6041 20.6145 12.1766 21.0302C11.8025 20.6145 11.4819 20.5551 10.4131 20.5551C10.0925 20.5551 9.77189 20.4957 9.45126 20.377L9.71845 19.7831H9.5047L9.29095 20.3176C9.23751 20.3176 9.18407 20.2582 9.13063 20.1988L9.34438 19.7831H9.13063L9.07719 20.08C8.59625 19.7237 8.32907 19.1298 8.32907 18.4172V15.7447H16.0775V18.4172ZM16.2913 10.3404C16.1844 10.6967 16.0775 11.0531 16.0775 11.4688V15.5072H15.65C15.4363 15.329 15.276 14.6163 15.276 14.6163C15.1691 14.8539 15.276 15.3884 15.3828 15.5072H14.8485C14.6882 15.329 14.5813 14.5569 14.5813 14.5569C14.421 14.7351 14.5278 15.329 14.6347 15.5072H14.2607C14.2607 15.2102 14.3141 14.9133 14.3141 14.9133C14.1003 14.8539 13.94 14.7351 13.94 14.5569C14.0469 14.6757 14.1003 14.6757 14.2072 14.6757L14.3675 14.5569C13.8332 14.5569 13.8332 13.9631 14.2607 13.6661C13.8332 13.6661 13.566 13.4286 13.7263 12.9535C13.4591 12.7753 13.3522 12.2408 13.566 12.0033C13.4057 11.8251 13.4057 11.4688 13.4591 11.2312C13.2453 11.2312 13.0316 11.1125 12.8713 10.9937H12.8178C13.085 10.8749 13.2988 10.6967 13.4591 10.4592H16.2913V10.3404ZM14.7416 8.44C14.3141 8.49939 13.94 9.09327 13.6728 9.62776L13.6194 9.68714H13.2988V9.74653C13.2453 10.1622 12.9247 10.6967 12.1766 10.6967C11.856 10.6967 11.5888 10.578 11.375 10.3998C11.2147 10.281 11.1078 10.1029 11.0544 9.9247C11.0544 9.86531 11.001 9.80592 11.001 9.74653V9.68714H10.6803L10.6269 9.62776C10.3063 9.09327 9.98564 8.55877 9.55813 8.44L10.6803 7.72734L12.0697 8.55877L13.4591 7.72734L14.7416 8.44ZM13.4591 7.31163L12.3369 7.9649V5.29244L13.8866 4.69856L13.4591 7.31163ZM12.23 5.05489L10.5735 4.34224C10.7338 3.98591 11.375 3.62958 12.23 3.62958C13.085 3.62958 13.7263 3.92652 13.8866 4.34224L12.23 5.05489Z" fill="#1D1D1B"/>
<path d="M15.9168 12.9534V12.7752C15.3824 12.7752 15.2221 12.0032 15.2221 12.0032C15.0618 12.5971 15.4893 12.9534 15.9168 12.9534ZM15.2221 14.2005L15.1687 14.0224C14.6878 14.1411 14.4206 13.3097 14.4206 13.3097C14.2603 13.963 14.7946 14.3787 15.2221 14.2005ZM15.5428 13.4285C14.9549 13.5473 14.7412 12.7752 14.7412 12.7752C14.6878 13.1909 14.9015 13.6066 15.2756 13.6066C15.1687 14.1411 15.6496 14.3787 16.0237 14.2005L15.9703 14.0817C15.5962 14.2005 15.329 13.8442 15.5428 13.4285ZM15.1687 11.3499V11.1717C14.4206 10.9936 14.474 10.3997 14.474 10.3997C14.3671 10.9342 14.7946 11.3499 15.1687 11.3499ZM10.3593 20.3769L10.6265 19.783H10.4127L10.1455 20.3769H10.3593ZM10.7334 20.3769L11.0006 19.783H10.8402L10.5731 20.3769H10.7334ZM12.3899 20.3769L12.6571 19.783H12.4434L12.1762 20.3769H12.3899ZM12.8174 20.3769L13.0846 19.783H12.8709L12.6037 20.3769H12.8174ZM11.9624 20.3769L12.2296 19.783H12.0693L11.8021 20.3769H11.9624ZM14.9015 19.783H14.6878L14.4206 20.3769H14.6343L14.9015 19.783ZM11.1609 20.3769L11.4281 19.783H11.2143L10.9471 20.3769H11.1609ZM11.5884 20.3769L11.8556 19.783H11.6418L11.3746 20.3769H11.5884ZM10.7334 16.5166C10.6799 16.5166 10.6265 16.5166 10.6265 16.576C10.6265 16.6354 10.6799 16.6948 10.6799 16.6948C10.7334 16.6948 10.7334 16.6354 10.7334 16.576C10.7868 16.5166 10.7334 16.5166 10.7334 16.5166ZM12.2296 2.79805C13.0846 2.79805 13.7259 3.09499 14.0999 3.45132C14.0999 3.45132 14.2068 2.73867 14.5809 2.0854L13.8862 2.14479L13.5121 1.31336L12.8709 1.66969L12.2296 0.957031L11.5349 1.66969L10.8402 1.25397L10.4662 2.0854L9.77148 2.02601C10.1455 2.67928 10.2524 3.39193 10.2524 3.39193C10.6799 3.09499 11.3746 2.79805 12.2296 2.79805ZM10.6265 2.44173L10.9471 1.66969L11.5349 2.02601L12.2296 1.31336L12.8709 2.02601L13.4587 1.66969L13.7793 2.44173L14.1534 2.38234C14.0465 2.61989 13.9931 2.79805 13.8862 3.03561C13.4587 2.73867 12.8174 2.5605 12.1762 2.5605C11.5349 2.5605 10.8937 2.79805 10.4662 3.03561C10.4127 2.79805 10.3059 2.61989 10.199 2.38234L10.6265 2.44173Z" fill="#1D1D1B"/>
<path d="M12.8721 1.31361C12.979 1.31361 13.0324 1.25422 13.0859 1.13544C13.0859 1.01667 12.979 0.719727 12.979 0.719727C12.979 0.719727 12.7652 0.957278 12.7118 1.07605C12.7118 1.19483 12.8187 1.31361 12.8721 1.31361ZM13.9943 1.72932C14.1012 1.78871 14.2081 1.72932 14.2081 1.66993C14.2615 1.55116 14.2081 1.25422 14.2081 1.25422C14.2081 1.25422 13.9409 1.37299 13.8874 1.49177C13.8874 1.55116 13.8874 1.66993 13.9943 1.72932ZM11.5362 1.31361C11.6431 1.31361 11.6965 1.19483 11.6965 1.07605C11.6965 0.957278 11.4827 0.719727 11.4827 0.719727C11.4827 0.719727 11.3224 1.01667 11.3759 1.13544C11.3224 1.25422 11.4293 1.31361 11.5362 1.31361ZM10.414 1.72932C10.5209 1.66993 10.5209 1.55116 10.4674 1.43238C10.414 1.31361 10.1468 1.19483 10.1468 1.19483C10.1468 1.19483 10.0934 1.55116 10.1468 1.61054C10.2002 1.78871 10.3071 1.78871 10.414 1.72932ZM23.6665 8.49954C23.8803 8.38076 24.094 8.14321 24.1475 7.90566C23.5597 7.78688 21.9565 7.07423 20.674 7.6681C21.155 7.13361 21.5825 7.07423 21.6359 6.36157C21.8497 6.53974 22.1703 6.59912 22.384 6.2428C22.2237 5.82708 21.9031 6.18341 21.8497 6.06463C21.7962 5.88647 22.2772 6.12402 22.384 5.53014C22.01 5.41137 21.9031 5.70831 21.7962 5.64892C21.7428 5.58953 22.0634 5.41137 21.7962 4.93626C21.3687 5.17382 21.5825 5.47075 21.529 5.53014C21.4222 5.58953 21.529 5.2332 21.0481 5.2332C20.9947 5.76769 21.4756 5.76769 21.3687 5.88647C21.2618 6.00525 21.155 5.58953 20.8343 5.76769C20.8343 6.18341 21.155 6.42096 21.4756 6.30218C21.4222 7.13361 20.7275 6.95545 20.2465 7.90566C21.3153 8.49954 21.7962 9.56852 22.4375 10.2812C22.6512 10.103 23.0253 9.33096 23.0253 9.33096C23.72 9.92484 24.2009 9.33096 24.2009 9.33096C24.0406 9.09341 24.0406 8.85586 23.6665 8.49954ZM22.5978 8.61831C22.6512 8.79647 22.8115 9.44974 22.4909 9.92484C22.1169 9.03403 21.5825 8.32137 21.1015 7.96504C20.9947 7.90566 21.155 7.78688 21.4222 7.72749C22.2237 7.54933 23.1856 7.96504 23.6665 8.08382C23.4528 8.26198 23.2925 8.32137 23.0787 8.38076C23.3994 8.6777 23.6665 8.97464 23.8269 9.21219C23.5062 9.33097 23.2925 9.09341 22.5978 8.61831ZM12.0171 22.8714H11.5362L11.4827 23.0496H11.5362C11.5362 23.0496 11.5362 22.9902 11.5896 22.9902H11.9637C11.8568 23.2277 11.5362 23.5247 11.5362 23.6434C11.5362 23.7622 11.6431 23.7622 11.6965 23.7622C11.8034 23.7622 11.8034 23.7028 11.8568 23.584C11.9102 23.3465 12.0171 23.1089 12.124 22.812L12.0171 22.8714ZM12.3377 23.2277V23.0496H12.7118V22.8714C12.6049 22.8714 12.4446 22.9308 12.2843 22.9308L12.2309 23.2871C12.3912 23.2871 12.5515 23.3465 12.5515 23.584C12.5515 23.6434 12.4981 23.8216 12.4446 23.8216H12.3912C12.3377 23.7622 12.3912 23.7622 12.3912 23.7028C12.3912 23.6434 12.3377 23.584 12.2843 23.6434C12.2309 23.6434 12.1774 23.7028 12.1774 23.7622C12.1774 23.881 12.3377 23.9404 12.4446 23.9404C12.6049 23.9404 12.8187 23.8216 12.8187 23.6434C12.7652 23.2871 12.4981 23.2277 12.3377 23.2277ZM13.1927 22.8714C13.0324 22.8714 12.9256 22.9902 12.9256 23.1683C12.9256 23.4059 13.1927 23.5247 13.3531 23.4059C13.3531 23.584 13.3531 23.7622 13.2462 23.7622C13.1927 23.7622 13.1927 23.7028 13.1927 23.7028C13.1927 23.6434 13.1393 23.584 13.0859 23.6434C13.0324 23.6434 13.0324 23.7028 13.0324 23.7622C13.0324 23.881 13.1927 23.881 13.2462 23.881C13.4599 23.881 13.5668 23.6434 13.5668 23.4653C13.5668 23.1089 13.4065 22.8714 13.1927 22.8714ZM13.2996 23.3465C13.1393 23.3465 13.1393 23.1089 13.1393 22.9902C13.1393 22.9308 13.1927 22.9308 13.1927 22.9308C13.2996 22.9308 13.3531 23.2871 13.3531 23.3465H13.2996ZM11.2156 22.812C11.2156 22.812 11.1087 22.9902 10.8949 23.1683V23.2277C10.8949 23.2277 10.9484 23.1683 11.0018 23.1683L10.8949 23.6434H10.7881V23.7028L11.2156 23.7622V23.7028H11.1621C11.1621 23.7028 11.1087 23.7028 11.1087 23.6434L11.2156 22.812Z" fill="#1D1D1B"/>
<path d="M15.8103 22.159V21.1494C15.1156 21.5057 14.2606 21.8027 13.1384 21.9214L13.085 22.2778C13.1919 22.2778 13.2987 22.2778 13.459 22.3372C13.0315 22.3966 12.4972 22.4559 12.23 22.4559C11.9094 22.4559 11.375 22.3966 11.0009 22.3372C11.1612 22.3372 11.2681 22.3372 11.375 22.2778L11.3215 21.9214C10.1993 21.8027 9.2909 21.5057 8.64965 21.1494V22.159L7.68777 22.5747C8.38246 22.9904 9.18403 23.2874 10.0925 23.5843L9.98559 24C10.52 24.1782 11.375 24.3564 12.23 24.3564C13.1384 24.3564 13.94 24.1782 14.4744 24L14.3675 23.5843C15.2759 23.3468 16.0775 22.9904 16.7722 22.5747L15.8103 22.159ZM8.16871 22.6341L8.80996 22.3372V21.5057C9.23746 21.6839 9.77184 21.8621 10.52 22.0402L10.1459 23.3468C9.34434 23.1686 8.70309 22.931 8.16871 22.6341ZM12.23 24.1188C11.5353 24.1188 10.8406 24 10.2528 23.8219L10.6268 22.4559C10.894 22.5153 11.4818 22.6341 12.23 22.6341C12.9781 22.6341 13.6194 22.5747 13.8331 22.4559L14.2072 23.8219C13.6194 24 12.9247 24.1188 12.23 24.1188ZM14.314 23.3468L13.94 22.0402C14.6881 21.8621 15.2225 21.6839 15.65 21.5057V22.3372L16.2912 22.6341C15.7569 22.931 15.0622 23.1686 14.314 23.3468ZM1.32868 9.33122C1.32868 9.33122 1.70274 10.1033 1.91649 10.2814C2.55775 9.56878 3.03869 8.49979 4.10744 7.90592C3.6265 7.0151 2.93181 7.13387 2.87837 6.30244C3.199 6.42122 3.51962 6.18367 3.51962 5.76795C3.199 5.58979 3.03869 5.94612 2.98525 5.88673C2.93181 5.82734 3.35931 5.76795 3.30587 5.23346C2.87837 5.23346 2.93181 5.58979 2.82493 5.5304C2.71806 5.47101 2.93181 5.17407 2.55775 4.93652C2.34399 5.41163 2.66462 5.5304 2.55775 5.64918C2.50431 5.70857 2.39743 5.35224 1.96993 5.5304C2.07681 6.12428 2.55775 5.88673 2.50431 6.06489C2.45087 6.18367 2.13024 5.82734 1.96993 6.24306C2.18368 6.65877 2.50431 6.54 2.71806 6.36183C2.7715 7.13387 3.199 7.19326 3.67994 7.66836C2.39743 7.07449 0.7943 7.78714 0.206485 7.90592C0.31336 8.14347 0.473674 8.38102 0.740862 8.49979C0.366798 8.85612 0.366798 9.09367 0.0996094 9.39061C0.153047 9.33122 0.633987 9.9251 1.32868 9.33122ZM0.580549 9.21245C0.740862 8.91551 1.00805 8.67796 1.32868 8.38102C1.11493 8.32163 0.954613 8.26224 0.740862 8.08408C1.2218 7.9653 2.13024 7.54959 2.98525 7.72775C3.25244 7.78714 3.41275 7.90592 3.30587 7.9653C2.87837 8.26224 2.34399 9.03428 1.91649 9.9251C1.59587 9.45 1.70274 8.79673 1.80962 8.61857C1.11493 9.09367 0.901175 9.33122 0.580549 9.21245ZM11.6422 8.79673V9.21245C11.8025 9.03429 12.0162 9.09367 12.0162 9.09367V9.74694C12.0162 9.74694 12.0162 10.0439 11.9094 10.1627H12.4972C12.3903 10.0439 12.3903 9.74694 12.3903 9.74694V9.09367C12.3903 9.09367 12.6575 9.03429 12.7644 9.21245V8.79673H11.6422Z" fill="#1D1D1B"/>
</g>
<defs>
<clipPath id="clip0_663_11893">
<rect width="24.1004" height="23.6364" fill="white" transform="translate(0.0996094 0.719727)"/>
</clipPath>
</defs>
</svg>
