<svg width="30" height="30" viewBox="0 0 30 30" fill="none" xmlns="http://www.w3.org/2000/svg">
<path d="M22.8002 26.7335C23.3525 26.7335 23.8046 26.2849 23.7585 25.7346C23.5611 23.3784 22.67 21.1623 21.2227 19.4738C19.5724 17.5485 17.3341 16.4668 15.0002 16.4668C12.6663 16.4668 10.428 17.5485 8.77766 19.4738C7.33038 21.1623 6.43928 23.3784 6.24192 25.7346C6.19582 26.2849 6.64791 26.7335 7.2002 26.7335L15.0002 26.7335H22.8002Z" fill="#9D75FE"/>
<path fill-rule="evenodd" clip-rule="evenodd" d="M15 14.9999C18.24 14.9999 20.8666 12.3733 20.8666 9.13327C20.8666 5.8932 18.24 3.2666 15 3.2666C11.7599 3.2666 9.1333 5.8932 9.1333 9.13327C9.1333 12.3733 11.7599 14.9999 15 14.9999ZM15 12.0666C16.62 12.0666 17.9333 10.7533 17.9333 9.13327C17.9333 7.51323 16.62 6.19993 15 6.19993C13.3799 6.19993 12.0666 7.51323 12.0666 9.13327C12.0666 10.7533 13.3799 12.0666 15 12.0666Z" fill="#9D75FE"/>
</svg>
