<svg width="75" height="20" viewBox="0 0 75 20" fill="none" xmlns="http://www.w3.org/2000/svg">
<path d="M2.94 15.6941C2.82667 16.0007 2.64333 16.2307 2.39 16.3841C2.14333 16.5374 1.89 16.6141 1.63 16.6141H0.58L6.42 1.67406C6.52667 1.39406 6.69 1.18073 6.91 1.03406C7.13 0.880729 7.38667 0.804062 7.68 0.804062H8.74L2.94 15.6941Z" fill="#505EFF"/>
<path d="M25.1864 5.40406L21.9264 15.6641H19.9464C19.7197 15.6641 19.5631 15.5174 19.4764 15.2241L17.6364 9.29406C17.5764 9.09406 17.5197 8.8974 17.4664 8.70406C17.4197 8.50406 17.3797 8.30406 17.3464 8.10406C17.3064 8.30406 17.2597 8.5074 17.2064 8.71406C17.1597 8.91406 17.1064 9.11406 17.0464 9.31406L15.1764 15.2241C15.0964 15.5174 14.9197 15.6641 14.6464 15.6641H12.7464L9.49641 5.40406H11.4664C11.6464 5.40406 11.7997 5.4474 11.9264 5.53406C12.0531 5.62073 12.1364 5.73073 12.1764 5.86406L13.6464 11.3441C13.7197 11.6441 13.7831 11.9374 13.8364 12.2241C13.8964 12.5107 13.9464 12.7974 13.9864 13.0841C14.0597 12.7974 14.1364 12.5107 14.2164 12.2241C14.3031 11.9374 14.3931 11.6441 14.4864 11.3441L16.1864 5.84406C16.2264 5.71073 16.3031 5.60073 16.4164 5.51406C16.5364 5.4274 16.6797 5.38406 16.8464 5.38406H17.9364C18.1097 5.38406 18.2564 5.4274 18.3764 5.51406C18.5031 5.60073 18.5864 5.71073 18.6264 5.84406L20.2764 11.3441C20.3631 11.6441 20.4431 11.9407 20.5164 12.2341C20.5964 12.5207 20.6731 12.8074 20.7464 13.0941C20.8331 12.5274 20.9564 11.9441 21.1164 11.3441L22.6264 5.86406C22.6731 5.73073 22.7564 5.62073 22.8764 5.53406C22.9964 5.4474 23.1397 5.40406 23.3064 5.40406H25.1864ZM29.1511 5.40406V15.6641H26.6711V5.40406H29.1511ZM29.4911 2.41406C29.4911 2.62739 29.4478 2.82739 29.3611 3.01406C29.2744 3.20073 29.1578 3.36406 29.0111 3.50406C28.8711 3.64406 28.7044 3.7574 28.5111 3.84406C28.3178 3.92406 28.1111 3.96406 27.8911 3.96406C27.6778 3.96406 27.4744 3.92406 27.2811 3.84406C27.0944 3.7574 26.9311 3.64406 26.7911 3.50406C26.6511 3.36406 26.5378 3.20073 26.4511 3.01406C26.3711 2.82739 26.3311 2.62739 26.3311 2.41406C26.3311 2.19406 26.3711 1.9874 26.4511 1.79406C26.5378 1.60073 26.6511 1.43406 26.7911 1.29406C26.9311 1.15406 27.0944 1.04406 27.2811 0.964062C27.4744 0.877395 27.6778 0.834062 27.8911 0.834062C28.1111 0.834062 28.3178 0.877395 28.5111 0.964062C28.7044 1.04406 28.8711 1.15406 29.0111 1.29406C29.1578 1.43406 29.2744 1.60073 29.3611 1.79406C29.4478 1.9874 29.4911 2.19406 29.4911 2.41406ZM37.9292 7.40406C37.8626 7.51073 37.7926 7.5874 37.7192 7.63406C37.6459 7.67406 37.5526 7.69406 37.4392 7.69406C37.3192 7.69406 37.1892 7.66073 37.0492 7.59406C36.9159 7.5274 36.7592 7.45406 36.5792 7.37406C36.3992 7.2874 36.1926 7.21073 35.9592 7.14406C35.7326 7.0774 35.4626 7.04406 35.1492 7.04406C34.6626 7.04406 34.2792 7.1474 33.9992 7.35406C33.7259 7.56073 33.5892 7.83073 33.5892 8.16406C33.5892 8.38406 33.6592 8.57073 33.7992 8.72406C33.9459 8.87073 34.1359 9.00073 34.3692 9.11406C34.6092 9.2274 34.8792 9.33073 35.1792 9.42406C35.4792 9.51073 35.7826 9.6074 36.0892 9.71406C36.4026 9.82073 36.7092 9.94406 37.0092 10.0841C37.3092 10.2174 37.5759 10.3907 37.8092 10.6041C38.0492 10.8107 38.2392 11.0607 38.3792 11.3541C38.5259 11.6474 38.5992 12.0007 38.5992 12.4141C38.5992 12.9074 38.5092 13.3641 38.3292 13.7841C38.1559 14.1974 37.8959 14.5574 37.5492 14.8641C37.2026 15.1641 36.7726 15.4007 36.2592 15.5741C35.7526 15.7407 35.1659 15.8241 34.4992 15.8241C34.1459 15.8241 33.7992 15.7907 33.4592 15.7241C33.1259 15.6641 32.8026 15.5774 32.4892 15.4641C32.1826 15.3507 31.8959 15.2174 31.6292 15.0641C31.3692 14.9107 31.1392 14.7441 30.9392 14.5641L31.5092 13.6241C31.5826 13.5107 31.6692 13.4241 31.7692 13.3641C31.8692 13.3041 31.9959 13.2741 32.1492 13.2741C32.3026 13.2741 32.4459 13.3174 32.5792 13.4041C32.7192 13.4907 32.8792 13.5841 33.0592 13.6841C33.2392 13.7841 33.4492 13.8774 33.6892 13.9641C33.9359 14.0507 34.2459 14.0941 34.6192 14.0941C34.9126 14.0941 35.1626 14.0607 35.3692 13.9941C35.5826 13.9207 35.7559 13.8274 35.8892 13.7141C36.0292 13.6007 36.1292 13.4707 36.1892 13.3241C36.2559 13.1707 36.2892 13.0141 36.2892 12.8541C36.2892 12.6141 36.2159 12.4174 36.0692 12.2641C35.9292 12.1107 35.7392 11.9774 35.4992 11.8641C35.2659 11.7507 34.9959 11.6507 34.6892 11.5641C34.3892 11.4707 34.0792 11.3707 33.7592 11.2641C33.4459 11.1574 33.1359 11.0341 32.8292 10.8941C32.5292 10.7474 32.2592 10.5641 32.0192 10.3441C31.7859 10.1241 31.5959 9.85406 31.4492 9.53406C31.3092 9.21406 31.2392 8.8274 31.2392 8.37406C31.2392 7.95406 31.3226 7.55406 31.4892 7.17406C31.6559 6.79406 31.8992 6.46406 32.2192 6.18406C32.5459 5.8974 32.9492 5.67073 33.4292 5.50406C33.9159 5.33073 34.4759 5.24406 35.1092 5.24406C35.8159 5.24406 36.4592 5.36073 37.0392 5.59406C37.6192 5.8274 38.1026 6.13406 38.4892 6.51406L37.9292 7.40406ZM42.9283 13.0041C43.2083 13.3441 43.5116 13.5841 43.8383 13.7241C44.1716 13.8641 44.5316 13.9341 44.9183 13.9341C45.2916 13.9341 45.6283 13.8641 45.9283 13.7241C46.2283 13.5841 46.4816 13.3707 46.6883 13.0841C46.9016 12.7974 47.0649 12.4374 47.1783 12.0041C47.2916 11.5641 47.3483 11.0474 47.3483 10.4541C47.3483 9.85406 47.2983 9.3474 47.1983 8.93406C47.1049 8.51406 46.9683 8.17406 46.7883 7.91406C46.6083 7.65406 46.3883 7.46406 46.1283 7.34406C45.8749 7.22406 45.5849 7.16406 45.2583 7.16406C44.7449 7.16406 44.3083 7.27406 43.9483 7.49406C43.5883 7.7074 43.2483 8.01073 42.9283 8.40406V13.0041ZM42.7983 6.80406C43.2183 6.33073 43.6949 5.9474 44.2283 5.65406C44.7616 5.36073 45.3883 5.21406 46.1083 5.21406C46.6683 5.21406 47.1783 5.33073 47.6383 5.56406C48.1049 5.7974 48.5049 6.1374 48.8383 6.58406C49.1783 7.02406 49.4383 7.57073 49.6183 8.22406C49.8049 8.87073 49.8983 9.61406 49.8983 10.4541C49.8983 11.2207 49.7949 11.9307 49.5883 12.5841C49.3816 13.2374 49.0849 13.8041 48.6983 14.2841C48.3183 14.7641 47.8549 15.1407 47.3083 15.4141C46.7683 15.6807 46.1616 15.8141 45.4883 15.8141C44.9149 15.8141 44.4249 15.7274 44.0183 15.5541C43.6116 15.3741 43.2483 15.1274 42.9283 14.8141V19.0141H40.4583V5.40406H41.9683C42.2883 5.40406 42.4983 5.55406 42.5983 5.85406L42.7983 6.80406ZM54.2955 13.0041C54.5755 13.3441 54.8788 13.5841 55.2055 13.7241C55.5388 13.8641 55.8888 13.9341 56.2555 13.9341C56.6355 13.9341 56.9755 13.8674 57.2755 13.7341C57.5821 13.5941 57.8421 13.3807 58.0555 13.0941C58.2688 12.8007 58.4321 12.4307 58.5455 11.9841C58.6588 11.5307 58.7155 10.9907 58.7155 10.3641C58.7155 9.2374 58.5288 8.42406 58.1555 7.92406C57.7821 7.4174 57.2455 7.16406 56.5455 7.16406C56.0721 7.16406 55.6588 7.27406 55.3055 7.49406C54.9521 7.7074 54.6155 8.01073 54.2955 8.40406V13.0041ZM54.2955 6.66406C54.7088 6.23073 55.1655 5.8874 55.6655 5.63406C56.1721 5.37406 56.7488 5.24406 57.3955 5.24406C57.9888 5.24406 58.5221 5.36073 58.9955 5.59406C59.4755 5.8274 59.8821 6.16406 60.2155 6.60406C60.5555 7.0374 60.8155 7.56406 60.9955 8.18406C61.1755 8.80406 61.2655 9.50073 61.2655 10.2741C61.2655 11.1074 61.1621 11.8641 60.9555 12.5441C60.7488 13.2241 60.4521 13.8074 60.0655 14.2941C59.6855 14.7741 59.2255 15.1474 58.6855 15.4141C58.1455 15.6807 57.5455 15.8141 56.8855 15.8141C56.5655 15.8141 56.2755 15.7807 56.0155 15.7141C55.7555 15.6541 55.5155 15.5674 55.2955 15.4541C55.0755 15.3407 54.8721 15.2041 54.6855 15.0441C54.5055 14.8774 54.3321 14.6941 54.1655 14.4941L54.0555 15.1841C54.0155 15.3574 53.9455 15.4807 53.8455 15.5541C53.7521 15.6274 53.6221 15.6641 53.4555 15.6641H51.8255V0.804062H54.2955V6.66406ZM65.7331 5.40406V15.6641H63.2531V5.40406H65.7331ZM66.0731 2.41406C66.0731 2.62739 66.0298 2.82739 65.9431 3.01406C65.8565 3.20073 65.7398 3.36406 65.5931 3.50406C65.4531 3.64406 65.2865 3.7574 65.0931 3.84406C64.8998 3.92406 64.6931 3.96406 64.4731 3.96406C64.2598 3.96406 64.0565 3.92406 63.8631 3.84406C63.6765 3.7574 63.5131 3.64406 63.3731 3.50406C63.2331 3.36406 63.1198 3.20073 63.0331 3.01406C62.9531 2.82739 62.9131 2.62739 62.9131 2.41406C62.9131 2.19406 62.9531 1.9874 63.0331 1.79406C63.1198 1.60073 63.2331 1.43406 63.3731 1.29406C63.5131 1.15406 63.6765 1.04406 63.8631 0.964062C64.0565 0.877395 64.2598 0.834062 64.4731 0.834062C64.6931 0.834062 64.8998 0.877395 65.0931 0.964062C65.2865 1.04406 65.4531 1.15406 65.5931 1.29406C65.7398 1.43406 65.8565 1.60073 65.9431 1.79406C66.0298 1.9874 66.0731 2.19406 66.0731 2.41406ZM71.6713 15.8241C70.7779 15.8241 70.0913 15.5741 69.6113 15.0741C69.1379 14.5674 68.9013 13.8707 68.9013 12.9841V7.25406H67.8513C67.7179 7.25406 67.6046 7.21073 67.5113 7.12406C67.4179 7.0374 67.3713 6.9074 67.3713 6.73406V5.75406L69.0213 5.48406L69.5413 2.68406C69.5746 2.55073 69.6379 2.44739 69.7313 2.37406C69.8246 2.30073 69.9446 2.26406 70.0913 2.26406H71.3713V5.49406H74.1113V7.25406H71.3713V12.8141C71.3713 13.1341 71.4479 13.3841 71.6013 13.5641C71.7613 13.7441 71.9779 13.8341 72.2513 13.8341C72.4046 13.8341 72.5313 13.8174 72.6313 13.7841C72.7379 13.7441 72.8279 13.7041 72.9013 13.6641C72.9813 13.6241 73.0513 13.5874 73.1113 13.5541C73.1713 13.5141 73.2313 13.4941 73.2913 13.4941C73.3646 13.4941 73.4246 13.5141 73.4713 13.5541C73.5179 13.5874 73.5679 13.6407 73.6213 13.7141L74.3613 14.9141C74.0013 15.2141 73.5879 15.4407 73.1213 15.5941C72.6546 15.7474 72.1713 15.8241 71.6713 15.8241Z" fill="#CBD5E1"/>
</svg>
